<svg width="92" height="74" viewBox="0 0 92 74" fill="none" xmlns="http://www.w3.org/2000/svg">
<path d="M58.0482 51.8216L29.8122 70.1126C25.5795 72.8545 20.4315 73.8028 15.4999 72.749C10.5684 71.6953 6.2571 68.7258 3.51397 64.4933V64.4933C0.772705 60.2597 -0.175419 55.1104 0.878069 50.1777C1.93156 45.245 4.90041 40.9327 9.13186 38.1889L37.3678 19.8979L58.0482 51.8216Z" fill="#57CC99"/>
<path d="M88.9384 9.11557C91.6797 13.3492 92.6278 18.4985 91.5743 23.4312C90.5208 28.3639 87.552 32.6762 83.3205 35.42L55.0845 53.7272L34.4042 21.7873L62.6402 3.49633C66.8729 0.754416 72.0209 -0.193895 76.9524 0.859841C81.884 1.91358 86.1953 4.88312 88.9384 9.11557V9.11557Z" fill="#38A3A5"/>
<path d="M35.8695 20.8659L32.74 22.894L53.4771 54.9073L56.6066 52.8791L35.8695 20.8659Z" fill="#529F91"/>
<g style="mix-blend-mode:soft-light" opacity="0.3">
<path d="M88.9384 9.11559C91.6797 13.3492 92.6278 18.4985 91.5743 23.4312C90.5208 28.3639 87.552 32.6762 83.3205 35.42L57.2666 52.359C56.8785 51.8827 56.6005 51.3265 56.4524 50.7303C56.2095 48.9109 56.5882 47.0628 57.5271 45.4857C60.3146 39.6473 63.9712 34.2655 68.3721 29.5239C71.0914 26.5758 74.2668 23.579 74.8856 19.6211C75.7323 14.4253 71.8731 9.84851 67.5253 7.56825C65.555 6.55843 62.3634 6.16753 60.3116 5.07626L62.689 3.44751C66.9237 0.725614 72.0644 -0.206193 76.9847 0.856251C81.905 1.91869 86.2035 4.88875 88.9384 9.11559V9.11559Z" fill="black"/>
</g>
<g style="mix-blend-mode:soft-light" opacity="0.3">
<path d="M3.57912 52.3428C3.6932 56.1813 5.10538 59.8675 7.58491 62.7994C8.03968 63.3914 8.59003 63.9033 9.21329 64.3141C9.96608 64.6983 10.7947 64.9107 11.6394 64.9361C12.4841 64.9614 13.3239 64.7991 14.0984 64.4608C14.8236 64.2534 15.4701 63.8336 15.9547 63.2555C16.2337 62.799 16.3959 62.2809 16.4272 61.7468C16.4584 61.2128 16.3577 60.6792 16.1339 60.1934C15.6731 59.2275 15.0991 58.32 14.4241 57.4897C13.7011 56.4607 13.0691 55.3708 12.5352 54.2321C12.2009 53.6117 12.0273 52.9173 12.0304 52.2124C12.1444 50.828 13.4308 49.867 14.6032 49.1178L18.3973 46.6584C19.5209 45.9091 20.791 44.9319 20.7259 43.58C20.656 42.9192 20.3494 42.306 19.8628 41.8535C19.0938 41.1279 18.1596 40.6004 17.1411 40.3166C16.1226 40.0328 15.0504 40.0013 14.017 40.2248C11.1416 40.7193 8.5277 42.1988 6.62334 44.4097C4.71898 46.6206 3.64274 49.4252 3.57912 52.3428V52.3428Z" fill="white"/>
</g>
</svg>
