<svg width="127" height="148" viewBox="0 0 127 148" fill="none" xmlns="http://www.w3.org/2000/svg">
<path d="M83.9872 116.072C86.043 105.648 79.2628 95.5325 68.8432 93.4779C58.4236 91.4232 48.3103 98.2076 46.2545 108.631C44.1988 119.055 50.979 129.17 61.3986 131.225C71.8182 133.28 81.9315 126.495 83.9872 116.072Z" fill="#22577A"/>
<path d="M72.4954 114.801L58.4219 113.922L65.2192 9.33505C65.3424 7.46758 66.201 5.72506 67.6068 4.48962C69.0125 3.25417 70.8506 2.62664 72.718 2.74462V2.74462C74.5773 2.87099 76.3112 3.72675 77.5425 5.12564C78.7739 6.52452 79.4029 8.35331 79.2926 10.214L72.4954 114.801Z" fill="#22577A"/>
<path d="M70.5198 107.054L61.6081 106.485L66.4064 32.971C66.4434 32.3856 66.5955 31.8132 66.854 31.2866C67.1124 30.76 67.472 30.2895 67.9124 29.902C68.3527 29.5145 68.8651 29.2176 69.4202 29.0284C69.9753 28.8391 70.5623 28.7611 71.1475 28.7989V28.7989C72.328 28.8778 73.4292 29.4207 74.2106 30.3091C74.992 31.1975 75.3901 32.3591 75.318 33.5402L70.5198 107.054Z" fill="#529F91"/>
<path d="M78.0444 112.551C78.4979 105.594 73.1405 99.5812 66.0783 99.1217C59.0161 98.6622 52.9234 103.93 52.4699 110.887C52.0164 117.844 57.3738 123.857 64.436 124.316C71.4982 124.775 77.5909 119.508 78.0444 112.551Z" fill="#529F91"/>
<path d="M77.2193 18.4389L72.4148 18.131C72.3084 18.1257 72.2041 18.099 72.1081 18.0526C72.0122 18.0063 71.9265 17.9412 71.8561 17.8612C71.7857 17.7811 71.7321 17.6878 71.6983 17.5867C71.6646 17.4856 71.6515 17.3787 71.6597 17.2725V17.2725C71.6638 17.1672 71.6892 17.0638 71.7343 16.9686C71.7793 16.8733 71.8432 16.7882 71.922 16.7183C72.0008 16.6483 72.0929 16.595 72.1928 16.5616C72.2927 16.5282 72.3984 16.5153 72.5034 16.5237L77.3294 16.8399C77.4346 16.844 77.538 16.8693 77.6332 16.9144C77.7284 16.9595 77.8135 17.0233 77.8834 17.1021C77.9533 17.1809 78.0066 17.2731 78.04 17.373C78.0734 17.4729 78.0863 17.5785 78.0778 17.6836C78.0627 17.897 77.9641 18.0959 77.8034 18.2373C77.6427 18.3787 77.4329 18.4511 77.2193 18.4389V18.4389Z" fill="#32324C"/>
<path d="M76.6712 26.5587L73.72 26.3723C73.5066 26.3571 73.3077 26.2586 73.1664 26.0979C73.0251 25.9372 72.9527 25.7274 72.9649 25.5137V25.5137C72.9776 25.3026 73.0737 25.1051 73.2318 24.9647C73.39 24.8243 73.5975 24.7525 73.8086 24.7649L76.7664 24.9662C76.8716 24.9704 76.975 24.9957 77.0702 25.0408C77.1654 25.0858 77.2505 25.1497 77.3204 25.2285C77.3903 25.3073 77.4436 25.3994 77.477 25.4993C77.5104 25.5993 77.5233 25.7049 77.5149 25.8099V25.8099C77.5107 25.9152 77.4854 26.0186 77.4403 26.1138C77.3952 26.2091 77.3313 26.2942 77.2525 26.3641C77.1737 26.4341 77.0816 26.4874 76.9817 26.5208C76.8818 26.5542 76.7762 26.5671 76.6712 26.5587Z" fill="#32324C"/>
<path d="M76.1677 34.6586L71.3483 34.3573C71.1364 34.3382 70.94 34.2384 70.7995 34.0787C70.659 33.9189 70.5852 33.7113 70.5932 33.4987V33.4987C70.6084 33.2852 70.707 33.0863 70.8677 32.945C71.0283 32.8036 71.2382 32.7312 71.4518 32.7433L76.2778 33.0595C76.4889 33.0722 76.6863 33.1682 76.8266 33.3264C76.9669 33.4846 77.0388 33.692 77.0262 33.9032V33.9032C77.0111 34.1167 76.9125 34.3156 76.7518 34.4569C76.5912 34.5983 76.3813 34.6707 76.1677 34.6586Z" fill="#32324C"/>
<path d="M75.6345 42.7718L72.6833 42.5853C72.5775 42.5781 72.4743 42.5498 72.3796 42.5022C72.2849 42.4546 72.2006 42.3886 72.1317 42.3081C72.0628 42.2275 72.0106 42.1341 71.9782 42.0331C71.9459 41.9322 71.9339 41.8258 71.9431 41.7202C71.9558 41.509 72.0518 41.3116 72.21 41.1712C72.3682 41.0308 72.5757 40.9589 72.7868 40.9714L75.7445 41.1727C75.8498 41.1768 75.9531 41.2022 76.0484 41.2472C76.1436 41.2923 76.2287 41.3561 76.2986 41.4349C76.3685 41.5137 76.4218 41.6059 76.4552 41.7058C76.4886 41.8057 76.5015 41.9114 76.493 42.0164C76.4899 42.1236 76.4648 42.229 76.4192 42.3261C76.3736 42.4232 76.3085 42.5099 76.2279 42.5807C76.1474 42.6516 76.0531 42.7051 75.9511 42.738C75.849 42.7709 75.7412 42.7824 75.6345 42.7718V42.7718Z" fill="#32324C"/>
<path d="M75.1161 50.8782L70.2967 50.5769C70.0848 50.5577 69.8884 50.458 69.7479 50.2983C69.6074 50.1385 69.5336 49.9309 69.5416 49.7183V49.7183C69.5608 49.5064 69.6605 49.3099 69.8203 49.1693C69.98 49.0288 70.1876 48.9549 70.4002 48.9629L75.2262 49.2791C75.4372 49.2918 75.6347 49.3878 75.775 49.546C75.9153 49.7042 75.9871 49.9116 75.9746 50.1228C75.9692 50.2292 75.9426 50.3335 75.8962 50.4295C75.8498 50.5255 75.7847 50.6112 75.7047 50.6816C75.6247 50.752 75.5314 50.8057 75.4303 50.8395C75.3292 50.8732 75.2223 50.8864 75.1161 50.8782V50.8782Z" fill="#32324C"/>
<path d="M74.5828 58.9914L71.6317 58.805C71.4198 58.7858 71.2234 58.6861 71.0829 58.5264C70.9424 58.3666 70.8685 58.159 70.8766 57.9464C70.8957 57.7345 70.9955 57.538 71.1552 57.3974C71.315 57.2569 71.5225 57.183 71.7351 57.191L74.6929 57.3923C74.7993 57.3977 74.9036 57.4243 74.9996 57.4707C75.0955 57.517 75.1812 57.5822 75.2516 57.6622C75.322 57.7422 75.3756 57.8355 75.4094 57.9367C75.4431 58.0378 75.4562 58.1446 75.448 58.2509V58.2509C75.4407 58.3567 75.4125 58.4599 75.3648 58.5547C75.3172 58.6494 75.2512 58.7337 75.1707 58.8026C75.0901 58.8716 74.9967 58.9238 74.8957 58.9562C74.7948 58.9886 74.6884 59.0005 74.5828 58.9914V58.9914Z" fill="#32324C"/>
<path d="M74.0645 67.0978L69.2451 66.7965C69.0317 66.7814 68.8328 66.6828 68.6915 66.5221C68.5502 66.3614 68.4778 66.1516 68.49 65.9379C68.5092 65.726 68.6089 65.5295 68.7687 65.389C68.9284 65.2484 69.136 65.1745 69.3486 65.1826L74.1746 65.4987C74.2803 65.506 74.3836 65.5342 74.4783 65.5818C74.573 65.6294 74.6572 65.6954 74.7261 65.776C74.7951 65.8565 74.8472 65.95 74.8796 66.0509C74.912 66.1519 74.924 66.2583 74.9148 66.3639V66.3639C74.9088 66.4685 74.8818 66.5708 74.8354 66.6648C74.7891 66.7588 74.7244 66.8425 74.645 66.911C74.5657 66.9794 74.4735 67.0312 74.3737 67.0633C74.274 67.0954 74.1689 67.1071 74.0645 67.0978Z" fill="#32324C"/>
<path d="M73.5048 75.1514L70.5537 74.965C70.3418 74.9459 70.1454 74.8462 70.0049 74.6864C69.8644 74.5267 69.7905 74.3191 69.7986 74.1064V74.1064C69.8058 74.0007 69.8341 73.8974 69.8817 73.8027C69.9293 73.708 69.9953 73.6237 70.0759 73.5547C70.1564 73.4858 70.2499 73.4336 70.3508 73.4012C70.4518 73.3688 70.5581 73.3568 70.6637 73.366L73.6149 73.5524C73.8283 73.5675 74.0272 73.6661 74.1685 73.8268C74.3098 73.9874 74.3822 74.1973 74.37 74.4109C74.3627 74.5167 74.3345 74.62 74.2868 74.7147C74.2392 74.8094 74.1732 74.8937 74.0927 74.9627C74.0121 75.0316 73.9187 75.0838 73.8177 75.1162C73.7168 75.1486 73.6104 75.1606 73.5048 75.1514V75.1514Z" fill="#32324C"/>
<path d="M72.998 83.324L68.1935 83.0161C67.9801 83.001 67.7812 82.9024 67.6399 82.7417C67.4986 82.5811 67.4262 82.3712 67.4384 82.1576V82.1576C67.4576 81.9456 67.5573 81.7491 67.7171 81.6086C67.8768 81.468 68.0844 81.3942 68.297 81.4022L73.1081 81.725C73.3215 81.7401 73.5203 81.8387 73.6616 81.9993C73.803 82.16 73.8753 82.3699 73.8631 82.5835V82.5835C73.8559 82.6893 73.8276 82.7926 73.78 82.8873C73.7324 82.982 73.6664 83.0663 73.5858 83.1353C73.5053 83.2042 73.4118 83.2564 73.3109 83.2888C73.21 83.3212 73.1036 83.3332 72.998 83.324V83.324Z" fill="#32324C"/>
<path d="M72.4862 91.4455L69.5021 91.1847C69.3956 91.1793 69.2913 91.1526 69.1954 91.1063C69.0994 91.0599 69.0137 90.9948 68.9433 90.9148C68.873 90.8348 68.8193 90.7414 68.7856 90.6403C68.7519 90.5392 68.7387 90.4324 68.747 90.3261V90.3261C68.7542 90.2203 68.7825 90.117 68.8301 90.0223C68.8777 89.9276 68.9437 89.8433 69.0243 89.7744C69.1048 89.7054 69.1983 89.6532 69.2992 89.6208C69.4001 89.5884 69.5065 89.5764 69.6121 89.5856L72.6575 89.7836C72.8694 89.8027 73.0658 89.9025 73.2063 90.0622C73.3468 90.222 73.4207 90.4296 73.4126 90.6422V90.6422C73.4096 90.7575 73.3825 90.8709 73.3333 90.9752C73.284 91.0795 73.2135 91.1724 73.1264 91.248C73.0392 91.3236 72.9373 91.3802 72.8271 91.4142C72.7169 91.4482 72.6008 91.4589 72.4862 91.4455Z" fill="#32324C"/>
</svg>
