<svg width="123" height="125" viewBox="0 0 123 125" fill="none" xmlns="http://www.w3.org/2000/svg">
<path d="M101.387 21.9988H86.2918V0.710938H0.069458V103.095C0.0737234 108.81 2.34105 114.291 6.37537 118.338C10.4097 122.386 15.8825 124.67 21.5965 124.692H64.5693C70.2959 124.692 75.788 122.416 79.8373 118.366C83.8866 114.316 86.1615 108.823 86.1615 103.095V78.2072H101.387C107.012 78.1685 112.393 75.9074 116.359 71.9168C120.324 67.9261 122.551 62.5294 122.556 56.903V43.3192C122.556 37.69 120.33 32.2891 116.364 28.295C112.399 24.3008 107.015 22.0375 101.387 21.9988V21.9988ZM115.879 56.903C115.875 60.7448 114.346 64.4277 111.629 67.1427C108.911 69.8577 105.228 71.3827 101.387 71.3827H86.2918V28.807H101.387C105.229 28.8113 108.913 30.3399 111.63 33.0575C114.347 35.7751 115.875 39.4597 115.879 43.3029V56.903Z" fill="#082032"/>
<path d="M44.6542 84.2499C58.4319 84.2499 69.601 73.0783 69.601 59.2974C69.601 45.5164 58.4319 34.3448 44.6542 34.3448C30.8766 34.3448 19.7076 45.5164 19.7076 59.2974C19.7076 73.0783 30.8766 84.2499 44.6542 84.2499Z" fill="#F0A500"/>
<g style="mix-blend-mode:soft-light">
<path d="M101.387 21.9988H86.2918V0.710938H67.4027C67.8749 3.47983 69.2102 6.72104 69.6335 9.09903C70.3066 12.8126 70.8494 16.5479 71.2619 20.3049C72.0598 27.7483 72.3855 35.2406 72.4669 42.7166C72.5646 51.3165 72.3366 59.9163 72.0924 68.5324C71.897 75.3732 71.5713 82.67 67.6306 88.273C65.2132 91.3092 62.3142 93.9283 59.0491 96.0258C49.2789 103.078 39.3295 110.212 28.1101 114.74C23.0133 116.793 17.7048 118.291 12.7708 120.685C12.1275 120.993 11.5165 121.364 10.947 121.793C14.2247 123.7 17.951 124.701 21.7431 124.692H64.7159C70.4425 124.692 75.9345 122.417 79.9838 118.366C84.0332 114.316 86.308 108.823 86.308 103.095V78.2072H101.387C107.012 78.1685 112.393 75.9074 116.359 71.9168C120.324 67.9261 122.551 62.5295 122.556 56.9031V43.3192C122.556 37.69 120.33 32.2892 116.364 28.295C112.399 24.3008 107.015 22.0375 101.387 21.9988V21.9988ZM115.879 56.9031C115.875 60.7448 114.346 64.4277 111.629 67.1427C108.911 69.8577 105.228 71.3828 101.387 71.3828H86.2918V28.807H101.387C105.229 28.8113 108.913 30.34 111.63 33.0575C114.347 35.7751 115.875 39.4597 115.879 43.3029V56.9031Z" fill="black"/>
</g>
<path d="M30.6829 56.7402C30.5555 57.3916 30.301 58.0114 29.9338 58.5643C29.8036 58.8141 29.657 59.0584 29.4942 59.2973C29.3643 59.5216 29.223 59.739 29.0708 59.9488L28.6474 60.5677L28.3381 61.0401L27.9961 61.5124L27.6867 61.9522L27.4587 62.3268C27.3234 62.5404 27.2037 62.7636 27.1005 62.9945C26.9879 63.2159 26.9057 63.4515 26.8563 63.6949H26.3677H25.9769C25.8651 63.6463 25.7692 63.5673 25.7001 63.4669C25.5851 63.3005 25.4817 63.1263 25.3907 62.9457L25.2279 62.6037C25.1585 62.4837 25.0986 62.3584 25.0487 62.229L24.8534 61.8218C24.8534 61.6753 24.7394 61.545 24.6743 61.4147L24.2997 60.5026C24.1694 60.2094 24.0555 59.8999 23.9415 59.5905C23.6809 58.9553 23.567 58.6458 23.5507 58.6295C23.3878 58.2223 23.2413 57.864 23.0947 57.5383L22.7039 56.675C22.5683 56.3699 22.4805 56.0458 22.4434 55.714C22.4882 55.5869 22.5724 55.4774 22.6836 55.4012C22.7949 55.3251 22.9274 55.2864 23.0621 55.2906C23.262 55.3032 23.4516 55.3836 23.5995 55.5186C23.5995 55.5186 23.5995 55.5186 23.5995 55.6163C23.6256 55.7055 23.6583 55.7926 23.6972 55.8769L23.8275 56.2189C23.9014 56.367 23.9667 56.5193 24.0229 56.675L24.2834 57.2939C24.3648 57.5057 24.4626 57.7174 24.5603 57.9455C24.658 58.1735 24.7068 58.3526 24.7882 58.5807C24.8696 58.8087 24.951 59.0367 25.0487 59.2647L25.6838 60.8935C25.8493 61.3594 26.0395 61.8161 26.2537 62.2616C26.3544 62.0398 26.4742 61.8273 26.612 61.6264L27.0679 60.9424L27.5239 60.2746L27.9147 59.6556C28.0775 59.3787 28.1915 59.1507 28.2892 58.9553L28.566 58.3689C28.7126 58.092 28.908 57.7174 29.1196 57.2451L29.3965 56.6099C29.4779 56.4307 29.5593 56.2678 29.6082 56.1212C29.6372 56.0388 29.6878 55.9657 29.7547 55.9095C29.8351 55.8908 29.9186 55.8908 29.999 55.9095C30.1182 55.9103 30.2341 55.9484 30.3305 56.0185C30.4269 56.0887 30.4989 56.1872 30.5363 56.3004C30.5516 56.3975 30.5516 56.4964 30.5363 56.5936C30.588 56.6395 30.6369 56.6885 30.6829 56.7402V56.7402Z" fill="black"/>
<path d="M37.7501 59.7534C37.7265 59.8867 37.6766 60.0141 37.6035 60.128C37.4017 60.4166 37.1843 60.6939 36.9522 60.9587C36.7242 61.2193 36.4637 61.4799 36.2031 61.7242L35.3726 62.4083C35.0945 62.6109 34.8004 62.7906 34.4933 62.9458C34.2086 63.0973 33.9083 63.2174 33.5977 63.3041C33.3189 63.3938 33.0275 63.4378 32.7346 63.4345C32.4652 63.4529 32.1948 63.4162 31.94 63.3265C31.6852 63.2369 31.4514 63.0963 31.2528 62.9132C31.0602 62.6906 30.9136 62.4321 30.8214 62.1525C30.7292 61.873 30.6932 61.578 30.7154 61.2845C30.6912 60.9972 30.6912 60.7084 30.7154 60.4212C30.7555 60.1443 30.8209 59.8717 30.9108 59.6068C31.0122 59.3252 31.1375 59.0527 31.2854 58.7924C31.4499 58.5193 31.6408 58.2629 31.8553 58.0269C31.9395 57.9318 32.0322 57.8446 32.1321 57.7663C32.2411 57.675 32.3615 57.5983 32.4904 57.5383C32.6082 57.4578 32.7412 57.4024 32.8812 57.3754C33.0158 57.3506 33.1537 57.3506 33.2883 57.3754C33.4636 57.3689 33.6376 57.4082 33.7931 57.4894C33.9361 57.554 34.0597 57.6552 34.1513 57.7826C34.2364 57.9137 34.3022 58.0562 34.3467 58.206C34.4338 58.4809 34.4526 58.7729 34.4015 59.0567C34.3505 59.3405 34.2311 59.6076 34.0536 59.8348C33.7605 60.2368 33.4155 60.5982 33.0277 60.9098C32.8747 61.0519 32.7114 61.1826 32.5392 61.3008L31.9204 61.7731C31.9223 61.8659 31.9505 61.9563 32.0019 62.0337C32.0433 62.1179 32.1048 62.1907 32.181 62.2454C32.268 62.3133 32.3676 62.3631 32.4741 62.392C32.5984 62.409 32.7244 62.409 32.8486 62.392C33.0434 62.4142 33.2401 62.4142 33.4348 62.392C33.6399 62.3474 33.8413 62.2875 34.0374 62.2129L34.6236 61.936C34.819 61.8382 34.9818 61.7242 35.1447 61.6265C35.3075 61.5288 35.682 61.203 35.9263 60.975L36.6754 60.2746L36.9685 59.9815C37.105 59.8345 37.2901 59.7419 37.4896 59.7208C37.571 59.7208 37.6198 59.7208 37.6361 59.7208C37.6761 59.7228 37.7151 59.7339 37.7501 59.7534ZM33.4023 58.7273C33.4104 58.6515 33.4104 58.5751 33.4023 58.4993C33.3933 58.4423 33.3645 58.3904 33.3209 58.3527C33.1722 58.3661 33.0307 58.4227 32.9138 58.5155C32.7489 58.6453 32.6107 58.8057 32.5067 58.9879C32.3639 59.2119 32.249 59.4526 32.1647 59.7045C32.0507 60.0034 31.9741 60.3153 31.9367 60.633L32.4578 60.2258C32.6543 60.0892 32.8345 59.9307 32.9952 59.7534C33.1376 59.6087 33.2583 59.4441 33.3534 59.2648C33.4111 59.0975 33.4279 58.9187 33.4023 58.7436V58.7273Z" fill="black"/>
<path d="M41.821 58.5481C41.821 58.6362 41.7924 58.7219 41.7395 58.7924L41.5441 58.939L41.2836 59.0204H41.0393H40.2089L39.4598 59.1181H38.9062H38.6619C38.6388 59.2453 38.6061 59.3705 38.5642 59.4928C38.5642 59.6557 38.5642 59.8185 38.4502 59.9977C38.3362 60.1769 38.3688 60.3561 38.3199 60.5352C38.2711 60.7144 38.32 60.8935 38.206 61.0564C38.092 61.2193 38.2059 61.3821 38.1245 61.5124C38.1188 61.621 38.1188 61.7297 38.1245 61.8382C38.1245 61.8382 38.1245 61.9685 38.1245 62.0663C38.1418 62.1612 38.1692 62.254 38.206 62.3431C38.2292 62.429 38.2741 62.5075 38.3362 62.5712C38.3615 62.6028 38.3938 62.6281 38.4305 62.6451C38.4673 62.662 38.5075 62.6702 38.5479 62.6689H38.7596C38.8629 62.6393 38.9615 62.5954 39.0527 62.5386C39.177 62.4861 39.2923 62.4147 39.3947 62.3268C39.5087 62.2454 39.6226 62.1314 39.7529 62.0174C39.7877 61.9661 39.8319 61.9219 39.8832 61.8871C39.9239 61.8353 39.9735 61.7912 40.0298 61.7568L40.2089 61.6753C40.2784 61.6581 40.351 61.6581 40.4206 61.6753C40.4941 61.6479 40.575 61.6479 40.6485 61.6753C40.6653 61.7339 40.6653 61.796 40.6485 61.8545C40.6557 61.999 40.6156 62.1419 40.5345 62.2617L40.2089 62.6852L39.9321 62.9621C39.788 63.0982 39.6297 63.2183 39.4598 63.3204C39.2792 63.4494 39.082 63.5535 38.8736 63.6299C38.6556 63.7153 38.4238 63.7595 38.1897 63.7602C37.9899 63.7638 37.7912 63.7307 37.6034 63.6624C37.4531 63.6162 37.3143 63.5385 37.1963 63.4344C37.0918 63.3388 37.0086 63.2222 36.9521 63.0924C36.8942 62.9673 36.8505 62.8362 36.8218 62.7015C36.8059 62.5662 36.8059 62.4295 36.8218 62.2943C36.8145 62.1804 36.8145 62.0661 36.8218 61.9522C36.8151 61.822 36.8151 61.6915 36.8218 61.5613L36.9195 61.1052C36.9195 60.9424 36.9196 60.7632 37.0335 60.6003C37.1475 60.4375 37.0335 60.2583 37.1475 60.0954C37.1825 59.9504 37.2097 59.8036 37.2289 59.6557C37.2355 59.5417 37.2355 59.4276 37.2289 59.3136V59.3136C37.1976 59.301 37.1626 59.301 37.1312 59.3136H36.6101C36.5132 59.3307 36.414 59.3307 36.3171 59.3136C36.2299 59.277 36.152 59.2213 36.0891 59.1507C36.021 59.0624 35.9864 58.9527 35.9914 58.8413C35.9727 58.7719 35.9727 58.6989 35.9914 58.6295C36.0098 58.5726 36.0436 58.5219 36.0891 58.4829C36.1422 58.4676 36.1987 58.4676 36.2519 58.4829H36.4473H37.6197C37.6637 58.4044 37.7018 58.3228 37.7337 58.2386L37.8966 57.8151L38.092 57.3102C38.092 57.1148 38.206 56.9519 38.2548 56.789C38.3096 56.6039 38.4104 56.4358 38.5479 56.3004C38.6742 56.1909 38.8369 56.1328 39.0039 56.1375C39.0951 56.1177 39.1895 56.1177 39.2807 56.1375C39.3398 56.1678 39.3903 56.2126 39.4273 56.2678C39.4436 56.3208 39.4436 56.3776 39.4273 56.4307C39.4353 56.4901 39.4353 56.5504 39.4273 56.6099V56.7401C39.4273 56.7401 39.4272 56.8867 39.3458 56.9844C39.3152 57.1008 39.2771 57.2151 39.2318 57.3265C39.1957 57.4538 39.1522 57.5789 39.1016 57.7011L38.9876 58.0594C38.9452 58.1536 38.9125 58.2519 38.8899 58.3527H39.1016H39.4598H39.8832H40.2903H40.6322H40.8113C40.9737 58.3341 41.1376 58.3341 41.2999 58.3527C41.4015 58.3632 41.5005 58.3907 41.593 58.4341C41.6453 58.4743 41.6895 58.524 41.7232 58.5807C41.7551 58.5678 41.7878 58.5569 41.821 58.5481Z" fill="black"/>
<path d="M42.2281 61.8382C42.2281 61.6753 42.3258 61.4636 42.3909 61.203C42.4561 60.9424 42.5049 60.6818 42.5701 60.3886L42.7655 59.4439C42.7655 59.1345 42.8795 58.8087 42.9283 58.4993C42.9772 58.1898 43.026 57.9129 43.0749 57.6523C43.088 57.4245 43.088 57.1961 43.0749 56.9682V56.6588C43.068 56.5829 43.068 56.5066 43.0749 56.4307C43.1015 56.3314 43.1456 56.2377 43.2051 56.1539C43.2641 56.0625 43.3418 55.9848 43.4331 55.9258C43.5727 55.8964 43.7169 55.8964 43.8565 55.9258C43.9632 55.8975 44.0754 55.8975 44.1821 55.9258C44.2763 55.9739 44.3552 56.0472 44.4101 56.1376C44.4782 56.2423 44.5278 56.358 44.5567 56.4796C44.5567 56.6099 44.5567 56.7565 44.6869 56.9194C44.7465 57.1133 44.8172 57.3036 44.8986 57.4894C44.9963 57.7174 45.1266 57.9618 45.2569 58.2387L45.7454 59.1019L46.3153 60.014C46.5107 60.3235 46.7224 60.6329 46.9341 60.9261C47.1458 61.2193 47.3575 61.5124 47.5692 61.773C47.5692 61.5776 47.618 61.3659 47.7157 61.1378C47.7157 60.9261 47.8134 60.6981 47.846 60.47C47.8785 60.242 47.9274 60.014 47.9763 59.8023C48.0251 59.5905 47.9763 59.3788 48.074 59.1996C48.1717 59.0205 48.0739 58.8413 48.1554 58.711C48.2368 58.5807 48.1554 58.4504 48.1554 58.3689C48.1554 58.2875 48.2531 57.7989 48.3019 57.5709C48.3508 57.3428 48.3833 57.1311 48.3996 56.9194C48.4159 56.7076 48.3996 56.5285 48.3996 56.333C48.3996 56.1376 48.3996 55.9258 48.3996 55.6978C48.3916 55.6329 48.3916 55.5673 48.3996 55.5024C48.3929 55.432 48.3929 55.3611 48.3996 55.2906C48.4236 55.2296 48.4508 55.1697 48.481 55.1114C48.5055 55.0534 48.5448 55.0029 48.595 54.9649C48.6464 54.9066 48.7069 54.8571 48.7741 54.8183H48.937H49.0835H49.2626C49.3741 54.8133 49.4837 54.8479 49.572 54.916C49.6527 54.9729 49.715 55.0522 49.7512 55.1441C49.7604 55.247 49.7604 55.3505 49.7512 55.4535C49.7593 55.5673 49.7593 55.6817 49.7512 55.7955C49.7549 55.8552 49.7549 55.915 49.7512 55.9747C49.759 56.0723 49.759 56.1703 49.7512 56.2678C49.7512 56.3819 49.7512 56.4959 49.7512 56.6099C49.7451 56.713 49.7451 56.8163 49.7512 56.9194C49.5883 57.5057 49.4581 58.0595 49.3441 58.5481C49.2301 59.0368 49.1324 59.558 49.0509 60.0303C48.9695 60.5026 48.8881 60.9098 48.8393 61.317C48.7904 61.7242 48.7253 62.0662 48.6764 62.392V62.5223C48.6685 62.5654 48.6685 62.6095 48.6764 62.6526V63.0109C48.6863 63.169 48.6525 63.3268 48.5787 63.4669C48.5249 63.5622 48.446 63.6411 48.3508 63.695C48.2615 63.749 48.1614 63.7824 48.0577 63.7927H47.7808C47.6464 63.8001 47.5138 63.7597 47.4063 63.6787C47.2986 63.6033 47.2048 63.5096 47.1295 63.4018L46.8689 62.9457C46.7616 62.7536 46.6419 62.5686 46.5107 62.392C46.0873 61.8382 45.6639 61.2356 45.2406 60.5841C44.8172 59.9489 44.3776 59.2322 43.9379 58.4341L43.7425 59.4765C43.7425 59.8348 43.6285 60.1931 43.5797 60.5515C43.5308 60.9098 43.482 61.2355 43.4494 61.5613C43.4168 61.887 43.4494 62.1802 43.3354 62.4246C43.3431 62.533 43.3431 62.6418 43.3354 62.7503V63.0761C43.3354 63.1738 43.3354 63.2715 43.3354 63.3367C43.3408 63.3854 43.3408 63.4345 43.3354 63.4832L43.254 63.6461L43.0912 63.8416C43.0364 63.9029 42.9699 63.9528 42.8957 63.9881C42.8216 64.0118 42.7419 64.0118 42.6678 63.9881C42.5555 64.0158 42.4381 64.0158 42.3258 63.9881C42.2357 63.9563 42.1604 63.8926 42.1141 63.809C42.0606 63.7239 42.022 63.6302 42.0001 63.5321C41.9917 63.3965 41.9917 63.2605 42.0001 63.1249C41.9932 63.0382 41.9932 62.951 42.0001 62.8643V62.5385C42.0001 62.4082 42.0001 62.2943 42.0815 62.164C42.1357 62.0578 42.1846 61.9491 42.2281 61.8382Z" fill="black"/>
<path d="M59.2282 59.5275C59.2499 59.602 59.2499 59.6811 59.2282 59.7555L59.0491 59.9998L58.8048 60.2279L58.5117 60.4559L58.2512 60.6188L58.0395 60.7328L57.665 60.8468L57.1602 60.9282H56.6554H56.1506H55.9877H55.8412H55.6947C55.7188 61.0189 55.7188 61.1144 55.6947 61.2051C55.7032 61.3081 55.7032 61.4116 55.6947 61.5145C55.6947 61.5145 55.6947 61.6612 55.6947 61.7589C55.6947 61.8566 55.6947 61.9543 55.6947 62.052C55.7019 62.1496 55.7019 62.2476 55.6947 62.3452C55.67 62.4272 55.6314 62.5043 55.5807 62.5733C55.4963 62.7283 55.3982 62.8755 55.2876 63.013C55.1808 63.1494 55.0608 63.2749 54.9293 63.3876C54.7927 63.509 54.6456 63.618 54.4897 63.7133C54.3068 63.8243 54.1163 63.9223 53.9198 64.0066C53.702 64.1066 53.472 64.1778 53.2358 64.2182C52.9973 64.2349 52.7579 64.2349 52.5193 64.2182C52.3519 64.2277 52.186 64.182 52.0471 64.088C51.8998 63.9863 51.7774 63.8527 51.6889 63.6971C51.584 63.5316 51.507 63.35 51.4609 63.1596C51.4099 62.9461 51.3826 62.7276 51.3795 62.5081C51.3795 62.5081 51.3795 62.3778 51.3795 62.2963V62.0357V61.7914C51.3795 61.7914 51.3795 61.6449 51.3795 61.5797C51.4464 61.3968 51.5224 61.2174 51.6075 61.0422C51.709 60.8346 51.8233 60.6333 51.9495 60.4396C52.0811 60.2231 52.228 60.0163 52.3891 59.8207C52.5459 59.6209 52.7203 59.4356 52.9102 59.2669C53.0916 59.1215 53.2881 58.9959 53.4964 58.8923C53.6776 58.7982 53.8784 58.7479 54.0826 58.7457H54.2942C54.3372 58.7369 54.3816 58.7369 54.4245 58.7457L54.5059 58.8434L54.6036 58.9412H54.7665C54.8927 58.9403 55.0147 58.9868 55.1084 59.0714C55.2303 59.1596 55.3447 59.2577 55.4504 59.3646L55.6133 59.5112L55.7598 59.6415L55.8737 59.7392H55.9552H56.9485H57.2416H57.3882H57.6976L58.0883 59.6415L58.4791 59.5438L58.8048 59.4624H58.9514H59.1305C59.1305 59.4624 59.2282 59.4461 59.2282 59.5275ZM52.8125 63.241C53.0945 63.2408 53.3708 63.1618 53.6104 63.013C53.8459 62.8421 54.0451 62.6263 54.1965 62.3778C54.3549 62.0905 54.4753 61.7839 54.5548 61.4657C54.6525 61.1213 54.7018 60.765 54.7013 60.407C54.6689 60.349 54.6307 60.2945 54.5874 60.2441C54.5358 60.1815 54.4754 60.1267 54.4082 60.0813L54.2128 59.9673H54.0337C53.9266 59.9742 53.8242 60.014 53.7406 60.0813L53.4638 60.293C53.3636 60.3829 53.271 60.481 53.187 60.5862L52.9427 60.9934L52.7473 61.4657C52.7473 61.6286 52.6333 61.7915 52.5845 61.9543C52.5364 62.1082 52.5037 62.2664 52.4868 62.4267C52.4717 62.562 52.4717 62.6985 52.4868 62.8339C52.4792 62.8879 52.4792 62.9427 52.4868 62.9967C52.5038 63.0555 52.5314 63.1107 52.5682 63.1596L52.6822 63.2573C52.6822 63.2573 52.7473 63.241 52.8125 63.241V63.241Z" fill="black"/>
<path d="M66.4257 59.2321C66.328 59.3787 66.2302 59.5254 66.1488 59.6719L65.9372 60.1117L65.7417 60.5841C65.7417 60.7469 65.6115 60.9098 65.5463 61.1052L65.3835 61.6102L65.1881 62.2128C65.1881 62.4083 65.0579 62.6037 64.9764 62.8155C64.9134 62.9946 64.8371 63.1688 64.7484 63.3367C64.6937 63.4684 64.6165 63.5896 64.5204 63.695C64.4935 63.7364 64.4575 63.771 64.4152 63.7964C64.3729 63.8218 64.3254 63.8373 64.2762 63.8416C64.071 63.8473 63.8666 63.8141 63.6737 63.7439C63.4992 63.6636 63.3437 63.5469 63.2178 63.4018L62.9735 63.0761C62.9077 62.971 62.8478 62.8622 62.7944 62.7503C62.7944 62.6363 62.6804 62.5223 62.6316 62.392L62.4687 62.0011C62.3873 61.8056 62.3222 61.6265 62.257 61.4473C62.1871 61.269 62.1379 61.0831 62.1105 60.8935C62.0582 61.0271 61.9983 61.1576 61.9313 61.2844C61.9313 61.431 61.8011 61.5939 61.7197 61.7405C61.6383 61.8871 61.5731 62.0662 61.4917 62.2128L61.2963 62.6037C61.1498 62.8806 61.0032 63.1249 60.8892 63.3529C60.7752 63.581 60.645 63.7439 60.5473 63.8742C60.4709 64.0002 60.3714 64.1107 60.2541 64.1999C60.1856 64.2707 60.092 64.3116 59.9936 64.3139C59.8995 64.3099 59.8074 64.2861 59.7232 64.244C59.6391 64.2019 59.5647 64.1425 59.5051 64.0696C59.3219 63.8795 59.1732 63.6591 59.0655 63.4181C58.9183 63.1257 58.7983 62.8204 58.7072 62.506C58.5987 62.1694 58.5009 61.8273 58.4141 61.4799C58.4141 61.1215 58.2838 60.7958 58.235 60.4537C58.1861 60.1117 58.235 59.8511 58.235 59.5905C58.227 59.4929 58.227 59.3949 58.235 59.2973C58.2113 59.2232 58.2113 59.1434 58.235 59.0693L58.3978 58.8576L58.5281 58.7109H58.6746C58.7557 58.7002 58.8378 58.7002 58.9189 58.7109C58.9986 58.6869 59.0835 58.6869 59.1632 58.7109C59.2298 58.7506 59.2901 58.8001 59.3422 58.8576C59.3844 58.9233 59.4173 58.9945 59.4399 59.0693C59.4546 59.1336 59.4546 59.2004 59.4399 59.2648V59.6068C59.4318 59.7152 59.4318 59.8241 59.4399 59.9325V60.2908C59.4399 60.4211 59.4399 60.584 59.4399 60.7795C59.4399 60.975 59.4399 60.9424 59.4399 61.0727C59.4321 61.2083 59.4321 61.3442 59.4399 61.4799L59.5376 61.9196C59.5376 62.0825 59.6191 62.2128 59.6516 62.3268C59.671 62.4308 59.7097 62.5303 59.7656 62.62C59.7656 62.62 59.7656 62.734 59.8633 62.734L60.1076 62.2454L60.3518 61.7568C60.4495 61.5613 60.5472 61.3658 60.6612 61.1704C60.7546 60.9752 60.8578 60.7849 60.9706 60.6003L61.2475 60.0791C61.3079 59.985 61.3623 59.887 61.4103 59.7859L61.5894 59.4765L61.8011 59.1833C61.8807 59.0792 61.9738 58.9861 62.0779 58.9064L62.4036 58.9878C62.4899 59.0331 62.5672 59.0939 62.6316 59.167C62.7024 59.254 62.7373 59.3646 62.7293 59.4765V59.5579V59.6393C62.7161 59.7748 62.7161 59.9111 62.7293 60.0465C62.7592 60.2234 62.8028 60.3976 62.8595 60.5678C62.8595 60.7469 62.9735 60.9261 63.0387 61.1052C63.1018 61.2896 63.178 61.4692 63.2666 61.6427C63.3294 61.801 63.4057 61.9536 63.4946 62.0988C63.5563 62.2181 63.627 62.3324 63.7063 62.4408C63.816 62.1535 63.9085 61.8597 63.9831 61.5613C64.0645 61.2681 64.1459 60.9912 64.2437 60.698C64.3334 60.4035 64.4422 60.1152 64.5693 59.8348C64.707 59.5127 64.8703 59.2023 65.0578 58.9064L65.1881 58.7598L65.3835 58.6132C65.455 58.5709 65.5316 58.5381 65.6115 58.5155C65.6867 58.5001 65.7643 58.5001 65.8395 58.5155H66.0349L66.1651 58.6295C66.1742 58.6834 66.1742 58.7385 66.1651 58.7924C66.1743 58.8518 66.1743 58.9122 66.1651 58.9715C66.1727 59.0256 66.1727 59.0804 66.1651 59.1344C66.2132 59.1292 66.2617 59.1354 66.307 59.1524C66.3522 59.1693 66.3929 59.1966 66.4257 59.2321V59.2321Z" fill="black"/>
</svg>
