<svg width="277" height="485" viewBox="0 0 277 485" fill="none" xmlns="http://www.w3.org/2000/svg">
<path d="M82.9286 117.498C82.9286 117.498 41.7145 49.5467 62.0691 33.0311C82.4238 16.5154 101.622 20.5873 113.2 40.165C124.778 59.7427 203.151 29.0569 203.151 29.0569C203.151 29.0569 230.134 39.1063 203.151 83.6203C176.169 128.134 116.522 176.443 82.9286 117.498Z" fill="#32324C"/>
<path d="M92.8455 100.722C92.5843 103.188 91.5983 105.521 90.012 107.426C88.4257 109.331 86.3104 110.724 83.9333 111.427C81.5562 112.13 79.0241 112.113 76.6568 111.377C74.2895 110.642 72.1934 109.221 70.6332 107.294C69.073 105.367 68.1189 103.021 67.8913 100.552C67.6637 98.0832 68.1729 95.6021 69.3545 93.4224C70.5361 91.2428 72.3372 89.4624 74.5301 88.3062C76.723 87.15 79.2093 86.6699 81.6748 86.9266C83.3153 87.0953 84.9064 87.5863 86.3566 88.3717C87.8069 89.1571 89.0877 90.2212 90.1257 91.5031C91.1636 92.7849 91.9382 94.2592 92.4049 95.8413C92.8717 97.4234 93.0214 99.0821 92.8455 100.722Z" fill="#F4B799"/>
<g style="mix-blend-mode:soft-light" opacity="0.6">
<path d="M85.1921 100.071C85.1921 101.266 84.8378 102.434 84.1739 103.428C83.5101 104.422 82.5666 105.196 81.4627 105.653C80.3588 106.111 79.1441 106.23 77.9722 105.997C76.8003 105.764 75.7239 105.189 74.879 104.344C74.0341 103.498 73.4587 102.422 73.2256 101.25C72.9925 100.077 73.1122 98.8624 73.5694 97.7583C74.0267 96.6541 74.801 95.7104 75.7945 95.0464C76.788 94.3824 77.956 94.028 79.1508 94.028C80.7531 94.028 82.2897 94.6647 83.4226 95.7979C84.5556 96.9311 85.1921 98.4681 85.1921 100.071V100.071Z" fill="black"/>
</g>
<path d="M195.107 101.374C194.852 103.845 193.869 106.186 192.283 108.098C190.698 110.011 188.58 111.411 186.199 112.119C183.818 112.828 181.28 112.814 178.907 112.079C176.534 111.344 174.432 109.922 172.867 107.992C171.303 106.062 170.346 103.711 170.117 101.237C169.889 98.7624 170.4 96.2759 171.585 94.0921C172.77 91.9082 174.576 90.1251 176.775 88.9685C178.974 87.8118 181.466 87.3336 183.937 87.5944C187.242 87.9476 190.272 89.5955 192.365 92.1778C194.459 94.76 195.445 98.0664 195.107 101.374V101.374Z" fill="#F4B799"/>
<g style="mix-blend-mode:soft-light" opacity="0.6">
<path d="M189.441 100.071C189.441 101.266 189.086 102.434 188.422 103.428C187.759 104.422 186.815 105.196 185.711 105.653C184.607 106.111 183.393 106.23 182.221 105.997C181.049 105.764 179.972 105.189 179.127 104.344C178.282 103.498 177.707 102.422 177.474 101.25C177.241 100.077 177.361 98.8624 177.818 97.7583C178.275 96.6541 179.049 95.7104 180.043 95.0464C181.036 94.3824 182.204 94.028 183.399 94.028C185.002 94.028 186.538 94.6647 187.671 95.7979C188.804 96.9311 189.441 98.4681 189.441 100.071V100.071Z" fill="black"/>
</g>
<path d="M12.6643 484.995C18.038 474.375 33.3772 327.722 33.3772 327.722C33.3772 327.722 19.6989 225.729 35.8687 216.608C46.7625 210.468 71.9534 203.937 87.2275 200.321C94.6204 198.594 99.7009 197.536 99.7009 197.536C136.518 193.985 163.207 194.571 182.439 197.715C221.682 204.132 229.971 221.201 230.264 235.665C230.671 257.229 244.919 409.942 246.417 422.646C248.225 437.761 248.274 460.466 250.146 469.489C251.775 477.454 253.045 484.979 253.045 484.979L12.6643 484.995Z" fill="#F8F7FC"/>
<path d="M135.655 431.849L124.989 484.979H146.337L135.655 431.849Z" fill="#529F91"/>
<path d="M72.4908 368.213L143.683 383.312L179.67 375.347L186.184 396.504L74.8845 422.369L72.4908 368.213Z" fill="#E2E2F2"/>
<path d="M40.4281 226.625C40.4281 226.625 22.7765 229.15 19.878 251.464C16.9795 273.778 -3.34255 405.788 12.1107 450.335C25.1377 487.796 143.846 434.959 143.846 434.959L233.244 409.6L216.765 379.533L71.2858 411.538C71.2858 411.538 76.7245 306.353 65.0817 268.517C53.4388 230.681 40.4281 226.625 40.4281 226.625Z" fill="#E2E2F2"/>
<g style="mix-blend-mode:darken">
<path d="M212.433 213.693C212.433 213.693 229.091 214.133 231.974 236.495C234.856 258.858 256.66 398.117 241.141 442.745C225.623 487.373 105.889 424.698 105.889 424.698L18.5916 394.615L35.201 364.499L180.68 396.505C180.68 396.505 173.971 289.707 190.157 251.969C205.675 215.582 212.433 213.693 212.433 213.693Z" fill="#E2E2F2"/>
</g>
<path d="M250.977 394.599C250.863 398.28 250.7 401.863 250.472 405.3C249.658 417.255 248.029 427.581 245.359 435.318C234.774 465.727 176.446 449.732 140.361 436.458C138 435.578 135.704 434.715 133.555 433.884C120.365 428.786 111.507 424.649 111.507 424.649L24.2257 394.566L40.7049 364.499L186.184 396.504C186.184 396.504 178.433 289.805 190.076 251.969C201.718 214.133 212.384 207.341 212.384 207.341C212.384 207.341 234.693 214.133 237.592 236.447C239.855 253.777 252.654 337.283 250.977 394.599Z" fill="#F8F7FC"/>
<path d="M66.3355 382.481C66.3355 382.481 84.5082 383.621 87.2438 399.404L65.0816 404.29L66.3355 382.481Z" fill="#F4B799"/>
<path d="M177.358 197.633L134.239 326.549L92.0312 199.229C99.424 197.503 99.7008 197.601 99.7008 197.601C136.518 194.05 158.111 194.49 177.358 197.633Z" fill="#529F91"/>
<path d="M134.027 231.511C130.708 231.49 127.426 230.815 124.368 229.525C121.31 228.235 118.536 226.355 116.204 223.993C113.873 221.63 112.029 218.831 110.779 215.756C109.528 212.681 108.896 209.39 108.917 206.07L109.178 165.775L159.658 166.101L159.397 206.412C159.35 213.102 156.653 219.501 151.897 224.206C147.142 228.91 140.716 231.537 134.027 231.511V231.511Z" fill="#F4B799"/>
<g style="mix-blend-mode:soft-light" opacity="0.6">
<path d="M109.113 176.134C117.006 180.249 125.854 182.18 134.743 181.727C143.632 181.275 152.239 178.455 159.674 173.56V180.45C159.674 180.45 131.031 196.363 109.113 176.134Z" fill="black"/>
</g>
<path d="M166.79 42.1521C140.443 12.8344 91.673 26.402 83.3357 64.9547C79.5904 82.2358 77.2944 103.735 81.1537 125.219C89.8492 173.56 120.984 193.284 154.886 176.427C188.789 159.569 190.32 90.575 178.286 60.6873C175.568 53.8837 171.677 47.6101 166.79 42.1521V42.1521Z" fill="#F4B799"/>
<path d="M99.7008 197.552C99.7008 197.552 97.9748 244.786 129.809 246.414C161.644 248.043 167.262 212.992 170.079 196.119C146.792 191.5 122.781 191.989 99.7008 197.552V197.552Z" fill="#F4B799"/>
<path d="M178.026 239.492C178.026 239.492 186.167 235.534 192.469 232.033C196.215 212.341 191.753 197.031 161.644 195.842C161.644 195.842 172.261 206.689 165.503 234.525C157.638 266.872 134.239 326.549 134.239 326.549C134.239 326.549 173.059 289.609 184.718 256.236C186.689 250.568 188.838 244.835 190.255 239.411L178.026 239.492Z" fill="#D4D2EA"/>
<path d="M178.026 237.619C178.026 237.619 184.539 233.938 190.841 230.436C194.586 210.745 190.043 195.548 159.902 194.359C159.902 194.359 170.568 204.669 163.81 232.505C155.961 264.868 134.662 325.784 134.662 325.784C134.662 325.784 172.31 287.655 183.92 254.281C185.891 248.613 187.731 243.01 189.164 237.619H178.026Z" fill="#F8F7FC"/>
<path d="M90.9077 240.698C90.9077 240.698 82.2936 236.463 75.9755 232.961C72.2302 213.269 77.1154 198.089 107.208 196.9C107.208 196.9 98.333 207.748 105.091 235.583C112.939 267.947 134.239 326.989 134.239 326.989C134.239 326.989 95.0437 291.059 83.4334 257.686C81.4631 252.017 79.5742 246.121 78.1412 240.73L90.9077 240.698Z" fill="#D4D2EA"/>
<path d="M90.9076 238.825C90.9076 238.825 84.3941 235.144 78.0923 231.642C74.347 211.95 78.8902 196.754 109.031 195.565C109.031 195.565 98.3656 205.875 105.123 233.71C112.972 266.074 134.271 326.989 134.271 326.989C134.271 326.989 96.6232 288.86 85.0129 255.487C83.0426 249.819 81.2025 244.216 79.7695 238.825H90.9076Z" fill="#F8F7FC"/>
<path d="M250.977 394.599C250.863 398.28 250.7 401.863 250.472 405.3C236.943 407.165 223.305 408.122 209.649 408.166C208.765 408.064 207.869 408.204 207.059 408.574C206.439 409.05 205.967 409.694 205.698 410.43C205.43 411.165 205.377 411.962 205.545 412.727C205.907 414.242 206.076 415.796 206.05 417.353C205.513 421.245 200.872 422.907 197.029 423.77L158.045 432.435C152.281 433.722 146.272 435.692 140.361 436.458L139.482 436.572C138.345 436.683 137.199 436.493 136.159 436.022C135.118 435.55 134.22 434.813 133.555 433.884C132.999 433.069 132.687 432.112 132.655 431.125C132.624 430.139 132.873 429.164 133.376 428.314C134.129 427.131 135.157 426.148 136.372 425.447C143.732 420.349 151.157 415.219 159.462 411.815C163.517 410.186 167.751 408.932 171.838 407.287C178.123 404.779 184.002 401.326 190.32 398.882C200.962 394.853 212.441 393.543 223.718 395.071C228.081 395.871 232.493 396.383 236.924 396.602C241.66 396.367 246.364 395.696 250.977 394.599Z" fill="#E2E2F2"/>
<path d="M267.26 391.227C266.414 387.823 256.057 391.504 250.423 392.384C244.789 393.263 243.584 392.726 244.121 392.009C244.659 391.292 255.927 387.416 261.121 386.048C266.316 384.68 274.604 382.709 273.562 379.109C272.52 375.51 264.313 378.116 257.279 379.777C250.244 381.438 243.958 384.663 243.356 383.035C242.753 381.406 267.895 372.203 269.719 371.405C271.543 370.607 277.617 368.376 276.624 365.297C275.63 362.219 270.11 363.669 267.212 364.548C264.313 365.428 256.432 368.05 249.967 370.672C243.502 373.295 241.451 374.19 240.832 373.23C240.213 372.269 254.185 364.092 259.363 361.274C264.541 358.457 268.596 354.58 265.876 351.958C263.157 349.336 253.81 355.606 248.241 358.815C242.672 362.024 233.016 367.578 228.701 368.897C224.385 370.216 220.787 372.252 220.428 369.907C220.331 369.369 220.217 368.962 220.152 368.702C219.712 367.073 221.243 363.001 222.904 360.297C224.564 357.593 224.336 352.984 223.327 350.313C222.317 347.642 220.07 346.583 218.035 353.18C215.573 360.108 211.511 366.358 206.18 371.422C202.044 374.923 199.08 376.813 199.308 382.693C199.308 384.615 159.006 397.107 153.014 398.703C147.021 400.299 157.394 424.014 162.133 422.288C166.871 420.561 206.359 401.586 209.127 403.362C211.896 405.137 214.534 405.479 223.294 404.404C227.658 403.85 235.947 402.254 242.835 400.821C242.835 400.821 255.862 398.166 260.747 396.651C265.632 395.136 268.058 394.631 267.26 391.227Z" fill="#F4B799"/>
<path d="M38.8974 215.11C38.8974 215.11 16.5887 221.902 13.6739 244.216C10.7591 266.53 -9.59554 398.459 5.89029 443.087C21.3761 487.715 139.726 432.419 139.726 432.419L203.119 410.577L190.776 376.617L65.0491 404.306C65.0491 404.306 72.8001 297.59 61.1735 259.754C49.547 221.918 38.8974 215.11 38.8974 215.11Z" fill="#F8F7FC"/>
<path d="M134.548 346.306C137.849 346.306 140.524 343.63 140.524 340.329C140.524 337.027 137.849 334.351 134.548 334.351C131.248 334.351 128.572 337.027 128.572 340.329C128.572 343.63 131.248 346.306 134.548 346.306Z" fill="#D4D2EA"/>
<path d="M139.905 339.791C139.905 341.376 139.276 342.897 138.155 344.018C137.034 345.139 135.514 345.769 133.929 345.769C133.08 345.776 132.239 345.592 131.47 345.231C130.239 344.661 129.239 343.688 128.633 342.473C128.028 341.258 127.854 339.874 128.14 338.547C128.427 337.22 129.156 336.03 130.208 335.173C131.26 334.315 132.572 333.842 133.929 333.83H134.027C135.592 333.855 137.085 334.494 138.184 335.609C139.283 336.724 139.901 338.225 139.905 339.791V339.791Z" fill="#FBFBFD"/>
<path d="M133.929 343.814C136.16 343.814 137.968 342.006 137.968 339.775C137.968 337.544 136.16 335.736 133.929 335.736C131.699 335.736 129.891 337.544 129.891 339.775C129.891 342.006 131.699 343.814 133.929 343.814Z" fill="#D4D2EA"/>
<g style="mix-blend-mode:soft-light">
<path d="M139.905 339.791C139.905 341.377 139.276 342.897 138.155 344.018C137.034 345.139 135.514 345.769 133.929 345.769C133.08 345.776 132.239 345.592 131.47 345.231C131.631 344.783 131.927 344.396 132.317 344.124C132.824 343.79 133.371 343.522 133.945 343.326C135.177 342.947 136.296 342.27 137.202 341.355C137.634 340.893 137.914 340.309 138.004 339.683C138.095 339.057 137.991 338.418 137.707 337.853C137.504 337.542 137.264 337.258 136.991 337.006L135.167 335.182C134.692 334.809 134.299 334.344 134.011 333.814C135.581 333.835 137.081 334.474 138.184 335.593C139.287 336.712 139.906 338.22 139.905 339.791V339.791Z" fill="black"/>
</g>
<path d="M134.548 371.405C137.849 371.405 140.524 368.729 140.524 365.428C140.524 362.126 137.849 359.45 134.548 359.45C131.248 359.45 128.572 362.126 128.572 365.428C128.572 368.729 131.248 371.405 134.548 371.405Z" fill="#D4D2EA"/>
<path d="M139.905 364.907C139.905 365.692 139.751 366.469 139.45 367.194C139.15 367.919 138.71 368.578 138.155 369.133C137.6 369.688 136.941 370.129 136.216 370.429C135.491 370.73 134.714 370.884 133.929 370.884C133.081 370.884 132.242 370.701 131.47 370.347C130.239 369.776 129.239 368.804 128.633 367.589C128.028 366.374 127.854 364.989 128.14 363.662C128.427 362.335 129.156 361.145 130.208 360.288C131.26 359.431 132.572 358.957 133.929 358.945H134.027C135.591 358.975 137.081 359.615 138.179 360.729C139.278 361.843 139.897 363.342 139.905 364.907V364.907Z" fill="#FBFBFD"/>
<path d="M133.929 368.93C136.16 368.93 137.968 367.121 137.968 364.89C137.968 362.659 136.16 360.851 133.929 360.851C131.699 360.851 129.891 362.659 129.891 364.89C129.891 367.121 131.699 368.93 133.929 368.93Z" fill="#D4D2EA"/>
<g style="mix-blend-mode:soft-light">
<path d="M139.905 364.907C139.905 365.692 139.751 366.469 139.45 367.194C139.15 367.919 138.71 368.578 138.155 369.133C137.6 369.688 136.941 370.129 136.216 370.429C135.491 370.73 134.714 370.884 133.929 370.884C133.08 370.884 132.242 370.701 131.47 370.347C131.635 369.896 131.929 369.505 132.317 369.223C132.825 368.894 133.372 368.632 133.945 368.441C135.177 368.063 136.296 367.385 137.202 366.47C137.636 366.005 137.916 365.419 138.006 364.79C138.097 364.161 137.992 363.52 137.707 362.952C137.496 362.648 137.256 362.364 136.991 362.105L135.167 360.297C134.688 359.922 134.294 359.451 134.011 358.913C135.583 358.938 137.082 359.581 138.185 360.703C139.288 361.824 139.906 363.334 139.905 364.907Z" fill="black"/>
</g>
<g style="mix-blend-mode:soft-light" opacity="0.3">
<path d="M103.137 222.472L134.239 326.989C134.239 326.989 103.935 239.802 103.137 222.472Z" fill="black"/>
</g>
<g style="mix-blend-mode:soft-light" opacity="0.3">
<path d="M165.471 222.472L134.369 326.989C134.369 326.989 164.754 239.802 165.471 222.472Z" fill="black"/>
</g>
<path d="M188.74 279.446C188.74 281.701 188.072 283.905 186.819 285.78C185.567 287.655 183.787 289.116 181.704 289.979C179.621 290.842 177.329 291.068 175.118 290.628C172.907 290.188 170.876 289.102 169.282 287.508C167.688 285.913 166.602 283.882 166.162 281.67C165.722 279.458 165.948 277.166 166.811 275.083C167.674 272.999 169.135 271.219 171.009 269.966C172.884 268.713 175.087 268.044 177.342 268.044C177.964 268.049 178.585 268.103 179.198 268.207C181.862 268.647 184.283 270.018 186.03 272.076C187.777 274.134 188.738 276.746 188.74 279.446V279.446Z" fill="#B9B9B9"/>
<path d="M183.041 279.446C183.041 280.57 182.708 281.669 182.083 282.604C181.459 283.539 180.571 284.267 179.533 284.697C178.494 285.128 177.352 285.24 176.249 285.021C175.147 284.802 174.134 284.26 173.339 283.465C172.545 282.67 172.003 281.657 171.784 280.555C171.565 279.452 171.677 278.309 172.108 277.27C172.538 276.232 173.266 275.344 174.201 274.719C175.135 274.095 176.234 273.761 177.358 273.761C178.865 273.761 180.311 274.36 181.376 275.426C182.442 276.492 183.041 277.938 183.041 279.446Z" fill="#8A8988"/>
<g style="mix-blend-mode:soft-light" opacity="0.6">
<path d="M188.74 279.446C188.733 281.426 188.211 283.371 187.224 285.088C186.237 286.805 184.82 288.235 183.113 289.238C181.405 290.241 179.466 290.781 177.486 290.806C175.506 290.832 173.554 290.34 171.822 289.381C171.857 288.945 171.985 288.521 172.199 288.139C172.412 287.756 172.706 287.425 173.059 287.166C173.996 286.365 174.992 285.635 176.039 284.984C177.081 284.299 178.14 283.648 179.133 282.899C180.858 281.698 182.167 279.99 182.878 278.012C183.008 277.622 183.09 277.217 183.122 276.807C183.383 273.957 179.866 270.846 179.214 268.158C181.883 268.603 184.307 269.983 186.052 272.05C187.797 274.118 188.75 276.74 188.74 279.446V279.446Z" fill="black"/>
</g>
<g style="mix-blend-mode:soft-light">
<path d="M168.32 275.488C167.924 276.292 167.729 277.181 167.75 278.078C167.764 278.527 167.915 278.962 168.182 279.323C168.45 279.684 168.822 279.954 169.249 280.097C169.793 280.149 170.341 280.034 170.818 279.766C171.295 279.498 171.68 279.091 171.919 278.599C172.353 277.601 172.899 276.655 173.548 275.781C174.215 275.081 175.176 274.706 175.86 274.152C176.256 273.877 176.547 273.477 176.685 273.015C176.824 272.554 176.803 272.059 176.625 271.611C176.274 271.128 175.748 270.801 175.16 270.699C174.421 270.436 173.626 270.371 172.855 270.511C172.083 270.651 171.362 270.991 170.763 271.497C169.673 272.638 168.84 273.998 168.32 275.488V275.488Z" fill="white"/>
</g>
<path d="M109.764 287.687C109.5 295.847 108.553 303.971 106.931 311.972C106.652 313.963 105.685 315.795 104.198 317.148C102.711 318.502 100.797 319.292 98.789 319.383H98.3493L96.2487 319.253L96.3952 316.761L98.4958 316.891C99.9681 316.869 101.382 316.311 102.473 315.321C103.564 314.332 104.257 312.979 104.423 311.516C106.026 303.635 106.941 295.629 107.159 287.59C107.256 278.468 105.856 269.152 100.89 263.158C97.1606 258.679 91.6404 256.415 84.4918 256.415C81.2424 256.281 78.003 256.861 75.0014 258.113C71.9998 259.365 69.3086 261.26 67.1171 263.663C62.0854 269.282 59.6429 277.41 58.5681 285.472C57.6515 293.47 57.6515 301.547 58.5681 309.545C58.6231 310.855 59.1465 312.102 60.0431 313.059C60.9397 314.015 62.1498 314.618 63.4533 314.757L68.2081 315.034L68.0615 317.526L63.3067 317.249C61.4278 317.057 59.6776 316.206 58.3661 314.846C57.0547 313.487 56.2667 311.707 56.1419 309.822C55.2095 301.705 55.2095 293.508 56.1419 285.391C57.2491 276.823 59.8546 268.11 65.3096 262.018C67.7246 259.336 70.6983 257.217 74.0211 255.81C77.3439 254.403 80.9348 253.742 84.5407 253.874V253.874C92.4709 253.874 98.6261 256.448 102.86 261.529C108.348 268.191 109.862 278.078 109.764 287.687Z" fill="#B9B9B9"/>
<path d="M74.282 315.848C74.2705 316.673 73.9839 317.47 73.4678 318.112C72.8493 318.836 72.0758 319.411 71.2047 319.794C70.3336 320.178 69.3873 320.36 68.4361 320.328C65.1794 320.328 62.5903 318.324 62.5903 315.848C62.5903 313.373 65.212 311.369 68.4361 311.369C69.3873 311.337 70.3336 311.519 71.2047 311.902C72.0758 312.286 72.8493 312.861 73.4678 313.584C73.9807 314.229 74.2668 315.025 74.282 315.848V315.848Z" fill="#4F4F4F"/>
<path d="M74.282 315.848C74.2705 316.673 73.9839 317.47 73.4678 318.112C72.9524 317.47 72.6715 316.672 72.6715 315.848C72.6715 315.025 72.9524 314.226 73.4678 313.584C73.9807 314.229 74.2668 315.025 74.282 315.848V315.848Z" fill="#3A3A3A"/>
<path d="M87.195 317.656C87.2031 316.829 87.4836 316.028 87.9929 315.376C88.6159 314.659 89.3907 314.09 90.261 313.709C91.1313 313.329 92.0753 313.147 93.0246 313.177C96.2813 313.177 98.8704 315.181 98.8704 317.656C98.8704 320.132 96.2487 322.135 93.0246 322.135C92.0735 322.167 91.1276 321.984 90.2567 321.601C89.3858 321.217 88.6121 320.643 87.9929 319.92C87.4837 319.275 87.2031 318.479 87.195 317.656V317.656Z" fill="#4F4F4F"/>
<path d="M87.195 317.656C87.2031 316.829 87.4836 316.028 87.9929 315.376C88.5069 316.026 88.793 316.828 88.807 317.656C88.7919 318.48 88.5057 319.276 87.9929 319.92C87.4837 319.275 87.2031 318.479 87.195 317.656V317.656Z" fill="#3A3A3A"/>
<path d="M109.764 287.687L107.208 287.589C107.305 278.468 105.905 269.152 100.938 263.158C97.2094 258.679 91.6893 256.415 84.5407 256.415C81.2912 256.281 78.0519 256.861 75.0503 258.113C72.0487 259.365 69.3575 261.26 67.166 263.663C62.1343 269.282 59.6918 277.41 58.617 285.472L56.1419 285.374C57.2492 276.807 59.8546 268.093 65.3096 262.002C67.7247 259.32 70.6984 257.201 74.0211 255.794C77.3439 254.387 80.9348 253.726 84.5407 253.858V253.858C92.4709 253.858 98.6261 256.431 102.86 261.513C108.348 268.191 109.862 278.078 109.764 287.687Z" fill="#4F4F4F"/>
<path d="M88.7419 255.145L85.6317 254.933C87.3741 228.954 91.6567 210.452 98.333 199.946C103.576 191.705 108.461 191.46 108.999 191.46V194.587C108.869 194.587 92.7151 196.086 88.7419 255.145Z" fill="#4F4F4F"/>
<path d="M178.921 268.207L175.811 267.93C179.735 222.732 172.88 205.012 166.448 198.106C162.849 194.262 159.755 194.262 159.609 194.262L159.478 191.135C159.658 191.135 163.956 191.004 168.516 195.76C175.502 203.041 182.96 221.527 178.921 268.207Z" fill="#4F4F4F"/>
<path d="M152.574 142.467C152.574 142.467 131.487 147.256 111.702 143.347C111.702 143.347 115.578 161.393 132.529 160.986C148.503 160.612 152.444 145.969 152.574 142.467Z" fill="#B22828"/>
<path d="M131.878 151.572C118.851 151.849 114.91 146.539 113.2 143.624C128.556 146.311 140.882 144.243 151.548 142.679C150.457 145.969 144.155 151.311 131.878 151.572Z" fill="white"/>
<g style="mix-blend-mode:soft-light">
<path d="M133.799 103.817C133.294 108.491 132.659 113.492 129.516 116.977C127.497 119.225 124.534 120.756 123.491 123.59C123.088 125.002 123.107 126.502 123.547 127.903C123.987 129.304 124.828 130.545 125.967 131.473C128.285 133.288 131.067 134.417 133.994 134.731" stroke="black" stroke-width="1.15" stroke-linecap="round" stroke-linejoin="round"/>
</g>
<path d="M116.278 106.195C116.278 109.583 114.226 112.319 111.702 112.319C109.178 112.319 107.126 109.583 107.126 106.195C107.126 102.807 109.162 100.071 111.702 100.071C114.242 100.071 116.278 102.84 116.278 106.195Z" fill="#32324C"/>
<path d="M92.015 94.028C92.015 94.028 96.037 84.8092 104.407 82.1869C109.729 80.3127 115.572 80.5933 120.691 82.9688C121.293 83.2708 121.766 83.7786 122.026 84.4001C122.286 85.0216 122.315 85.7157 122.107 86.3566V86.3566C121.997 86.7457 121.805 87.1066 121.543 87.4152C121.282 87.7238 120.958 87.9729 120.592 88.1457C120.226 88.3185 119.828 88.411 119.424 88.4171C119.019 88.4231 118.619 88.3426 118.248 88.1808C113.493 86.0797 102.941 83.6854 92.015 94.028Z" fill="#32324C"/>
<path d="M148.178 106.195C148.178 109.583 150.229 112.319 152.753 112.319C155.277 112.319 157.329 109.583 157.329 106.195C157.329 102.807 155.294 100.071 152.753 100.071C150.213 100.071 148.178 102.84 148.178 106.195Z" fill="#32324C"/>
<path d="M170.731 94.8261C170.731 94.8261 167.474 85.3142 159.332 82.0567C154.179 79.7629 148.333 79.5816 143.048 81.5517C142.435 81.8142 141.935 82.2855 141.637 82.882C141.339 83.4785 141.262 84.1614 141.42 84.8093V84.8093C141.509 85.1888 141.675 85.5457 141.91 85.8571C142.144 86.1685 142.441 86.4276 142.781 86.6177C143.122 86.8078 143.498 86.9247 143.886 86.9611C144.274 86.9975 144.665 86.9525 145.035 86.8289C149.953 85.2164 160.586 83.6528 170.731 94.8261Z" fill="#32324C"/>
<g style="mix-blend-mode:soft-light" opacity="0.3">
<path d="M88.0906 51.9572C88.0906 51.9572 109.259 77.6102 182.113 73.4405C182.113 73.4405 180.37 63.3748 177.423 59.4332C177.423 59.4332 104.667 47.6573 88.0906 51.9572Z" fill="black"/>
</g>
<path d="M199.162 61.9252C202.647 60.6059 191.802 98.1488 194.879 95.9988C207.125 87.399 219.5 45.035 217.676 31.4349C217.181 26.6153 215.102 22.0959 211.765 18.584C208.303 15.4251 203.829 13.6008 199.146 13.4371C193.381 13.0951 169.965 16.9226 169.135 25.8319C170.584 10.1633 164.575 2.85019 149.334 1.10742C135.232 -0.52134 120.43 -0.847092 107.403 4.88613C97.5026 9.2512 89.2956 16.8575 82.1307 25.0827C79.4963 27.6869 77.5396 30.8967 76.4314 34.4318C72.6862 50.1493 104.277 59.3029 114.617 62.821C132.1 68.7801 150.662 70.8968 169.037 69.0266C179.343 67.9699 189.469 65.583 199.162 61.9252V61.9252Z" fill="#32324C"/>
</svg>
