<svg width="84" height="87" viewBox="0 0 84 87" fill="none" xmlns="http://www.w3.org/2000/svg">
<path d="M27.5587 2.37415L82.3372 61.5143C82.8644 62.0843 83.2741 62.7526 83.543 63.481C83.812 64.2094 83.9348 64.9837 83.9046 65.7596C83.8743 66.5355 83.6916 67.2978 83.3668 68.003C83.042 68.7083 82.5815 69.3426 82.0115 69.8698L65.2556 85.3919C64.1048 86.4548 62.5802 87.0189 61.015 86.9609C59.4497 86.9029 57.971 86.2276 56.902 85.0824L2.17241 25.926C1.64327 25.357 1.23177 24.689 0.961618 23.9604C0.691467 23.2318 0.56799 22.457 0.598256 21.6805C0.628522 20.904 0.81194 20.1411 1.13798 19.4358C1.46402 18.7304 1.92625 18.0965 2.49808 17.5705L19.254 2.0484C20.4006 0.994515 21.9176 0.437244 23.4735 0.498277C25.0295 0.559311 26.4982 1.23369 27.5587 2.37415V2.37415Z" fill="#38A3A5"/>
<path d="M38.577 27.3305L26.438 38.5741C24.3924 40.4687 24.2697 43.6633 26.1639 45.7094L38.2788 58.7954C40.173 60.8414 43.3669 60.9641 45.4125 59.0695L57.5515 47.826C59.5971 45.9313 59.7197 42.7367 57.8255 40.6907L45.7106 27.6047C43.8164 25.5586 40.6226 25.4359 38.577 27.3305Z" fill="#22577A"/>
<path d="M8.50679 22.5708C8.68662 22.8903 8.7534 23.2611 8.69633 23.6233C8.63925 23.9855 8.46167 24.3179 8.1923 24.5666C7.92294 24.8153 7.57755 24.9658 7.21203 24.9938C6.84652 25.0217 6.48225 24.9255 6.17819 24.7207C5.97434 24.5834 5.80421 24.4017 5.68055 24.1893C5.55689 23.9768 5.48291 23.7391 5.46416 23.494C5.44541 23.2489 5.48236 23.0027 5.57227 22.7739C5.66218 22.5451 5.8027 22.3397 5.98329 22.1729C6.16388 22.0062 6.37989 21.8825 6.61508 21.8111C6.85027 21.7398 7.09854 21.7226 7.34131 21.7609C7.58409 21.7991 7.81507 21.8919 8.01691 22.0321C8.21875 22.1724 8.38623 22.3565 8.50679 22.5708Z" fill="#DEEFFF"/>
<path d="M13.0662 18.2708C13.3549 18.5737 13.516 18.9761 13.516 19.3946C13.516 19.8131 13.3549 20.2156 13.0662 20.5185C12.9289 20.7224 12.7473 20.8926 12.5349 21.0162C12.3225 21.1399 12.0849 21.2139 11.8398 21.2327C11.5948 21.2514 11.3486 21.2145 11.1199 21.1245C10.8912 21.0346 10.6858 20.8941 10.5191 20.7134C10.3524 20.5328 10.2287 20.3168 10.1574 20.0815C10.086 19.8463 10.0688 19.5979 10.1071 19.3551C10.1453 19.1123 10.2381 18.8812 10.3783 18.6794C10.5185 18.4775 10.7026 18.31 10.9168 18.1894C11.2237 17.9393 11.6112 17.8096 12.0069 17.8246C12.4025 17.8396 12.7791 17.9982 13.0662 18.2708V18.2708Z" fill="#DEEFFF"/>
<path d="M17.642 14.0361C17.8775 14.2606 18.0403 14.5506 18.1095 14.8686C18.1787 15.1866 18.1511 15.5181 18.0302 15.8202C17.9092 16.1224 17.7006 16.3814 17.4311 16.5638C17.1617 16.7462 16.8438 16.8437 16.5184 16.8437C16.193 16.8437 15.8751 16.7462 15.6056 16.5638C15.3362 16.3814 15.1275 16.1224 15.0066 15.8202C14.8857 15.5181 14.8581 15.1866 14.9273 14.8686C14.9964 14.5506 15.1593 14.2606 15.3948 14.0361C15.6976 13.7473 16.1 13.5862 16.5184 13.5862C16.9368 13.5862 17.3391 13.7473 17.642 14.0361Z" fill="#DEEFFF"/>
<path d="M22.2014 9.81754C22.4053 9.95486 22.5754 10.1366 22.6991 10.349C22.8227 10.5614 22.8967 10.7991 22.9155 11.0442C22.9342 11.2894 22.8972 11.5355 22.8073 11.7643C22.7174 11.9931 22.5769 12.1986 22.3963 12.3653C22.2157 12.5321 21.9997 12.6558 21.7645 12.7271C21.5293 12.7985 21.2811 12.8157 21.0383 12.7774C20.7955 12.7391 20.5645 12.6464 20.3627 12.5061C20.1609 12.3659 19.9934 12.1817 19.8728 11.9675C19.5996 11.6552 19.456 11.2503 19.4711 10.8356C19.4862 10.421 19.659 10.0277 19.9542 9.7361C20.2674 9.45807 20.6757 9.3114 21.0941 9.32657C21.5126 9.34174 21.9092 9.51756 22.2014 9.81754V9.81754Z" fill="#DEEFFF"/>
<path d="M26.7608 5.5828C26.9878 5.81583 27.1399 6.11153 27.1973 6.43178C27.2548 6.75203 27.2151 7.08215 27.0832 7.3796C26.9514 7.67705 26.7335 7.92819 26.4577 8.10065C26.1819 8.27311 25.8607 8.35899 25.5356 8.3472C25.2105 8.33542 24.8964 8.22653 24.6338 8.03456C24.3712 7.84258 24.172 7.57633 24.0621 7.27012C23.9521 6.9639 23.9364 6.63176 24.0169 6.31651C24.0973 6.00126 24.2704 5.71735 24.5137 5.50137C24.8269 5.22333 25.2351 5.07666 25.6536 5.09183C26.072 5.10699 26.4686 5.28283 26.7608 5.5828V5.5828Z" fill="#DEEFFF"/>
<path d="M14.1735 24.2809C14.409 24.5055 14.5719 24.7955 14.6411 25.1135C14.7103 25.4315 14.6826 25.763 14.5617 26.0651C14.4408 26.3673 14.2322 26.6262 13.9627 26.8087C13.6932 26.9911 13.3753 27.0886 13.0499 27.0886C12.7246 27.0886 12.4066 26.9911 12.1372 26.8087C11.8677 26.6262 11.6591 26.3673 11.5382 26.0651C11.4173 25.763 11.3896 25.4315 11.4588 25.1135C11.528 24.7955 11.6908 24.5055 11.9264 24.2809C12.2292 23.9922 12.6315 23.8311 13.0499 23.8311C13.4683 23.8311 13.8707 23.9922 14.1735 24.2809Z" fill="#DEEFFF"/>
<path d="M18.7493 20.0625C18.9485 20.2025 19.1137 20.3855 19.2329 20.5979C19.3521 20.8103 19.4221 21.0467 19.4378 21.2898C19.4535 21.5328 19.4146 21.7763 19.3238 22.0023C19.233 22.2283 19.0927 22.431 18.9132 22.5956C18.7337 22.7602 18.5195 22.8824 18.2866 22.9533C18.0536 23.0241 17.8077 23.0418 17.567 23.0051C17.3263 22.9683 17.0969 22.878 16.8957 22.7408C16.6945 22.6037 16.5266 22.4231 16.4044 22.2124C16.2181 21.8913 16.147 21.5161 16.2031 21.1491C16.2591 20.7821 16.4388 20.4452 16.7125 20.1943C16.9861 19.9434 17.3372 19.7936 17.7077 19.7696C18.0781 19.7456 18.4456 19.849 18.7493 20.0625V20.0625Z" fill="#DEEFFF"/>
<path d="M23.3087 15.8277C23.4742 16.1409 23.5332 16.4996 23.4766 16.8494C23.42 17.1992 23.2509 17.5209 22.9949 17.7659C22.739 18.0108 22.4101 18.1656 22.0583 18.2068C21.7065 18.2479 21.3508 18.1732 21.0453 17.9939C20.8572 17.6742 20.784 17.2999 20.8375 16.9329C20.8911 16.5658 21.0683 16.2281 21.3398 15.9755C21.6113 15.7229 21.961 15.5705 22.3308 15.5436C22.7007 15.5168 23.0686 15.617 23.3738 15.8277H23.3087Z" fill="#DEEFFF"/>
<path d="M27.8682 11.6092C28.0934 11.8439 28.2432 12.1407 28.2983 12.4613C28.3534 12.782 28.3112 13.1117 28.1772 13.4082C28.0432 13.7046 27.8235 13.9541 27.5464 14.1245C27.2694 14.295 26.9477 14.3785 26.6227 14.3643C26.2978 14.3502 25.9845 14.2391 25.7232 14.0452C25.462 13.8514 25.2648 13.5838 25.1571 13.2768C25.0493 12.9699 25.0359 12.6377 25.1186 12.323C25.2013 12.0084 25.3762 11.7257 25.621 11.5115C25.9362 11.2355 26.3457 11.0917 26.7642 11.1099C27.1827 11.1281 27.5781 11.3069 27.8682 11.6092V11.6092Z" fill="#DEEFFF"/>
<path d="M15.9159 30.5027C16.1536 30.7263 16.3187 31.0162 16.3898 31.3348C16.4608 31.6534 16.4345 31.986 16.3143 32.2894C16.194 32.5929 15.9854 32.8532 15.7155 33.0366C15.4456 33.2201 15.1268 33.3181 14.8004 33.3181C14.4741 33.3181 14.1553 33.2201 13.8854 33.0366C13.6154 32.8532 13.4068 32.5929 13.2866 32.2894C13.1664 31.986 13.1401 31.6534 13.2111 31.3348C13.2821 31.0162 13.4472 30.7263 13.685 30.5027C13.987 30.2187 14.3859 30.0606 14.8004 30.0606C15.2149 30.0606 15.6139 30.2187 15.9159 30.5027V30.5027Z" fill="#DEEFFF"/>
<path d="M20.4916 26.2843C20.7168 26.519 20.8667 26.8158 20.9217 27.1364C20.9768 27.4571 20.9346 27.7868 20.8006 28.0833C20.6666 28.3797 20.4469 28.6292 20.1699 28.7996C19.8928 28.9701 19.5711 29.0536 19.2462 29.0395C18.9212 29.0253 18.6079 28.9142 18.3467 28.7204C18.0855 28.5265 17.8883 28.2589 17.7805 27.9519C17.6727 27.645 17.6593 27.3128 17.742 26.9981C17.8247 26.6835 17.9997 26.4008 18.2444 26.1866C18.5597 25.9106 18.9691 25.7668 19.3876 25.785C19.8061 25.8032 20.2015 25.982 20.4916 26.2843V26.2843Z" fill="#DEEFFF"/>
<path d="M25.0511 22.0495C25.2866 22.2741 25.4494 22.5641 25.5186 22.8821C25.5878 23.2001 25.5602 23.5316 25.4393 23.8337C25.3184 24.1359 25.1097 24.3949 24.8403 24.5773C24.5708 24.7597 24.2529 24.8572 23.9275 24.8572C23.6021 24.8572 23.2842 24.7597 23.0147 24.5773C22.7453 24.3949 22.5366 24.1359 22.4157 23.8337C22.2948 23.5316 22.2672 23.2001 22.3363 22.8821C22.4055 22.5641 22.5684 22.2741 22.8039 22.0495C23.1067 21.7608 23.5091 21.5997 23.9275 21.5997C24.3459 21.5997 24.7482 21.7608 25.0511 22.0495Z" fill="#DEEFFF"/>
<path d="M29.6105 17.8147C29.846 18.0393 30.0088 18.3293 30.078 18.6473C30.1472 18.9653 30.1196 19.2968 29.9986 19.5989C29.8777 19.9011 29.6691 20.1601 29.3996 20.3425C29.1302 20.5249 28.8123 20.6224 28.4869 20.6224C28.1615 20.6224 27.8436 20.5249 27.5741 20.3425C27.3047 20.1601 27.096 19.9011 26.9751 19.5989C26.8542 19.2968 26.8265 18.9653 26.8957 18.6473C26.9649 18.3293 27.1278 18.0393 27.3633 17.8147C27.6661 17.526 28.0685 17.3649 28.4869 17.3649C28.9053 17.3649 29.3076 17.526 29.6105 17.8147Z" fill="#DEEFFF"/>
<path d="M34.1862 13.5963C34.3725 13.9174 34.4435 14.2926 34.3875 14.6596C34.3315 15.0267 34.1517 15.3635 33.8781 15.6144C33.6045 15.8653 33.2534 16.0151 32.883 16.0391C32.5125 16.0631 32.1451 15.9598 31.8414 15.7463C31.6551 15.4251 31.5841 15.05 31.6401 14.6829C31.6961 14.3159 31.8758 13.979 32.1495 13.7281C32.4231 13.4772 32.7742 13.3274 33.1446 13.3034C33.515 13.2794 33.8825 13.3828 34.1862 13.5963V13.5963Z" fill="#DEEFFF"/>
<path d="M21.5989 32.3433C21.8344 32.5678 21.9973 32.8578 22.0665 33.1758C22.1357 33.4938 22.108 33.8253 21.9871 34.1274C21.8662 34.4296 21.6575 34.6886 21.3881 34.871C21.1186 35.0534 20.8007 35.1509 20.4753 35.1509C20.15 35.1509 19.832 35.0534 19.5626 34.871C19.2931 34.6886 19.0845 34.4296 18.9636 34.1274C18.8427 33.8253 18.815 33.4938 18.8842 33.1758C18.9534 32.8578 19.1163 32.5678 19.3518 32.3433C19.6546 32.0545 20.0569 31.8934 20.4753 31.8934C20.8937 31.8934 21.2961 32.0545 21.5989 32.3433Z" fill="#DEEFFF"/>
<path d="M26.1583 28.0597C26.447 28.3626 26.6081 28.765 26.6081 29.1835C26.6081 29.602 26.447 30.0044 26.1583 30.3074C25.8387 30.4954 25.4645 30.5687 25.0975 30.5151C24.7306 30.4616 24.3929 30.2843 24.1404 30.0127C23.8878 29.7411 23.7355 29.3914 23.7087 29.0215C23.6818 28.6515 23.782 28.2835 23.9926 27.9782C24.3007 27.7236 24.6916 27.5912 25.091 27.6062C25.4903 27.6212 25.8702 27.7826 26.1583 28.0597V28.0597Z" fill="#DEEFFF"/>
<path d="M30.7178 23.8412C30.9448 24.0742 31.0969 24.3699 31.1544 24.6901C31.2118 25.0104 31.1721 25.3405 31.0402 25.638C30.9084 25.9354 30.6905 26.1866 30.4147 26.359C30.1388 26.5315 29.8177 26.6174 29.4926 26.6056C29.1675 26.5938 28.8534 26.4849 28.5908 26.2929C28.3281 26.1009 28.129 25.8347 28.019 25.5285C27.9091 25.2223 27.8933 24.8901 27.9738 24.5749C28.0543 24.2596 28.2273 23.9757 28.4706 23.7597C28.7838 23.4817 29.192 23.335 29.6105 23.3502C30.029 23.3654 30.4256 23.5412 30.7178 23.8412V23.8412Z" fill="#DEEFFF"/>
<path d="M35.2772 19.6064C35.4652 19.9261 35.5385 20.3004 35.4849 20.6675C35.4314 21.0345 35.2542 21.3722 34.9826 21.6249C34.7111 21.8775 34.3615 22.0298 33.9916 22.0567C33.6218 22.0836 33.2538 21.9833 32.9486 21.7726C32.7606 21.4529 32.6873 21.0786 32.7409 20.7116C32.7944 20.3446 32.9716 20.0068 33.2432 19.7542C33.5147 19.5016 33.8643 19.3492 34.2342 19.3224C34.6041 19.2955 34.972 19.3957 35.2772 19.6064V19.6064Z" fill="#DEEFFF"/>
<path d="M51.333 68.746C51.521 69.0657 51.5943 69.44 51.5407 69.807C51.4872 70.1741 51.31 70.5118 51.0384 70.7644C50.7669 71.017 50.4173 71.1694 50.0474 71.1962C49.6776 71.2231 49.3096 71.1229 49.0045 70.9122C48.8164 70.5925 48.7431 70.2182 48.7967 69.8511C48.8503 69.4841 49.0275 69.1464 49.299 68.8938C49.5705 68.6411 49.9202 68.4888 50.29 68.4619C50.6599 68.435 51.0278 68.5352 51.333 68.746Z" fill="#DEEFFF"/>
<path d="M55.9087 64.5275C56.121 64.6594 56.3001 64.8384 56.4321 65.0506C56.5641 65.2628 56.6456 65.5025 56.6701 65.7512C56.6946 66 56.6616 66.251 56.5736 66.4849C56.4855 66.7188 56.3449 66.9293 56.1624 67.1001C55.98 67.271 55.7608 67.3975 55.5216 67.4699C55.2825 67.5424 55.0299 67.5588 54.7833 67.518C54.5368 67.4771 54.303 67.38 54.1 67.2343C53.897 67.0885 53.7303 66.898 53.6127 66.6775C53.4264 66.3563 53.3554 65.9812 53.4115 65.6142C53.4675 65.2471 53.6472 64.9103 53.9208 64.6594C54.1945 64.4085 54.5456 64.2586 54.916 64.2347C55.2864 64.2107 55.6539 64.314 55.9576 64.5275H55.9087Z" fill="#DEEFFF"/>
<path d="M60.4682 60.2928C60.7037 60.5173 60.8666 60.8073 60.9357 61.1253C61.0049 61.4433 60.9773 61.7748 60.8564 62.0769C60.7355 62.3791 60.5268 62.6381 60.2574 62.8205C59.9879 63.0029 59.67 63.1004 59.3446 63.1004C59.0192 63.1004 58.7013 63.0029 58.4319 62.8205C58.1624 62.6381 57.9538 62.3791 57.8329 62.0769C57.7119 61.7748 57.6843 61.4433 57.7535 61.1253C57.8227 60.8073 57.9855 60.5173 58.221 60.2928C58.5239 60.004 58.9262 59.8429 59.3446 59.8429C59.763 59.8429 60.1654 60.004 60.4682 60.2928V60.2928Z" fill="#DEEFFF"/>
<path d="M65.0113 56.0743C65.2366 56.309 65.3864 56.6057 65.4415 56.9264C65.4966 57.247 65.4544 57.5768 65.3204 57.8732C65.1864 58.1697 64.9667 58.4192 64.6896 58.5896C64.4126 58.76 64.0908 58.8435 63.7659 58.8294C63.4409 58.8153 63.1277 58.7041 62.8664 58.5103C62.6052 58.3165 62.408 58.0488 62.3002 57.7419C62.1924 57.4349 62.179 57.1027 62.2617 56.7881C62.3444 56.4735 62.5194 56.1908 62.7642 55.9765C63.0794 55.7006 63.4888 55.5568 63.9073 55.575C64.3258 55.5932 64.7213 55.772 65.0113 56.0743V56.0743Z" fill="#DEEFFF"/>
<path d="M69.587 51.8884C69.8247 52.112 69.9898 52.4018 70.0609 52.7204C70.1319 53.039 70.1056 53.3716 69.9854 53.6751C69.8652 53.9785 69.6566 54.2388 69.3866 54.4222C69.1167 54.6057 68.7979 54.7038 68.4716 54.7038C68.1452 54.7038 67.8264 54.6057 67.5565 54.4222C67.2866 54.2388 67.078 53.9785 66.9578 53.6751C66.8375 53.3716 66.8112 53.039 66.8823 52.7204C66.9533 52.4018 67.1184 52.112 67.3562 51.8884C67.6581 51.6044 68.0571 51.4462 68.4716 51.4462C68.8861 51.4462 69.285 51.6044 69.587 51.8884V51.8884Z" fill="#DEEFFF"/>
<path d="M57.016 70.5376C57.2515 70.7622 57.4144 71.0522 57.4836 71.3702C57.5528 71.6882 57.5251 72.0196 57.4042 72.3218C57.2833 72.6239 57.0746 72.8829 56.8052 73.0654C56.5357 73.2478 56.2178 73.3453 55.8924 73.3453C55.5671 73.3453 55.2491 73.2478 54.9797 73.0654C54.7102 72.8829 54.5016 72.6239 54.3807 72.3218C54.2598 72.0196 54.2321 71.6882 54.3013 71.3702C54.3705 71.0522 54.5334 70.7622 54.7689 70.5376C55.0717 70.2488 55.474 70.0878 55.8924 70.0878C56.3108 70.0878 56.7132 70.2488 57.016 70.5376V70.5376Z" fill="#DEEFFF"/>
<path d="M61.5755 66.3191C61.8514 66.6344 61.9951 67.044 61.9769 67.4626C61.9588 67.8812 61.78 68.2767 61.4778 68.5668C61.1567 68.7532 60.7816 68.8242 60.4147 68.7682C60.0477 68.7121 59.7109 68.5323 59.4601 68.2587C59.2093 67.985 59.0594 67.6338 59.0355 67.2632C59.0115 66.8927 59.1148 66.5252 59.3283 66.2214C59.6435 65.9455 60.0529 65.8016 60.4714 65.8198C60.89 65.838 61.2854 66.0169 61.5755 66.3191V66.3191Z" fill="#DEEFFF"/>
<path d="M66.1349 62.0844C66.3619 62.3174 66.514 62.6131 66.5714 62.9334C66.6289 63.2536 66.5891 63.5837 66.4573 63.8812C66.3255 64.1786 66.1076 64.4298 65.8318 64.6022C65.5559 64.7747 65.2348 64.8606 64.9097 64.8488C64.5846 64.837 64.2705 64.7281 64.0079 64.5361C63.7453 64.3442 63.5461 64.0779 63.4362 63.7717C63.3262 63.4655 63.3104 63.1333 63.3909 62.8181C63.4714 62.5028 63.6445 62.2189 63.8877 62.003C64.2009 61.7249 64.6091 61.5782 65.0276 61.5934C65.4461 61.6086 65.8427 61.7844 66.1349 62.0844Z" fill="#DEEFFF"/>
<path d="M70.6944 57.8659C70.9196 58.1006 71.0694 58.3974 71.1245 58.718C71.1796 59.0387 71.1374 59.3684 71.0034 59.6649C70.8694 59.9613 70.6497 60.2108 70.3726 60.3812C70.0956 60.5517 69.7738 60.6352 69.4489 60.6211C69.1239 60.6069 68.8107 60.4958 68.5494 60.3019C68.2882 60.1081 68.091 59.8405 67.9832 59.5335C67.8755 59.2266 67.862 58.8944 67.9447 58.5797C68.0274 58.2651 68.2024 57.9824 68.4472 57.7682C68.7624 57.4922 69.1719 57.3484 69.5904 57.3666C70.0089 57.3848 70.4043 57.5636 70.6944 57.8659V57.8659Z" fill="#DEEFFF"/>
<path d="M58.7584 76.7595C58.9939 76.984 59.1567 77.274 59.2259 77.592C59.2951 77.9101 59.2675 78.2415 59.1465 78.5436C59.0256 78.8458 58.817 79.1048 58.5475 79.2872C58.2781 79.4696 57.9602 79.5671 57.6348 79.5671C57.3094 79.5671 56.9915 79.4696 56.7221 79.2872C56.4526 79.1048 56.244 78.8458 56.1231 78.5436C56.0022 78.2415 55.9745 77.9101 56.0437 77.592C56.1129 77.274 56.2757 76.984 56.5113 76.7595C56.8141 76.4707 57.2164 76.3096 57.6348 76.3096C58.0532 76.3096 58.4555 76.4707 58.7584 76.7595V76.7595Z" fill="#DEEFFF"/>
<path d="M63.3829 72.5247C63.6184 72.7492 63.7813 73.0392 63.8505 73.3572C63.9197 73.6753 63.892 74.0067 63.7711 74.3088C63.6502 74.611 63.4416 74.87 63.1721 75.0524C62.9026 75.2348 62.5847 75.3323 62.2593 75.3323C61.934 75.3323 61.616 75.2348 61.3466 75.0524C61.0771 74.87 60.8685 74.611 60.7476 74.3088C60.6266 74.0067 60.599 73.6753 60.6682 73.3572C60.7374 73.0392 60.9002 72.7492 61.1357 72.5247C61.4386 72.2359 61.8409 72.0748 62.2593 72.0748C62.6777 72.0748 63.0801 72.2359 63.3829 72.5247V72.5247Z" fill="#DEEFFF"/>
<path d="M67.8772 68.3062C68.0811 68.4435 68.2512 68.6252 68.3749 68.8377C68.4986 69.0501 68.5725 69.2878 68.5913 69.5329C68.61 69.778 68.5731 70.0242 68.4832 70.253C68.3933 70.4818 68.2527 70.6872 68.0721 70.854C67.8915 71.0207 67.6756 71.1444 67.4404 71.2158C67.2052 71.2871 66.9569 71.3043 66.7141 71.266C66.4713 71.2278 66.2404 71.135 66.0385 70.9948C65.8367 70.8545 65.6692 70.6704 65.5487 70.4562C65.3688 70.1366 65.3021 69.7658 65.3591 69.4036C65.4162 69.0414 65.5938 68.709 65.8631 68.4603C66.1325 68.2116 66.4779 68.0611 66.8434 68.0332C67.2089 68.0052 67.5732 68.1014 67.8772 68.3062Z" fill="#DEEFFF"/>
<path d="M72.4367 64.0715C72.6372 64.2099 72.8041 64.3916 72.9251 64.6032C73.0461 64.8148 73.1181 65.0508 73.1357 65.2939C73.1534 65.537 73.1163 65.781 73.0271 66.0078C72.938 66.2346 72.7991 66.4386 72.6206 66.6046C72.4422 66.7706 72.2288 66.8944 71.9962 66.9669C71.7635 67.0394 71.5176 67.0588 71.2765 67.0236C71.0353 66.9884 70.8052 66.8995 70.603 66.7635C70.4008 66.6275 70.2317 66.4478 70.1081 66.2377C69.8322 65.9224 69.6885 65.5129 69.7066 65.0943C69.7248 64.6757 69.9036 64.2802 70.2058 63.99C70.5181 63.7168 70.9228 63.5731 71.3374 63.5882C71.752 63.6033 72.1452 63.7762 72.4367 64.0715Z" fill="#DEEFFF"/>
<path d="M77.0125 59.853C77.2883 60.1683 77.4321 60.5778 77.4139 60.9964C77.3957 61.415 77.217 61.8105 76.9148 62.1007C76.5939 62.2788 76.2223 62.3434 75.8603 62.2839C75.4982 62.2243 75.1668 62.0442 74.9199 61.7727C74.6729 61.5012 74.5249 61.1542 74.4998 60.7881C74.4747 60.4219 74.574 60.058 74.7816 59.7553C75.0959 59.4841 75.5018 59.3433 75.9164 59.3614C76.331 59.3796 76.7231 59.5554 77.0125 59.853Z" fill="#DEEFFF"/>
<path d="M64.4251 78.5511C64.6257 78.6896 64.7926 78.8713 64.9136 79.0828C65.0346 79.2944 65.1065 79.5304 65.1242 79.7735C65.1419 80.0166 65.1047 80.2606 65.0156 80.4874C64.9264 80.7143 64.7875 80.9182 64.6091 81.0842C64.4307 81.2502 64.2173 81.374 63.9846 81.4465C63.752 81.519 63.506 81.5384 63.2649 81.5032C63.0238 81.468 62.7936 81.3791 62.5914 81.2431C62.3892 81.1071 62.2201 80.9274 62.0966 80.7173C61.896 80.5789 61.7291 80.3972 61.6081 80.1856C61.4871 79.974 61.4151 79.738 61.3975 79.4949C61.3798 79.2518 61.4169 79.0078 61.5061 78.781C61.5952 78.5542 61.7341 78.3502 61.9126 78.1842C62.091 78.0182 62.3044 77.8944 62.5371 77.8219C62.7697 77.7494 63.0156 77.73 63.2568 77.7652C63.4979 77.8004 63.728 77.8893 63.9302 78.0253C64.1325 78.1613 64.3016 78.341 64.4251 78.5511Z" fill="#DEEFFF"/>
<path d="M68.9846 74.3164C69.2201 74.5409 69.3829 74.8309 69.4521 75.1489C69.5213 75.4669 69.4937 75.7984 69.3727 76.1005C69.2518 76.4027 69.0432 76.6617 68.7737 76.8441C68.5043 77.0265 68.1864 77.124 67.861 77.124C67.5356 77.124 67.2177 77.0265 66.9482 76.8441C66.6788 76.6617 66.4701 76.4027 66.3492 76.1005C66.2283 75.7984 66.2007 75.4669 66.2698 75.1489C66.339 74.8309 66.5019 74.5409 66.7374 74.3164C67.0402 74.0276 67.4426 73.8665 67.861 73.8665C68.2794 73.8665 68.6817 74.0276 68.9846 74.3164V74.3164Z" fill="#DEEFFF"/>
<path d="M73.544 70.0979C73.7693 70.3326 73.9191 70.6294 73.9741 70.95C74.0292 71.2706 73.987 71.6004 73.853 71.8968C73.719 72.1933 73.4993 72.4428 73.2223 72.6132C72.9452 72.7836 72.6235 72.8672 72.2986 72.853C71.9736 72.8389 71.6603 72.7278 71.3991 72.5339C71.1379 72.3401 70.9407 72.0725 70.8329 71.7655C70.7252 71.4586 70.7117 71.1264 70.7944 70.8117C70.8771 70.4971 71.0521 70.2144 71.2969 70.0002C71.6121 69.7242 72.0215 69.5804 72.44 69.5986C72.8585 69.6168 73.2539 69.7956 73.544 70.0979V70.0979Z" fill="#DEEFFF"/>
<path d="M78.1197 65.8631C78.3552 66.0877 78.518 66.3776 78.5872 66.6956C78.6564 67.0137 78.6288 67.3451 78.5079 67.6473C78.387 67.9494 78.1783 68.2084 77.9089 68.3908C77.6394 68.5733 77.3215 68.6708 76.9961 68.6708C76.6707 68.6708 76.3528 68.5733 76.0834 68.3908C75.8139 68.2084 75.6053 67.9494 75.4844 67.6473C75.3635 67.3451 75.3358 67.0137 75.405 66.6956C75.4742 66.3776 75.637 66.0877 75.8726 65.8631C76.1754 65.5743 76.5777 65.4132 76.9961 65.4132C77.4145 65.4132 77.8169 65.5743 78.1197 65.8631V65.8631Z" fill="#DEEFFF"/>
<g style="mix-blend-mode:soft-light" opacity="0.3">
<path d="M27.5588 2.37415L82.3372 61.5143C82.8644 62.0843 83.2741 62.7526 83.543 63.481C83.812 64.2094 83.9348 64.9837 83.9046 65.7596C83.8743 66.5354 83.6916 67.2978 83.3668 68.003C83.042 68.7083 82.5815 69.3426 82.0115 69.8698L65.3533 85.3104C63.6615 84.9592 62.0818 84.1977 60.753 83.093C59.4243 81.9883 58.387 80.574 57.7325 78.9746C56.5601 75.7171 57.3743 72.1338 57.7325 68.6808C59.1655 54.1523 51.7564 40.1939 43.0771 28.4994C39.8681 23.9593 36.0738 19.8628 31.7925 16.3163C27.0703 12.6027 21.7455 10.6808 16.3718 8.17253C15.5723 7.81416 14.8042 7.38918 14.0758 6.90209L19.2866 2.01582C20.4358 0.976028 21.948 0.430653 23.4962 0.497714C25.0443 0.564775 26.5038 1.23888 27.5588 2.37415V2.37415Z" fill="black"/>
</g>
</svg>
