<svg width="95" height="88" viewBox="0 0 95 88" fill="none" xmlns="http://www.w3.org/2000/svg">
<g style="mix-blend-mode:soft-light" opacity="0.6">
<path d="M15.0943 19.2676C15.0943 19.2676 15.599 77.6423 11.0396 86.7796L82.0855 87.7895C82.0855 87.7895 85.1306 29.4311 85.1306 18.2578L15.0943 19.2676Z" fill="black"/>
</g>
<path d="M12.8146 13.4367C12.8146 13.4367 13.3193 71.8113 8.74362 80.9486L79.7895 81.9585C79.7895 81.9585 82.8346 23.5838 82.8346 12.4268L12.8146 13.4367Z" fill="#22577A"/>
<path d="M21.3635 27.8675C24.0015 25.7501 27.5839 23.5513 30.4824 25.294C31.0512 25.7185 31.6438 26.1101 32.2573 26.4667C34.9767 27.672 38.3312 24.3331 40.8714 25.8641C41.6856 26.3527 42.1904 27.2648 43.0372 27.6883C44.9912 28.6493 47.0429 26.6133 49.1273 26.0596C51.2116 25.5058 53.4587 26.3528 55.6408 26.7111C60.2328 27.4929 64.8573 25.8478 69.2214 24.2354" stroke="#BFD0E0" stroke-width="0.35" stroke-linecap="round" stroke-linejoin="round"/>
<path d="M21.3635 52.8689C24.0015 50.7515 27.5839 48.5527 30.4824 50.2792C31.047 50.7145 31.64 51.1117 32.2573 51.4682C34.9767 52.6735 38.3312 49.3345 40.8714 50.8656C41.6856 51.3542 42.1904 52.25 43.0372 52.6735C44.9912 53.6508 47.0429 51.6148 49.1273 51.0447C51.2116 50.4746 53.4587 51.3379 55.6408 51.6962C60.2328 52.478 64.8573 50.833 69.2214 49.2042" stroke="#BFD0E0" stroke-width="0.35" stroke-linecap="round" stroke-linejoin="round"/>
<path d="M21.3635 66.1922C24.0015 64.0748 27.5839 61.8759 30.4824 63.6024C31.047 64.0377 31.64 64.4349 32.2573 64.7914C34.9767 65.9967 38.3312 62.6578 40.8714 64.1888C41.6856 64.6774 42.1904 65.5732 43.0372 65.9967C44.9912 66.974 47.0429 64.938 49.1273 64.3679C51.2116 63.7979 53.4587 64.6611 55.6408 65.0194C60.2328 65.8012 64.8573 64.1562 69.2214 62.5437" stroke="#BFD0E0" stroke-width="0.35" stroke-linecap="round" stroke-linejoin="round"/>
<path d="M18.7907 38.829C19.4666 37.6538 20.4163 36.6592 21.5589 35.9298C21.8769 35.7024 22.246 35.557 22.6336 35.5063C23.9689 35.5063 24.5714 37.1351 25.7276 37.8681C26.2206 38.1058 26.7638 38.221 27.3109 38.204C27.858 38.187 28.3929 38.0382 28.8703 37.7703C29.8636 37.298 30.7267 36.5976 31.72 36.1416C32.0667 35.9661 32.4579 35.8981 32.8435 35.9461C33.2904 36.1109 33.6921 36.3787 34.016 36.7279C34.4916 37.1104 35.0495 37.3771 35.6457 37.5071C36.242 37.6372 36.8602 37.6269 37.4518 37.4772C38.4345 37.0971 39.3779 36.6225 40.2689 36.0601C40.7176 35.7838 41.2283 35.6242 41.7545 35.5957C42.2806 35.5673 42.8055 35.671 43.2814 35.8973C44.0793 36.4022 44.4701 37.526 45.3657 37.7703C47.2709 38.3893 48.8016 34.9852 50.6742 35.6692C51.0839 35.858 51.4498 36.1297 51.749 36.4673C52.7792 37.4056 54.0274 38.0719 55.3802 38.4055C55.9393 38.5807 56.5283 38.6393 57.1109 38.5777C57.6935 38.516 58.2572 38.3355 58.7673 38.0472C59.3209 37.6726 59.728 37.1351 60.2491 36.7116C61.0099 36.22 61.8672 35.8972 62.7633 35.7652C63.6594 35.6331 64.5734 35.6948 65.4436 35.9461C67.1814 36.4425 68.9568 36.7966 70.7521 37.0048C72.0747 36.9663 73.3874 36.7638 74.6602 36.4022" stroke="#BFD0E0" stroke-width="0.35" stroke-linecap="round" stroke-linejoin="round"/>
<path d="M27.746 11.3062L19.4902 3.04843L0.65277 21.8903L8.90855 30.1481L27.746 11.3062Z" fill="#F0A500"/>
<path d="M87.7246 26.678L94.9912 17.5373L74.1395 0.953131L66.8729 10.0938L87.7246 26.678Z" fill="#F0A500"/>
</svg>
