<svg width="106" height="150" viewBox="0 0 106 150" fill="none" xmlns="http://www.w3.org/2000/svg">
<path d="M32.2585 24.2607L2.23677 121.75C1.2546 124.939 3.04328 128.321 6.23194 129.304L64.4657 147.245C67.6544 148.228 71.0355 146.438 72.0177 143.249L102.039 45.7599C103.022 42.5705 101.233 39.1886 98.0442 38.2062L39.8104 20.2646C36.6218 19.2822 33.2407 21.0713 32.2585 24.2607Z" fill="#57CC99"/>
<path d="M50.0135 11.8602L44.3619 30.2124L91.9667 44.8791L97.6183 26.527L50.0135 11.8602Z" fill="#57CC99"/>
<path d="M86.8241 60.0357L37.2119 44.7504L18.3495 106.002L67.9617 121.287L86.8241 60.0357Z" fill="#DEEFFF"/>
<path d="M62.7343 68.1095L52.2142 64.8683L41.9705 98.1327L52.4906 101.374L62.7343 68.1095Z" fill="#529F91"/>
<path d="M67.3629 93.4378L70.6033 82.9153L37.3468 72.6692L34.1064 83.1917L67.3629 93.4378Z" fill="#529F91"/>
<g style="mix-blend-mode:soft-light" opacity="0.6">
<path d="M102.004 45.7085L71.9931 143.19C71.7607 143.949 71.3807 144.656 70.875 145.269C70.3693 145.881 69.7478 146.388 69.046 146.76C68.3442 147.133 67.5759 147.363 66.7851 147.437C65.9943 147.512 65.1965 147.43 64.4374 147.196L13.7625 131.593C15.3905 130.193 17.4196 129.343 19.5595 129.166C28.6458 127.912 37.7647 130.469 46.9161 131.088C56.0676 131.707 66.4566 129.671 71.5208 122.048C73.1829 119.274 74.418 116.265 75.1847 113.123C80.6126 94.9242 85.4977 76.5898 89.84 58.1197C91.0464 53.7162 91.7672 49.1939 91.9895 44.6336C91.9895 43.868 91.9895 43.1025 91.9895 42.3533C91.9103 40.0174 91.2619 37.7362 90.1006 35.708C89.7051 35.0594 89.2168 34.4723 88.6513 33.9652C87.0955 32.7321 85.3146 31.8137 83.4079 31.2615C71.7488 27.0267 60.1385 22.4988 48.3817 18.5735L47.9746 18.4432L50.0263 11.8141L97.6236 26.4729L94.3669 37.011L98.0307 38.1348C99.56 38.6147 100.837 39.6812 101.582 41.1007C102.326 42.5203 102.478 44.1772 102.004 45.7085Z" fill="black"/>
</g>
<path d="M103.044 18.1012L49.9302 1.73715C48.3917 1.26316 46.7604 2.12638 46.2865 3.66521L43.5398 12.5844C43.0659 14.1233 43.929 15.755 45.4674 16.229L98.5812 32.593C100.12 33.067 101.751 32.2038 102.225 30.665L104.972 21.7458C105.445 20.207 104.582 18.5752 103.044 18.1012Z" fill="#32324C"/>
</svg>
