<svg width="44" height="44" viewBox="0 0 44 44" fill="none" xmlns="http://www.w3.org/2000/svg">
<path d="M41.4191 31.4027C40.6134 33.1164 39.584 34.7157 38.3578 36.1587C38.1135 36.4518 37.853 36.745 37.5925 37.0056C34.4551 40.3248 30.349 42.567 25.8611 43.4118C21.3732 44.2567 16.7331 43.6609 12.604 41.7097C8.47488 39.7585 5.06809 36.5517 2.87049 32.5476C0.672885 28.5435 -0.203054 23.947 0.367848 19.415V19.415C0.367848 19.0404 0.465551 18.6658 0.54697 18.2912C0.876556 16.4245 1.45718 14.611 2.27304 12.9C2.96214 11.4302 3.81426 10.0424 4.81332 8.763L5.54609 7.88345C8.65087 4.34382 12.8234 1.91157 17.4329 0.954483C22.0424 -0.00260248 26.8381 0.567541 31.0948 2.57867C35.3516 4.58979 38.838 7.93253 41.0268 12.1015C43.2156 16.2704 43.9878 21.0389 43.2266 25.6858V25.6858C43.2266 26.0604 43.0801 26.435 42.9987 26.8096C42.6594 28.3988 42.1291 29.941 41.4191 31.4027Z" fill="#38A3A5"/>
<g style="mix-blend-mode:soft-light" opacity="0.6">
<path d="M41.4191 31.4027C40.6134 33.1164 39.584 34.7157 38.3578 36.1587C38.1135 36.4518 37.853 36.745 37.5924 37.0056L0.351585 19.415C0.351585 19.0404 0.449289 18.6658 0.530707 18.2912C0.860293 16.4245 1.44092 14.611 2.25678 12.9C2.94587 11.4302 3.79797 10.0424 4.79703 8.763L5.5298 7.88345L43.2103 25.6858C43.2103 26.0604 43.0638 26.435 42.9824 26.8096C42.6483 28.3981 42.1234 29.9403 41.4191 31.4027Z" fill="black"/>
</g>
<g style="mix-blend-mode:soft-light" opacity="0.2">
<path d="M42.9823 26.8096L4.87843 8.76299L5.61119 7.88345L43.2917 25.6858C43.1452 26.0604 43.0637 26.435 42.9823 26.8096Z" fill="black"/>
</g>
<g style="mix-blend-mode:soft-light" opacity="0.2">
<path d="M38.3578 36.1587C38.1135 36.4518 37.853 36.745 37.5924 37.0056L0.367836 19.415C0.367836 19.0404 0.465539 18.6658 0.546958 18.2912L38.3578 36.1587Z" fill="black"/>
</g>
</svg>
