<svg width="103" height="94" viewBox="0 0 103 94" fill="none" xmlns="http://www.w3.org/2000/svg">
<g style="mix-blend-mode:soft-light" opacity="0.6">
<path d="M16.2772 19.9601C16.2772 19.9601 16.8145 82.9279 11.8969 92.7819L88.5282 93.8732C88.5282 93.8732 91.785 30.9054 91.785 18.9503L16.2772 19.9601Z" fill="black"/>
</g>
<path d="M13.8021 13.6569C13.8021 13.6569 14.3558 76.6246 9.42181 86.4786L86.0695 87.5861C86.0695 87.5861 89.3262 24.6184 89.3262 12.5656L13.8021 13.6569Z" fill="#22577A"/>
<path d="M23.0187 29.2278C25.8683 26.9475 29.7276 24.5695 32.7889 26.4426C33.4001 26.9089 34.042 27.3334 34.7104 27.713C37.6252 29.016 41.2239 25.4165 43.9921 27.0615C44.8715 27.599 45.4251 28.5763 46.337 29.0323C48.4376 30.0747 50.6522 27.8759 52.8505 27.2081C55.0488 26.5403 57.5239 27.5176 59.8688 27.9248C64.7539 28.7554 69.8019 26.9801 74.5242 25.2373" stroke="#BFD0E0" stroke-width="0.38" stroke-linecap="round" stroke-linejoin="round"/>
<path d="M23.0187 56.2C25.8683 53.9197 29.7276 51.5418 32.7889 53.4148C33.4001 53.8812 34.042 54.3056 34.7104 54.6853C37.6252 55.9883 41.2239 52.3887 43.9921 54.0337C44.8715 54.5549 45.4251 55.5322 46.337 55.9883C48.4376 57.0469 50.6522 54.8319 52.8505 54.1804C55.0488 53.5289 57.5239 54.4898 59.8688 54.8807C64.7539 55.7277 69.8019 53.9523 74.5242 52.2095" stroke="#BFD0E0" stroke-width="0.38" stroke-linecap="round" stroke-linejoin="round"/>
<path d="M23.0187 70.5657C25.8683 68.2854 29.7276 65.9074 32.7889 67.7805C33.4001 68.2468 34.042 68.6712 34.7104 69.0509C37.6252 70.3539 41.2239 66.7543 43.9921 68.4157C44.8715 68.9369 45.4251 69.9142 46.337 70.3702C48.4376 71.4126 50.6522 69.2138 52.8505 68.546C55.0488 67.8782 57.5239 68.8555 59.8688 69.2627C64.7539 70.0933 69.8019 68.3179 74.5242 66.5751" stroke="#BFD0E0" stroke-width="0.38" stroke-linecap="round" stroke-linejoin="round"/>
<path d="M20.2505 41.0526C20.9853 39.7858 22.0127 38.7135 23.2467 37.9253C23.5884 37.6799 23.9857 37.5232 24.4029 37.4693C25.8522 37.3878 26.5035 39.2772 27.7411 40.0265C28.2731 40.2816 28.8589 40.4045 29.4486 40.3847C30.0383 40.3648 30.6144 40.2028 31.1281 39.9124C32.2028 39.4075 33.131 38.642 34.2057 38.1534C34.5768 37.9628 34.9969 37.889 35.4107 37.9416C35.8952 38.1193 36.3305 38.4096 36.6808 38.7886C37.1917 39.2013 37.7922 39.4885 38.4342 39.6271C39.0761 39.7657 39.7416 39.7519 40.3773 39.5867C41.44 39.1841 42.4601 38.6767 43.4223 38.0719C43.9062 37.7703 44.4584 37.5957 45.0277 37.5644C45.597 37.5331 46.165 37.646 46.6791 37.8928C47.5421 38.4466 47.9817 39.5215 48.9425 39.8961C50.9942 40.5639 52.6389 36.9155 54.6744 37.6485C55.112 37.8515 55.5049 38.1394 55.8305 38.4954C56.9388 39.5092 58.2818 40.2312 59.7386 40.5965C60.344 40.7821 60.9808 40.8432 61.6105 40.776C62.2402 40.7089 62.8497 40.5148 63.4024 40.2056C63.9886 39.8147 64.4446 39.2284 65.0308 38.7723C65.8493 38.2378 66.7737 37.8868 67.7407 37.7434C68.7076 37.6 69.6941 37.6677 70.6324 37.9416C72.5075 38.4824 74.425 38.8638 76.3643 39.0818C77.7926 39.0506 79.2106 38.8315 80.5818 38.4302" stroke="#BFD0E0" stroke-width="0.38" stroke-linecap="round" stroke-linejoin="round"/>
<path d="M29.9283 11.3688L21.0276 2.46609L0.704808 22.7937L9.60542 31.6964L29.9283 11.3688Z" fill="#F0A500"/>
<path d="M94.6229 27.932L102.457 18.0774L79.9611 0.185548L72.127 10.0402L94.6229 27.932Z" fill="#F0A500"/>
</svg>
