<svg width="1105" height="509" viewBox="0 0 1105 509" fill="none" xmlns="http://www.w3.org/2000/svg">
<path d="M638.924 446.439H452.882C472.773 440.283 478.231 376.403 478.408 374.399C478.408 374.399 478.408 374.399 478.651 374.399C485.282 375.751 612.403 374.269 612.403 374.269C612.18 383.355 613.351 392.431 615.895 401.323C620.395 417.141 628.161 432.357 638.924 446.439V446.439Z" fill="#334756"/>
<g style="mix-blend-mode:soft-light">
<path d="M617.133 406.486C544.842 409.874 482.939 376.859 478.585 374.465C485.215 375.816 612.337 374.334 612.337 374.334C612.142 383.4 613.335 392.454 615.895 401.323C616.58 404.45 617.133 406.486 617.133 406.486Z" fill="black"/>
</g>
<path d="M875.133 0.469482H220.518C203.345 0.469482 189.423 10.7296 189.423 23.3861V352.998C189.423 365.654 203.345 375.914 220.518 375.914H875.133C892.307 375.914 906.228 365.654 906.228 352.998V23.3861C906.228 10.7296 892.307 0.469482 875.133 0.469482Z" fill="#334756"/>
<path d="M906.229 23.4513V313.207H189.423V23.4513C189.42 20.4412 190.222 17.4603 191.784 14.679C193.346 11.8976 195.636 9.37047 198.524 7.24204C201.412 5.11361 204.841 3.42566 208.615 2.27475C212.389 1.12384 216.434 0.532532 220.518 0.534674H875.133C879.217 0.532532 883.262 1.12384 887.036 2.27475C890.81 3.42566 894.239 5.11361 897.127 7.24204C900.015 9.37047 902.306 11.8976 903.867 14.679C905.429 17.4603 906.231 20.4412 906.229 23.4513V23.4513Z" fill="#082032"/>
<path d="M888.15 13.7927H205.313V303.093H888.15V13.7927Z" fill="#FFE194"/>
<path d="M544.29 352.379C554.469 352.379 562.721 346.297 562.721 338.795C562.721 331.293 554.469 325.211 544.29 325.211C534.11 325.211 525.858 331.293 525.858 338.795C525.858 346.297 534.11 352.379 544.29 352.379Z" fill="white"/>
<path d="M1105 446.798H0V479.601H1105V446.798Z" fill="#22577A"/>
<path d="M1105 479.568H0V509.016H1105V479.568Z" fill="#38A3A5"/>
</svg>
