<svg width="78" height="150" viewBox="0 0 78 150" fill="none" xmlns="http://www.w3.org/2000/svg">
<path d="M77.739 144.802L77.4331 146.623L60.7596 110.859L61.7042 110.416L77.739 144.802Z" fill="#32324C"/>
<path d="M22.3073 7.37291L7.23938 14.4015L14.6858 30.3731L29.7537 23.3445L22.3073 7.37291Z" fill="#22577A"/>
<path d="M25.5852 1.95552L0.969055 13.4379L2.95796 17.7039L27.5742 6.22145L25.5852 1.95552Z" fill="#32324C"/>
<path d="M37.0451 24.8993L11.1741 36.9671L47.8008 115.527L73.6718 103.459L37.0451 24.8993Z" fill="#22577A"/>
<path d="M69.8851 105.213L51.5853 113.749L53.5466 117.956L71.8464 109.42L69.8851 105.213Z" fill="#22577A"/>
<g style="mix-blend-mode:soft-light" opacity="0.6">
<path d="M69.8844 105.219L51.5846 113.755L51.9906 114.626L70.2904 106.09L69.8844 105.219Z" fill="black"/>
</g>
<g style="mix-blend-mode:soft-light" opacity="0.6">
<path d="M22.8207 8.42495L7.73816 15.4603L8.02032 16.0655L23.1028 9.03014L22.8207 8.42495Z" fill="black"/>
</g>
<g style="mix-blend-mode:soft-light" opacity="0.6">
<path d="M29.449 22.6676L14.3665 29.7029L14.6487 30.3081L29.7311 23.2728L29.449 22.6676Z" fill="black"/>
</g>
<path d="M51.5804 62.3818L30.5059 72.2122L48.8467 111.551L69.9212 101.721L51.5804 62.3818Z" fill="#529F91"/>
<path d="M46.7021 52.1119L43.4987 53.5863C43.4305 53.6182 43.3565 53.6363 43.2812 53.6394C43.2059 53.6425 43.1307 53.6307 43.06 53.6046C42.9893 53.5785 42.9245 53.5386 42.8693 53.4872C42.8141 53.4359 42.7696 53.3741 42.7385 53.3055V53.3055C42.6733 53.1652 42.6662 53.0049 42.7187 52.8594C42.7712 52.714 42.879 52.5951 43.0186 52.5288L46.2226 51.0707C46.2909 51.0388 46.3648 51.0207 46.4401 51.0176C46.5154 51.0144 46.5906 51.0263 46.6613 51.0524C46.732 51.0785 46.7969 51.1184 46.852 51.1697C46.9072 51.2211 46.9517 51.2829 46.9828 51.3515C47.0147 51.4198 47.0328 51.4938 47.0359 51.5691C47.0391 51.6444 47.0273 51.7196 47.0011 51.7903C46.975 51.8611 46.9351 51.9259 46.8838 51.9811C46.8325 52.0363 46.7707 52.0808 46.7021 52.1119V52.1119Z" fill="#22577A"/>
<path d="M49.168 57.4135L47.2305 58.3183C47.0897 58.3792 46.931 58.3841 46.7868 58.3321C46.6425 58.28 46.5234 58.1748 46.454 58.038V58.038C46.3941 57.8952 46.3914 57.7348 46.4466 57.59C46.5018 57.4453 46.6106 57.3274 46.7504 57.2607L48.6723 56.3729C48.8125 56.3077 48.9728 56.3006 49.1182 56.3531C49.2637 56.4056 49.3825 56.5134 49.4488 56.6531V56.6531C49.4807 56.7214 49.4988 56.7953 49.5019 56.8707C49.5051 56.946 49.4932 57.0212 49.4671 57.0919C49.441 57.1626 49.4011 57.2275 49.3497 57.2827C49.2984 57.3379 49.2366 57.3823 49.168 57.4135V57.4135Z" fill="#32324C"/>
<path d="M51.6178 62.7156L48.4146 64.19C48.3463 64.2219 48.2724 64.2399 48.1971 64.2431C48.1217 64.2462 48.0466 64.2344 47.9759 64.2083C47.9052 64.1822 47.8403 64.1423 47.7851 64.0909C47.7299 64.0396 47.6855 63.9778 47.6544 63.9091V63.9091C47.5892 63.7689 47.5821 63.6086 47.6346 63.4631C47.6871 63.3177 47.7949 63.1988 47.9346 63.1325L51.1384 61.6744C51.2067 61.6425 51.2806 61.6244 51.3559 61.6213C51.4312 61.6181 51.5064 61.63 51.5771 61.6561C51.6478 61.6822 51.7126 61.7221 51.7678 61.7734C51.823 61.8248 51.8675 61.8866 51.8987 61.9552C51.9306 62.0235 51.9486 62.0975 51.9518 62.1728C51.9549 62.2481 51.943 62.3233 51.9169 62.394C51.8908 62.4648 51.8509 62.5296 51.7996 62.5848C51.7482 62.64 51.6865 62.6845 51.6178 62.7156V62.7156Z" fill="#32324C"/>
<path d="M54.0838 68.0172L52.1463 68.9219C52.078 68.9538 52.0041 68.9719 51.9287 68.975C51.8534 68.9782 51.7783 68.9663 51.7076 68.9402C51.6369 68.9141 51.572 68.8742 51.5168 68.8229C51.4616 68.7715 51.4172 68.7098 51.3861 68.6411C51.3209 68.5009 51.3138 68.3405 51.3663 68.1951C51.4187 68.0496 51.5266 67.9308 51.6662 67.8644L53.588 66.9765C53.7283 66.9114 53.8886 66.9043 54.034 66.9568C54.1795 67.0092 54.2982 67.1171 54.3646 67.2568V67.2568C54.3965 67.3251 54.4145 67.399 54.4177 67.4743C54.4208 67.5497 54.409 67.6249 54.3829 67.6956C54.3568 67.7663 54.3169 67.8311 54.2655 67.8863C54.2142 67.9415 54.1524 67.986 54.0838 68.0172Z" fill="#32324C"/>
<path d="M56.5342 73.3356L53.3303 74.7936C53.262 74.8256 53.1881 74.8436 53.1128 74.8467C53.0375 74.8499 52.9622 74.838 52.8915 74.8119C52.8208 74.7858 52.756 74.7459 52.7008 74.6946C52.6457 74.6432 52.6012 74.5814 52.57 74.5128C52.5049 74.3725 52.4978 74.2122 52.5502 74.0668C52.6027 73.9213 52.7105 73.8025 52.8502 73.7361L56.0542 72.278C56.1225 72.2461 56.1964 72.2281 56.2717 72.2249C56.347 72.2218 56.4222 72.2336 56.4929 72.2597C56.5636 72.2858 56.6285 72.3257 56.6837 72.3771C56.7389 72.4284 56.7833 72.4902 56.8144 72.5589V72.5589C56.8796 72.6991 56.8867 72.8594 56.8342 73.0049C56.7818 73.1504 56.6739 73.2692 56.5342 73.3356V73.3356Z" fill="#32324C"/>
<path d="M59.0003 78.6371L57.0622 79.5256C56.9939 79.5575 56.92 79.5755 56.8447 79.5787C56.7694 79.5818 56.6941 79.57 56.6234 79.5439C56.5527 79.5177 56.4879 79.4779 56.4327 79.4265C56.3776 79.3752 56.3331 79.3134 56.3019 79.2447C56.2368 79.1045 56.2297 78.9442 56.2822 78.7987C56.3347 78.6532 56.4425 78.5344 56.5821 78.468L58.504 77.5802C58.6442 77.515 58.8045 77.5079 58.9499 77.5604C59.0953 77.6129 59.2142 77.7207 59.2805 77.8604C59.3414 78.0012 59.3463 78.16 59.2943 78.3043C59.2422 78.4486 59.1371 78.5676 59.0003 78.6371V78.6371Z" fill="#32324C"/>
<path d="M61.4826 83.938L58.2787 85.3961C58.1385 85.4612 57.9782 85.4683 57.8327 85.4159C57.6873 85.3634 57.5685 85.2556 57.5021 85.1159V85.1159C57.437 84.9756 57.4299 84.8153 57.4824 84.6698C57.5348 84.5244 57.6427 84.4055 57.7823 84.3392L60.9863 82.8811C61.0546 82.8492 61.1285 82.8311 61.2038 82.828C61.2791 82.8248 61.3543 82.8367 61.425 82.8628C61.4957 82.8889 61.5605 82.9288 61.6157 82.9801C61.6709 83.0315 61.7154 83.0933 61.7465 83.1619V83.1619C61.8126 83.3001 61.822 83.4587 61.7727 83.6037C61.7234 83.7488 61.6192 83.8687 61.4826 83.938V83.938Z" fill="#32324C"/>
<path d="M63.9161 89.2407L61.9779 90.1292C61.9097 90.1611 61.8357 90.1792 61.7604 90.1823C61.6851 90.1855 61.6099 90.1736 61.5392 90.1475C61.4685 90.1214 61.4037 90.0815 61.3485 90.0302C61.2933 89.9788 61.2488 89.917 61.2177 89.8484V89.8484C61.1858 89.7801 61.1677 89.7061 61.1646 89.6308C61.1615 89.5555 61.1733 89.4803 61.1994 89.4096C61.2255 89.3388 61.2654 89.274 61.3167 89.2188C61.3681 89.1636 61.4299 89.1191 61.4985 89.088L63.4197 88.1838C63.5605 88.1229 63.7192 88.1179 63.8635 88.17C64.0078 88.2221 64.1268 88.3272 64.1963 88.464V88.464C64.2572 88.6048 64.2621 88.7636 64.21 88.9079C64.158 89.0522 64.0528 89.1713 63.9161 89.2407V89.2407Z" fill="#32324C"/>
<path d="M66.3658 94.5428L63.162 96.0009C63.0218 96.0661 62.8615 96.0732 62.7161 96.0207C62.5706 95.9682 62.4518 95.8604 62.3855 95.7207V95.7207C62.3536 95.6524 62.3355 95.5784 62.3324 95.5031C62.3292 95.4278 62.3411 95.3526 62.3672 95.2819C62.3933 95.2112 62.4332 95.1463 62.4845 95.0911C62.5359 95.0359 62.5976 94.9915 62.6663 94.9603L65.8695 93.4859C65.9378 93.454 66.0117 93.436 66.087 93.4328C66.1623 93.4297 66.2375 93.4415 66.3082 93.4676C66.3789 93.4938 66.4437 93.5337 66.4989 93.585C66.5541 93.6363 66.5985 93.6981 66.6297 93.7668C66.6958 93.905 66.7052 94.0636 66.6559 94.2086C66.6066 94.3536 66.5024 94.4736 66.3658 94.5428V94.5428Z" fill="#32324C"/>
<path d="M68.8325 99.8606L66.8944 100.749C66.8262 100.781 66.7522 100.799 66.6769 100.802C66.6016 100.805 66.5264 100.794 66.4557 100.767C66.385 100.741 66.3203 100.701 66.2651 100.65C66.2099 100.599 66.1654 100.537 66.1343 100.468C66.1023 100.4 66.0843 100.326 66.0812 100.251C66.078 100.175 66.0899 100.1 66.116 100.029C66.1421 99.9587 66.182 99.8939 66.2333 99.8387C66.2847 99.7835 66.3464 99.739 66.415 99.7079L68.3361 98.8037C68.4769 98.7428 68.6356 98.7378 68.7799 98.7899C68.9242 98.842 69.0432 98.9471 69.1126 99.0839V99.0839C69.1735 99.2248 69.1785 99.3835 69.1265 99.5278C69.0744 99.6721 68.9693 99.7912 68.8325 99.8606V99.8606Z" fill="#32324C"/>
<g style="mix-blend-mode:soft-light" opacity="0.6">
<path d="M37.0504 24.9001L73.659 103.377L55.2607 111.964C54.5507 111.129 54.111 110.099 53.9999 109.008C53.8887 107.918 54.1113 106.82 54.6383 105.859C55.555 103.819 57.1374 102.146 58.2043 100.198C59.9012 96.7288 60.3666 92.785 59.5241 89.0158C58.6658 85.2927 57.3918 81.678 55.7262 78.2395C51.2441 68.0433 46.762 57.8471 42.2799 47.6509C40.1028 42.6644 37.2352 37.0848 31.9387 35.7863C25.7544 34.2769 19.0616 39.9911 13.0855 40.9676L11.1708 36.8839L37.0504 24.9001Z" fill="black"/>
</g>
<path d="M38.363 19.2479L6.01379 34.3375L8.6909 40.0795L41.0402 24.9899L38.363 19.2479Z" fill="#32324C"/>
</svg>
