<svg width="797" height="567" viewBox="0 0 797 567" fill="none" xmlns="http://www.w3.org/2000/svg">
<g id="Desktop - 1" clip-path="url(#clip0)">
<g id="tv">
<path id="Vector" d="M460.835 521.87H326.649C340.995 517.429 344.933 471.348 345.06 469.903C345.06 469.903 345.06 469.903 345.235 469.903C350.018 470.878 441.706 469.809 441.706 469.809C441.545 476.363 442.39 482.91 444.225 489.324C447.47 500.735 453.072 511.712 460.835 521.87V521.87Z" fill="#334756"/>
<g id="Vector_2" style="mix-blend-mode:soft-light">
<path d="M445.117 493.049C392.977 495.493 348.328 471.677 345.188 469.95C349.97 470.925 441.658 469.856 441.658 469.856C441.518 476.396 442.379 482.927 444.225 489.324C444.719 491.58 445.117 493.049 445.117 493.049Z" fill="black"/>
</g>
<path id="Vector_3" d="M631.205 200.159H159.052C146.666 200.159 136.624 207.561 136.624 216.691V454.464C136.624 463.594 146.666 470.995 159.052 470.995H631.205C643.591 470.995 653.633 463.594 653.633 454.464V216.691C653.633 207.561 643.591 200.159 631.205 200.159Z" fill="#334756"/>
<path id="Vector_4" d="M653.633 216.738V425.76H136.624V216.738C136.622 214.566 137.201 212.416 138.327 210.41C139.454 208.403 141.106 206.58 143.189 205.045C145.272 203.509 147.745 202.292 150.467 201.462C153.189 200.631 156.107 200.205 159.052 200.206H631.205C634.151 200.205 637.068 200.631 639.79 201.462C642.512 202.292 644.985 203.509 647.068 205.045C649.151 206.58 650.803 208.403 651.93 210.41C653.056 212.416 653.635 214.566 653.633 216.738V216.738Z" fill="#082032"/>
<path id="Vector_5" d="M640.594 209.77H148.086V418.464H640.594V209.77Z" fill="#FFE194"/>
<path id="Vector_6" d="M392.578 454.017C399.92 454.017 405.872 449.63 405.872 444.218C405.872 438.807 399.92 434.419 392.578 434.419C385.236 434.419 379.284 438.807 379.284 444.218C379.284 449.63 385.236 454.017 392.578 454.017Z" fill="white"/>
<path id="Vector_7" d="M797 522.129H0V545.792H797V522.129Z" fill="#22577A"/>
<path id="Vector_8" d="M797 545.769H0V567.012H797V545.769Z" fill="#38A3A5"/>
</g>
<g id="Group">
<path id="Vector_9" d="M368.516 153.291C368.516 153.291 338.79 104.272 353.471 92.3583C368.152 80.4443 381.999 83.3817 390.35 97.5045C398.7 111.627 455.229 89.4914 455.229 89.4914C455.229 89.4914 474.69 96.7408 455.229 128.852C435.767 160.963 392.746 195.812 368.516 153.291Z" fill="#32324C"/>
<path id="Vector_10" d="M375.669 141.189C375.48 142.968 374.769 144.65 373.625 146.025C372.481 147.399 370.955 148.404 369.241 148.911C367.526 149.418 365.7 149.406 363.992 148.875C362.285 148.345 360.773 147.32 359.648 145.93C358.522 144.54 357.834 142.847 357.67 141.066C357.506 139.285 357.873 137.495 358.725 135.923C359.578 134.351 360.877 133.066 362.458 132.232C364.04 131.398 365.833 131.052 367.612 131.237C368.795 131.359 369.942 131.713 370.988 132.28C372.034 132.846 372.958 133.614 373.707 134.538C374.456 135.463 375.014 136.527 375.351 137.668C375.688 138.809 375.796 140.006 375.669 141.189Z" fill="#F4B799"/>
<g id="Vector_11" style="mix-blend-mode:soft-light" opacity="0.6">
<path d="M370.148 140.719C370.148 141.581 369.893 142.424 369.414 143.141C368.935 143.858 368.255 144.416 367.459 144.746C366.662 145.076 365.786 145.162 364.941 144.994C364.096 144.826 363.319 144.411 362.71 143.801C362.101 143.192 361.686 142.415 361.518 141.569C361.349 140.724 361.436 139.847 361.765 139.051C362.095 138.254 362.654 137.573 363.37 137.095C364.087 136.616 364.929 136.36 365.791 136.36C366.947 136.36 368.055 136.819 368.872 137.637C369.689 138.454 370.148 139.563 370.148 140.719V140.719Z" fill="black"/>
</g>
<path id="Vector_12" d="M449.427 141.659C449.243 143.442 448.534 145.13 447.39 146.51C446.246 147.89 444.719 148.899 443.002 149.41C441.284 149.921 439.454 149.911 437.742 149.381C436.03 148.852 434.514 147.825 433.386 146.433C432.257 145.041 431.567 143.345 431.402 141.56C431.238 139.775 431.606 137.981 432.461 136.406C433.316 134.831 434.618 133.544 436.204 132.71C437.79 131.876 439.588 131.531 441.37 131.719C443.753 131.974 445.939 133.162 447.449 135.025C448.959 136.888 449.67 139.273 449.427 141.659V141.659Z" fill="#F4B799"/>
<g id="Vector_13" style="mix-blend-mode:soft-light" opacity="0.6">
<path d="M445.339 140.719C445.339 141.581 445.084 142.424 444.605 143.141C444.126 143.858 443.446 144.416 442.65 144.746C441.853 145.076 440.977 145.162 440.132 144.994C439.287 144.826 438.51 144.411 437.901 143.801C437.292 143.192 436.877 142.415 436.708 141.569C436.54 140.724 436.627 139.847 436.956 139.051C437.286 138.254 437.845 137.573 438.561 137.095C439.278 136.616 440.12 136.36 440.982 136.36C442.138 136.36 443.246 136.819 444.063 137.637C444.88 138.454 445.339 139.563 445.339 140.719V140.719Z" fill="black"/>
</g>
<path id="Vector_14" d="M317.837 418.393C321.712 410.733 332.776 304.941 332.776 304.941C332.776 304.941 322.91 231.366 334.573 224.786C342.43 220.357 360.6 215.645 371.617 213.037C376.949 211.791 380.613 211.028 380.613 211.028C407.168 208.466 426.418 208.889 440.289 211.157C468.594 215.786 474.573 228.099 474.784 238.533C475.078 254.089 485.354 364.252 486.435 373.416C487.739 384.32 487.774 400.699 489.125 407.208C490.299 412.953 491.215 418.381 491.215 418.381L317.837 418.393Z" fill="#F8F7FC"/>
<path id="Vector_15" d="M406.546 380.055L398.853 418.381H414.251L406.546 380.055Z" fill="#529F91"/>
<path id="Vector_16" d="M360.987 334.15L412.336 345.041L438.293 339.296L442.99 354.559L362.714 373.217L360.987 334.15Z" fill="#E2E2F2"/>
<path id="Vector_17" d="M337.862 232.012C337.862 232.012 325.13 233.833 323.04 249.93C320.949 266.027 306.291 361.256 317.437 393.39C326.833 420.414 412.454 382.299 412.454 382.299L476.933 364.005L465.047 342.316L360.118 365.403C360.118 365.403 364.041 289.525 355.644 262.232C347.246 234.938 337.862 232.012 337.862 232.012Z" fill="#E2E2F2"/>
<g id="Vector_18" style="mix-blend-mode:darken">
<path d="M461.923 222.683C461.923 222.683 473.938 223 476.017 239.132C478.096 255.264 493.822 355.722 482.63 387.915C471.437 420.109 385.076 374.897 385.076 374.897L322.112 353.196L334.092 331.471L439.021 354.559C439.021 354.559 434.182 277.518 445.856 250.294C457.049 224.046 461.923 222.683 461.923 222.683Z" fill="#E2E2F2"/>
</g>
<path id="Vector_19" d="M489.724 353.184C489.641 355.839 489.524 358.424 489.359 360.903C488.772 369.527 487.598 376.976 485.672 382.557C478.037 404.494 435.967 392.956 409.94 383.38C408.237 382.745 406.581 382.123 405.031 381.523C395.518 377.846 389.128 374.862 389.128 374.862L326.176 353.16L338.061 331.471L442.99 354.559C442.99 354.559 437.4 277.588 445.798 250.294C454.195 223 461.888 218.101 461.888 218.101C461.888 218.101 477.979 223 480.069 239.097C481.702 251.598 490.933 311.838 489.724 353.184Z" fill="#F8F7FC"/>
<path id="Vector_20" d="M356.548 344.442C356.548 344.442 369.655 345.265 371.628 356.65L355.643 360.175L356.548 344.442Z" fill="#F4B799"/>
<path id="Vector_21" d="M436.625 211.098L405.524 304.095L375.081 212.249C380.414 211.004 380.613 211.075 380.613 211.075C407.168 208.513 422.742 208.83 436.625 211.098Z" fill="#529F91"/>
<path id="Vector_22" d="M405.372 235.537C402.978 235.521 400.61 235.035 398.405 234.104C396.199 233.173 394.198 231.817 392.517 230.113C390.835 228.409 389.505 226.39 388.603 224.172C387.702 221.953 387.245 219.579 387.261 217.184L387.449 188.116L423.858 188.351L423.67 217.431C423.636 222.257 421.691 226.873 418.261 230.267C414.831 233.66 410.196 235.556 405.372 235.537V235.537Z" fill="#F4B799"/>
<g id="Vector_23" style="mix-blend-mode:soft-light" opacity="0.6">
<path d="M387.402 195.589C393.095 198.557 399.477 199.95 405.888 199.624C412.3 199.298 418.508 197.264 423.87 193.732V198.702C423.87 198.702 403.21 210.182 387.402 195.589Z" fill="black"/>
</g>
<path id="Vector_24" d="M429.002 98.9379C409.999 77.789 374.823 87.5762 368.81 115.387C366.108 127.853 364.452 143.363 367.236 158.86C373.508 193.732 395.964 207.961 420.417 195.8C444.87 183.64 445.974 133.869 437.294 112.309C435.334 107.401 432.527 102.875 429.002 98.9379V98.9379Z" fill="#F4B799"/>
<path id="Vector_25" d="M380.613 211.039C380.613 211.039 379.368 245.113 402.33 246.288C425.291 247.462 429.343 222.178 431.375 210.005C414.579 206.674 397.26 207.027 380.613 211.039V211.039Z" fill="#F4B799"/>
<path id="Vector_26" d="M437.106 241.294C437.106 241.294 442.979 238.439 447.524 235.913C450.225 221.708 447.007 210.663 425.291 209.806C425.291 209.806 432.949 217.631 428.074 237.711C422.402 261.045 405.524 304.095 405.524 304.095C405.524 304.095 433.524 277.447 441.933 253.372C443.355 249.284 444.905 245.148 445.927 241.235L437.106 241.294Z" fill="#D4D2EA"/>
<path id="Vector_27" d="M437.106 239.943C437.106 239.943 441.804 237.287 446.349 234.761C449.051 220.556 445.774 209.594 424.034 208.736C424.034 208.736 431.727 216.174 426.853 236.254C421.192 259.6 405.83 303.543 405.83 303.543C405.83 303.543 432.984 276.037 441.358 251.963C442.779 247.874 444.106 243.832 445.14 239.943H437.106Z" fill="#F8F7FC"/>
<path id="Vector_28" d="M374.271 242.164C374.271 242.164 368.058 239.109 363.501 236.583C360.8 222.377 364.323 211.427 386.028 210.569C386.028 210.569 379.627 218.394 384.501 238.474C390.162 261.82 405.524 304.412 405.524 304.412C405.524 304.412 377.254 278.493 368.88 254.418C367.459 250.329 366.096 246.076 365.063 242.187L374.271 242.164Z" fill="#D4D2EA"/>
<path id="Vector_29" d="M374.271 240.812C374.271 240.812 369.573 238.157 365.028 235.631C362.326 221.426 365.603 210.464 387.343 209.606C387.343 209.606 379.65 217.043 384.524 237.123C390.185 260.469 405.548 304.412 405.548 304.412C405.548 304.412 378.393 276.907 370.019 252.832C368.598 248.743 367.271 244.701 366.237 240.812H374.271Z" fill="#F8F7FC"/>
<path id="Vector_30" d="M489.723 353.184C489.641 355.839 489.524 358.424 489.359 360.903C479.602 362.249 469.765 362.939 459.915 362.971C459.277 362.897 458.632 362.999 458.047 363.265C457.6 363.609 457.259 364.073 457.066 364.604C456.872 365.135 456.834 365.709 456.955 366.261C457.216 367.354 457.338 368.475 457.319 369.598C456.932 372.406 453.584 373.604 450.813 374.227L422.695 380.478C418.538 381.406 414.204 382.828 409.94 383.38L409.306 383.462C408.486 383.542 407.659 383.405 406.909 383.065C406.159 382.725 405.511 382.193 405.031 381.523C404.63 380.935 404.405 380.245 404.382 379.533C404.359 378.822 404.539 378.118 404.902 377.505C405.445 376.652 406.187 375.943 407.063 375.437C412.371 371.76 417.727 368.059 423.717 365.603C426.642 364.428 429.695 363.523 432.643 362.337C437.177 360.527 441.417 358.036 445.974 356.274C453.65 353.367 461.929 352.422 470.062 353.525C473.21 354.102 476.392 354.471 479.588 354.629C483.003 354.459 486.396 353.976 489.723 353.184Z" fill="#E2E2F2"/>
<path id="Vector_31" d="M501.468 350.752C500.858 348.296 493.388 350.951 489.324 351.586C485.26 352.22 484.391 351.833 484.779 351.316C485.166 350.799 493.294 348.002 497.041 347.015C500.787 346.028 506.765 344.607 506.014 342.01C505.262 339.414 499.343 341.293 494.269 342.492C489.195 343.69 484.661 346.017 484.227 344.842C483.792 343.667 501.926 337.028 503.242 336.453C504.557 335.877 508.938 334.267 508.222 332.047C507.505 329.826 503.524 330.872 501.433 331.506C499.343 332.141 493.658 334.032 488.995 335.924C484.333 337.816 482.853 338.462 482.406 337.769C481.96 337.075 492.037 331.177 495.772 329.145C499.507 327.112 502.431 324.316 500.47 322.424C498.509 320.532 491.767 325.056 487.75 327.37C483.734 329.685 476.769 333.692 473.656 334.643C470.544 335.595 467.948 337.064 467.69 335.372C467.62 334.984 467.537 334.69 467.49 334.502C467.173 333.327 468.277 330.39 469.475 328.44C470.673 326.489 470.509 323.164 469.781 321.237C469.052 319.31 467.432 318.547 465.963 323.305C464.188 328.303 461.258 332.812 457.413 336.464C454.43 338.991 452.292 340.353 452.457 344.595C452.457 345.981 423.388 354.993 419.066 356.145C414.744 357.296 422.225 374.403 425.643 373.158C429.061 371.912 457.542 358.224 459.539 359.505C461.536 360.786 463.438 361.032 469.757 360.257C472.905 359.858 478.883 358.706 483.851 357.672C483.851 357.672 493.247 355.757 496.77 354.664C500.294 353.572 502.044 353.207 501.468 350.752Z" fill="#F4B799"/>
<path id="Vector_32" d="M336.758 223.705C336.758 223.705 320.667 228.605 318.565 244.701C316.462 260.798 301.781 355.968 312.951 388.162C324.12 420.355 409.482 380.466 409.482 380.466L455.205 364.71L446.303 340.213L355.62 360.187C355.62 360.187 361.211 283.204 352.825 255.91C344.439 228.616 336.758 223.705 336.758 223.705Z" fill="#F8F7FC"/>
<path id="Vector_33" d="M405.747 318.347C408.128 318.347 410.058 316.416 410.058 314.035C410.058 311.653 408.128 309.723 405.747 309.723C403.367 309.723 401.437 311.653 401.437 314.035C401.437 316.416 403.367 318.347 405.747 318.347Z" fill="#D4D2EA"/>
<path id="Vector_34" d="M409.611 313.647C409.611 314.791 409.157 315.887 408.349 316.696C407.541 317.505 406.444 317.959 405.301 317.959C404.688 317.964 404.082 317.832 403.528 317.571C402.639 317.16 401.918 316.458 401.481 315.582C401.045 314.705 400.919 313.707 401.126 312.749C401.332 311.792 401.858 310.934 402.617 310.315C403.376 309.697 404.322 309.355 405.301 309.347H405.372C406.5 309.365 407.577 309.826 408.37 310.63C409.163 311.434 409.608 312.518 409.611 313.647V313.647Z" fill="#FBFBFD"/>
<path id="Vector_35" d="M405.301 316.549C406.91 316.549 408.214 315.245 408.214 313.635C408.214 312.026 406.91 310.721 405.301 310.721C403.692 310.721 402.388 312.026 402.388 313.635C402.388 315.245 403.692 316.549 405.301 316.549Z" fill="#D4D2EA"/>
<g id="Vector_36" style="mix-blend-mode:soft-light">
<path d="M409.611 313.647C409.611 314.791 409.157 315.887 408.349 316.696C407.541 317.505 406.444 317.959 405.301 317.959C404.688 317.964 404.082 317.832 403.527 317.571C403.643 317.248 403.857 316.969 404.138 316.772C404.504 316.532 404.899 316.338 405.313 316.197C406.201 315.924 407.008 315.435 407.662 314.775C407.973 314.442 408.175 314.021 408.24 313.569C408.305 313.117 408.231 312.657 408.026 312.249C407.88 312.025 407.706 311.819 407.509 311.638L406.194 310.322C405.851 310.053 405.568 309.717 405.36 309.335C406.493 309.35 407.574 309.812 408.37 310.619C409.165 311.426 409.611 312.514 409.611 313.647V313.647Z" fill="black"/>
</g>
<path id="Vector_37" d="M405.747 336.453C408.128 336.453 410.058 334.522 410.058 332.141C410.058 329.759 408.128 327.829 405.747 327.829C403.367 327.829 401.437 329.759 401.437 332.141C401.437 334.522 403.367 336.453 405.747 336.453Z" fill="#D4D2EA"/>
<path id="Vector_38" d="M409.611 331.765C409.611 332.331 409.5 332.892 409.283 333.415C409.067 333.938 408.749 334.413 408.349 334.814C407.949 335.214 407.474 335.532 406.951 335.748C406.428 335.965 405.867 336.077 405.301 336.077C404.689 336.077 404.084 335.944 403.528 335.689C402.639 335.277 401.918 334.576 401.481 333.699C401.045 332.823 400.919 331.824 401.126 330.867C401.332 329.91 401.858 329.051 402.617 328.433C403.376 327.815 404.322 327.473 405.301 327.464H405.372C406.499 327.486 407.574 327.948 408.367 328.751C409.159 329.555 409.605 330.636 409.611 331.765V331.765Z" fill="#FBFBFD"/>
<path id="Vector_39" d="M405.301 334.667C406.91 334.667 408.214 333.362 408.214 331.753C408.214 330.144 406.91 328.839 405.301 328.839C403.692 328.839 402.388 330.144 402.388 331.753C402.388 333.362 403.692 334.667 405.301 334.667Z" fill="#D4D2EA"/>
<g id="Vector_40" style="mix-blend-mode:soft-light">
<path d="M409.611 331.765C409.611 332.331 409.5 332.892 409.283 333.415C409.067 333.938 408.749 334.413 408.349 334.814C407.949 335.214 407.473 335.532 406.951 335.748C406.428 335.965 405.867 336.077 405.301 336.077C404.689 336.077 404.084 335.944 403.527 335.689C403.646 335.364 403.859 335.082 404.138 334.878C404.504 334.641 404.899 334.452 405.313 334.314C406.201 334.041 407.008 333.553 407.662 332.893C407.974 332.557 408.177 332.135 408.242 331.681C408.307 331.227 408.231 330.764 408.026 330.355C407.873 330.135 407.7 329.93 407.509 329.744L406.194 328.44C405.848 328.169 405.564 327.829 405.36 327.441C406.494 327.459 407.575 327.923 408.37 328.732C409.166 329.541 409.612 330.63 409.611 331.765Z" fill="black"/>
</g>
<g id="Vector_41" style="mix-blend-mode:soft-light" opacity="0.3">
<path d="M383.091 229.016L405.524 304.412C405.524 304.412 383.667 241.517 383.091 229.016Z" fill="black"/>
</g>
<g id="Vector_42" style="mix-blend-mode:soft-light" opacity="0.3">
<path d="M428.051 229.016L405.618 304.412C405.618 304.412 427.534 241.517 428.051 229.016Z" fill="black"/>
</g>
<path id="Vector_43" d="M444.834 270.115C444.834 271.742 444.352 273.332 443.449 274.685C442.546 276.037 441.261 277.091 439.759 277.714C438.257 278.336 436.604 278.499 435.009 278.182C433.414 277.865 431.949 277.081 430.8 275.931C429.65 274.781 428.867 273.315 428.55 271.72C428.232 270.125 428.395 268.471 429.017 266.968C429.64 265.465 430.693 264.181 432.045 263.277C433.397 262.373 434.987 261.891 436.613 261.891C437.062 261.894 437.51 261.933 437.952 262.008C439.873 262.325 441.619 263.314 442.88 264.799C444.14 266.284 444.833 268.168 444.834 270.115V270.115Z" fill="#B9B9B9"/>
<path id="Vector_44" d="M440.724 270.115C440.724 270.926 440.483 271.719 440.033 272.394C439.582 273.068 438.942 273.593 438.193 273.904C437.444 274.214 436.62 274.295 435.825 274.137C435.03 273.979 434.3 273.588 433.726 273.015C433.153 272.441 432.763 271.711 432.604 270.915C432.446 270.12 432.528 269.295 432.838 268.546C433.148 267.797 433.673 267.156 434.347 266.706C435.022 266.255 435.814 266.015 436.625 266.015C437.712 266.015 438.754 266.447 439.523 267.216C440.292 267.985 440.724 269.028 440.724 270.115Z" fill="#8A8988"/>
<g id="Vector_45" style="mix-blend-mode:soft-light" opacity="0.6">
<path d="M444.834 270.115C444.829 271.544 444.453 272.947 443.741 274.186C443.029 275.424 442.007 276.456 440.776 277.179C439.544 277.903 438.145 278.293 436.717 278.311C435.289 278.329 433.881 277.974 432.632 277.283C432.657 276.968 432.75 276.662 432.904 276.386C433.058 276.11 433.269 275.871 433.524 275.685C434.2 275.107 434.918 274.58 435.673 274.11C436.425 273.617 437.189 273.147 437.905 272.606C439.149 271.74 440.093 270.508 440.606 269.081C440.7 268.8 440.759 268.508 440.782 268.212C440.97 266.156 438.433 263.912 437.964 261.973C439.889 262.294 441.637 263.289 442.895 264.781C444.154 266.272 444.841 268.163 444.834 270.115V270.115Z" fill="black"/>
</g>
<g id="Vector_46" style="mix-blend-mode:soft-light">
<path d="M430.106 267.26C429.82 267.841 429.679 268.482 429.695 269.128C429.705 269.453 429.813 269.766 430.007 270.027C430.2 270.287 430.468 270.482 430.776 270.585C431.169 270.623 431.564 270.539 431.908 270.346C432.252 270.153 432.529 269.859 432.702 269.504C433.015 268.784 433.409 268.102 433.876 267.472C434.358 266.967 435.051 266.696 435.544 266.297C435.83 266.099 436.039 265.809 436.14 265.477C436.24 265.144 436.225 264.787 436.096 264.464C435.843 264.115 435.464 263.879 435.039 263.806C434.506 263.616 433.933 263.569 433.377 263.67C432.82 263.771 432.3 264.016 431.868 264.382C431.082 265.204 430.481 266.186 430.106 267.26V267.26Z" fill="white"/>
</g>
<path id="Vector_47" d="M387.872 276.061C387.681 281.947 386.998 287.807 385.828 293.579C385.627 295.016 384.929 296.337 383.857 297.313C382.784 298.289 381.404 298.86 379.955 298.925H379.638L378.123 298.831L378.229 297.033L379.744 297.127C380.806 297.111 381.826 296.709 382.613 295.995C383.399 295.282 383.899 294.306 384.019 293.25C385.175 287.565 385.835 281.79 385.992 275.99C386.063 269.41 385.053 262.69 381.471 258.366C378.781 255.135 374.799 253.502 369.643 253.502C367.3 253.405 364.963 253.823 362.798 254.727C360.633 255.63 358.692 256.996 357.112 258.73C353.482 262.784 351.721 268.647 350.946 274.463C350.284 280.232 350.284 286.059 350.946 291.828C350.985 292.773 351.363 293.673 352.009 294.363C352.656 295.053 353.529 295.488 354.469 295.588L357.899 295.788L357.793 297.586L354.363 297.386C353.008 297.247 351.746 296.633 350.8 295.653C349.854 294.672 349.286 293.388 349.196 292.028C348.523 286.173 348.523 280.259 349.196 274.404C349.994 268.224 351.873 261.938 355.808 257.544C357.55 255.609 359.695 254.081 362.091 253.065C364.488 252.05 367.078 251.574 369.679 251.669V251.669C375.398 251.669 379.838 253.525 382.892 257.191C386.85 261.997 387.942 269.128 387.872 276.061Z" fill="#B9B9B9"/>
<path id="Vector_48" d="M362.279 296.375C362.271 296.97 362.064 297.545 361.692 298.009C361.246 298.531 360.688 298.945 360.06 299.222C359.432 299.499 358.749 299.63 358.063 299.606C355.714 299.606 353.847 298.161 353.847 296.375C353.847 294.589 355.738 293.144 358.063 293.144C358.749 293.121 359.432 293.252 360.06 293.529C360.688 293.805 361.246 294.22 361.692 294.742C362.062 295.207 362.268 295.781 362.279 296.375V296.375Z" fill="#4F4F4F"/>
<path id="Vector_49" d="M362.279 296.375C362.271 296.97 362.064 297.545 361.692 298.009C361.32 297.545 361.118 296.969 361.118 296.375C361.118 295.781 361.32 295.205 361.692 294.742C362.062 295.207 362.268 295.781 362.279 296.375V296.375Z" fill="#3A3A3A"/>
<path id="Vector_50" d="M371.593 297.68C371.599 297.083 371.801 296.505 372.169 296.035C372.618 295.517 373.177 295.107 373.805 294.832C374.432 294.558 375.113 294.427 375.798 294.448C378.147 294.448 380.014 295.894 380.014 297.68C380.014 299.465 378.123 300.911 375.798 300.911C375.112 300.933 374.43 300.801 373.801 300.525C373.173 300.248 372.615 299.834 372.169 299.313C371.801 298.847 371.599 298.273 371.593 297.68V297.68Z" fill="#4F4F4F"/>
<path id="Vector_51" d="M371.593 297.68C371.599 297.083 371.801 296.505 372.169 296.035C372.539 296.504 372.746 297.082 372.756 297.68C372.745 298.274 372.539 298.848 372.169 299.313C371.801 298.847 371.599 298.273 371.593 297.68V297.68Z" fill="#3A3A3A"/>
<path id="Vector_52" d="M387.872 276.061L386.028 275.99C386.098 269.41 385.088 262.69 381.506 258.366C378.816 255.135 374.835 253.502 369.679 253.502C367.335 253.405 364.999 253.823 362.834 254.727C360.669 255.63 358.728 256.996 357.147 258.73C353.518 262.784 351.756 268.647 350.981 274.463L349.196 274.392C349.994 268.212 351.873 261.926 355.808 257.532C357.55 255.597 359.695 254.069 362.091 253.054C364.488 252.039 367.078 251.562 369.679 251.657V251.657C375.398 251.657 379.838 253.513 382.892 257.179C386.85 261.997 387.942 269.128 387.872 276.061Z" fill="#4F4F4F"/>
<path id="Vector_53" d="M372.709 252.585L370.466 252.433C371.722 233.692 374.811 220.345 379.627 212.766C383.408 206.821 386.932 206.645 387.32 206.645V208.901C387.226 208.901 375.575 209.982 372.709 252.585Z" fill="#4F4F4F"/>
<path id="Vector_54" d="M437.752 262.008L435.509 261.809C438.339 229.204 433.395 216.421 428.756 211.439C426.16 208.666 423.928 208.666 423.823 208.666L423.729 206.41C423.858 206.41 426.959 206.316 430.247 209.747C435.286 214.999 440.665 228.334 437.752 262.008Z" fill="#4F4F4F"/>
<path id="Vector_55" d="M418.749 171.303C418.749 171.303 403.539 174.757 389.269 171.937C389.269 171.937 392.065 184.956 404.291 184.662C415.813 184.392 418.655 173.829 418.749 171.303Z" fill="#B22828"/>
<path id="Vector_56" d="M403.821 177.871C394.425 178.07 391.583 174.24 390.35 172.137C401.425 174.076 410.316 172.583 418.009 171.455C417.222 173.829 412.677 177.683 403.821 177.871Z" fill="white"/>
<g id="Vector_57" style="mix-blend-mode:soft-light">
<path d="M405.207 143.421C404.843 146.793 404.385 150.4 402.118 152.915C400.662 154.536 398.524 155.641 397.773 157.685C397.482 158.704 397.496 159.785 397.813 160.796C398.13 161.807 398.737 162.702 399.558 163.372C401.23 164.681 403.236 165.495 405.348 165.722" stroke="black" stroke-width="1.15" stroke-linecap="round" stroke-linejoin="round"/>
</g>
<path id="Vector_58" d="M392.569 145.137C392.569 147.581 391.09 149.555 389.269 149.555C387.449 149.555 385.969 147.581 385.969 145.137C385.969 142.693 387.437 140.719 389.269 140.719C391.101 140.719 392.569 142.716 392.569 145.137Z" fill="#32324C"/>
<path id="Vector_59" d="M375.07 136.36C375.07 136.36 377.971 129.71 384.007 127.818C387.846 126.466 392.061 126.668 395.752 128.382C396.187 128.6 396.528 128.966 396.716 129.415C396.903 129.863 396.924 130.364 396.774 130.826V130.826C396.695 131.107 396.556 131.367 396.367 131.59C396.179 131.812 395.945 131.992 395.681 132.117C395.418 132.241 395.13 132.308 394.839 132.312C394.547 132.317 394.258 132.259 393.991 132.142C390.561 130.626 382.95 128.899 375.07 136.36Z" fill="#32324C"/>
<path id="Vector_60" d="M415.578 145.137C415.578 147.581 417.058 149.555 418.878 149.555C420.699 149.555 422.179 147.581 422.179 145.137C422.179 142.693 420.71 140.719 418.878 140.719C417.046 140.719 415.578 142.716 415.578 145.137Z" fill="#32324C"/>
<path id="Vector_61" d="M431.845 136.936C431.845 136.936 429.496 130.074 423.623 127.724C419.907 126.069 415.69 125.939 411.878 127.36C411.436 127.549 411.076 127.889 410.86 128.319C410.645 128.75 410.59 129.242 410.704 129.71V129.71C410.768 129.984 410.888 130.241 411.057 130.466C411.226 130.69 411.44 130.877 411.686 131.014C411.931 131.151 412.202 131.236 412.482 131.262C412.762 131.288 413.045 131.256 413.311 131.167C416.858 130.003 424.528 128.876 431.845 136.936Z" fill="#32324C"/>
<g id="Vector_62" style="mix-blend-mode:soft-light" opacity="0.3">
<path d="M372.239 106.011C372.239 106.011 387.508 124.516 440.054 121.509C440.054 121.509 438.797 114.247 436.672 111.404C436.672 111.404 384.195 102.909 372.239 106.011Z" fill="black"/>
</g>
<path id="Vector_63" d="M452.351 113.202C454.865 112.25 447.042 139.332 449.262 137.782C458.094 131.578 467.021 101.018 465.705 91.2068C465.348 87.7301 463.848 84.47 461.442 81.9365C458.944 79.6578 455.718 78.3418 452.339 78.2237C448.182 77.977 431.293 80.7381 430.694 87.165C431.739 75.8621 427.405 70.5866 416.412 69.3294C406.241 68.1544 395.564 67.9195 386.169 72.0553C379.028 75.2041 373.108 80.6911 367.94 86.6246C366.04 88.5032 364.629 90.8186 363.83 93.3687C361.128 104.707 383.914 111.31 391.372 113.848C403.981 118.147 417.37 119.674 430.623 118.325C438.056 117.562 445.36 115.84 452.351 113.202V113.202Z" fill="#32324C"/>
</g>
<g id="medic">
<path id="Vector_64" d="M707.028 186.303L685.374 256.629C684.666 258.929 685.956 261.369 688.256 262.078L730.258 275.02C732.558 275.729 734.997 274.438 735.705 272.138L757.359 201.812C758.067 199.511 756.777 197.071 754.477 196.362L712.475 183.42C710.175 182.711 707.736 184.002 707.028 186.303Z" fill="#57CC99"/>
<path id="Vector_65" d="M719.834 177.357L715.758 190.596L750.094 201.176L754.17 187.937L719.834 177.357Z" fill="#57CC99"/>
<path id="Vector_66" d="M746.384 212.11L710.601 201.083L696.996 245.269L732.78 256.295L746.384 212.11Z" fill="#DEEFFF"/>
<path id="Vector_67" d="M729.009 217.934L721.422 215.596L714.033 239.592L721.621 241.93L729.009 217.934Z" fill="#529F91"/>
<path id="Vector_68" d="M732.348 236.205L734.685 228.614L710.698 221.223L708.361 228.814L732.348 236.205Z" fill="#529F91"/>
<g id="Vector_69" style="mix-blend-mode:soft-light" opacity="0.6">
<path d="M757.333 201.774L735.687 272.095C735.52 272.643 735.246 273.153 734.881 273.595C734.516 274.036 734.068 274.402 733.562 274.671C733.055 274.939 732.501 275.105 731.931 275.159C731.361 275.213 730.785 275.154 730.238 274.985L693.688 263.729C694.862 262.719 696.325 262.106 697.869 261.979C704.422 261.074 711 262.919 717.6 263.365C724.201 263.812 731.694 262.343 735.347 256.844C736.545 254.843 737.436 252.672 737.989 250.405C741.904 237.277 745.428 224.051 748.56 210.728C749.43 207.551 749.95 204.289 750.11 200.999C750.11 200.447 750.11 199.895 750.11 199.354C750.053 197.669 749.585 196.023 748.748 194.56C748.462 194.092 748.11 193.669 747.702 193.303C746.58 192.414 745.296 191.751 743.92 191.353C735.511 188.298 727.137 185.032 718.657 182.2L718.364 182.106L719.843 177.324L754.174 187.898L751.825 195.5L754.467 196.311C755.57 196.657 756.491 197.426 757.028 198.451C757.566 199.475 757.675 200.67 757.333 201.774Z" fill="black"/>
</g>
<path id="Vector_70" d="M758.083 181.859L719.774 170.055C718.664 169.713 717.488 170.335 717.146 171.446L715.165 177.88C714.823 178.99 715.446 180.167 716.555 180.509L754.864 192.313C755.974 192.655 757.151 192.033 757.492 190.922L759.474 184.488C759.815 183.378 759.193 182.201 758.083 181.859Z" fill="#32324C"/>
</g>
<g id="degree">
<path id="Vector_71" d="M81.4935 153.704C82.9765 146.184 78.0866 138.887 70.5715 137.405C63.0564 135.923 55.7621 140.818 54.2791 148.337C52.7961 155.857 57.686 163.154 65.2011 164.636C72.7161 166.118 80.0105 161.223 81.4935 153.704Z" fill="#22577A"/>
<path id="Vector_72" d="M73.2039 152.787L63.0529 152.154L67.9585 76.7076C68.0474 75.3604 68.6668 74.1034 69.6807 73.2122C70.6947 72.3209 72.0205 71.8682 73.3674 71.9532V71.9532C74.7085 72.0444 75.9592 72.6616 76.8473 73.6707C77.7354 74.6798 78.189 75.999 78.1094 77.3413L73.2039 152.787Z" fill="#22577A"/>
<path id="Vector_73" d="M71.7793 147.199L65.3515 146.789L68.8144 93.7578C68.8411 93.3355 68.9509 92.9226 69.1373 92.5428C69.3237 92.1629 69.5831 91.8235 69.9007 91.5439C70.2184 91.2644 70.5879 91.0502 70.9883 90.9137C71.3887 90.7771 71.8121 90.7208 72.2342 90.7481V90.7481C73.0857 90.805 73.88 91.1966 74.4435 91.8374C75.0071 92.4782 75.2943 93.3162 75.2422 94.1682L71.7793 147.199Z" fill="#529F91"/>
<path id="Vector_74" d="M77.2073 151.164C77.5345 146.145 73.6707 141.808 68.5771 141.477C63.4836 141.145 59.0891 144.946 58.7618 149.965C58.4346 154.983 62.2984 159.321 67.392 159.652C72.4855 159.983 76.88 156.183 77.2073 151.164Z" fill="#529F91"/>
<path id="Vector_75" d="M76.6125 83.2746L73.1471 83.0526C73.0703 83.0487 72.9951 83.0295 72.9259 82.996C72.8567 82.9626 72.7949 82.9156 72.7441 82.8579C72.6934 82.8002 72.6547 82.7329 72.6304 82.6599C72.606 82.587 72.5966 82.5099 72.6025 82.4333V82.4333C72.6055 82.3573 72.6238 82.2827 72.6563 82.214C72.6888 82.1453 72.7349 82.0839 72.7917 82.0335C72.8486 81.983 72.915 81.9446 72.9871 81.9204C73.0591 81.8963 73.1353 81.887 73.211 81.8931L76.6919 82.121C76.7678 82.124 76.8423 82.1423 76.911 82.1748C76.9797 82.2073 77.0411 82.2534 77.0915 82.3102C77.1419 82.3671 77.1803 82.4335 77.2044 82.5056C77.2285 82.5777 77.2378 82.6539 77.2317 82.7296C77.2208 82.8836 77.1496 83.0271 77.0338 83.1291C76.9179 83.2311 76.7665 83.2833 76.6125 83.2746V83.2746Z" fill="#32324C"/>
<path id="Vector_76" d="M76.2171 89.132L74.0885 88.9976C73.9346 88.9867 73.7912 88.9156 73.6892 88.7997C73.5873 88.6838 73.5351 88.5324 73.5439 88.3783V88.3783C73.5531 88.226 73.6224 88.0835 73.7365 87.9823C73.8506 87.881 74.0002 87.8291 74.1524 87.8381L76.2858 87.9833C76.3617 87.9862 76.4363 88.0045 76.5049 88.037C76.5736 88.0695 76.635 88.1156 76.6854 88.1724C76.7359 88.2293 76.7743 88.2957 76.7984 88.3678C76.8225 88.4399 76.8317 88.5161 76.8257 88.5918V88.5918C76.8227 88.6678 76.8044 88.7423 76.7719 88.811C76.7393 88.8798 76.6933 88.9412 76.6364 88.9916C76.5796 89.0421 76.5132 89.0805 76.4411 89.1046C76.369 89.1288 76.2929 89.1381 76.2171 89.132Z" fill="#32324C"/>
<path id="Vector_77" d="M75.854 94.975L72.3779 94.7578C72.2251 94.744 72.0834 94.672 71.9821 94.5568C71.8807 94.4416 71.8275 94.2918 71.8333 94.1384V94.1384C71.8443 93.9845 71.9154 93.841 72.0313 93.739C72.1471 93.637 72.2985 93.5848 72.4526 93.5935L75.9334 93.8215C76.0857 93.8306 76.228 93.8999 76.3293 94.014C76.4305 94.1281 76.4823 94.2777 76.4732 94.43V94.43C76.4623 94.584 76.3912 94.7275 76.2753 94.8295C76.1594 94.9315 76.008 94.9837 75.854 94.975Z" fill="#32324C"/>
<path id="Vector_78" d="M75.4694 100.828L73.3408 100.693C73.2645 100.688 73.19 100.668 73.1217 100.633C73.0534 100.599 72.9926 100.551 72.9429 100.493C72.8932 100.435 72.8556 100.368 72.8323 100.295C72.8089 100.222 72.8003 100.145 72.8069 100.069C72.8161 99.9169 72.8853 99.7744 72.9995 99.6731C73.1136 99.5718 73.2632 99.52 73.4154 99.529L75.5488 99.6741C75.6247 99.6771 75.6993 99.6954 75.7679 99.7279C75.8366 99.7604 75.898 99.8065 75.9484 99.8633C75.9988 99.9201 76.0373 99.9866 76.0614 100.059C76.0854 100.131 76.0947 100.207 76.0886 100.283C76.0864 100.36 76.0683 100.436 76.0354 100.506C76.0025 100.576 75.9555 100.639 75.8974 100.69C75.8393 100.741 75.7714 100.78 75.6977 100.803C75.6241 100.827 75.5463 100.835 75.4694 100.828V100.828Z" fill="#32324C"/>
<path id="Vector_79" d="M75.0955 106.675L71.6194 106.458C71.4666 106.444 71.3249 106.372 71.2236 106.257C71.1222 106.142 71.069 105.992 71.0748 105.839V105.839C71.0886 105.686 71.1606 105.544 71.2758 105.443C71.391 105.341 71.5407 105.288 71.6941 105.294L75.1749 105.522C75.3272 105.531 75.4695 105.6 75.5708 105.714C75.672 105.828 75.7238 105.978 75.7147 106.13C75.7108 106.207 75.6916 106.282 75.6582 106.352C75.6247 106.421 75.5778 106.483 75.52 106.534C75.4623 106.584 75.395 106.623 75.3221 106.647C75.2492 106.672 75.1721 106.681 75.0955 106.675V106.675Z" fill="#32324C"/>
<path id="Vector_80" d="M74.7109 112.528L72.5823 112.394C72.4295 112.38 72.2878 112.308 72.1864 112.193C72.0851 112.077 72.0319 111.928 72.0377 111.774C72.0515 111.621 72.1234 111.48 72.2387 111.378C72.3539 111.277 72.5036 111.224 72.6569 111.229L74.7903 111.375C74.8671 111.378 74.9423 111.398 75.0115 111.431C75.0807 111.465 75.1425 111.511 75.1933 111.569C75.244 111.627 75.2827 111.694 75.307 111.767C75.3314 111.84 75.3408 111.917 75.3349 111.994V111.994C75.3296 112.07 75.3093 112.145 75.2749 112.213C75.2406 112.281 75.193 112.342 75.1349 112.392C75.0768 112.442 75.0094 112.479 74.9366 112.503C74.8638 112.526 74.787 112.535 74.7109 112.528V112.528Z" fill="#32324C"/>
<path id="Vector_81" d="M74.337 118.376L70.8609 118.159C70.707 118.148 70.5636 118.077 70.4616 117.961C70.3597 117.845 70.3075 117.693 70.3163 117.539C70.3301 117.386 70.4021 117.245 70.5173 117.143C70.6325 117.042 70.7823 116.989 70.9356 116.994L74.4164 117.222C74.4927 117.228 74.5672 117.248 74.6355 117.282C74.7038 117.317 74.7646 117.364 74.8143 117.422C74.864 117.48 74.9016 117.548 74.9249 117.621C74.9483 117.693 74.9569 117.77 74.9503 117.846V117.846C74.946 117.922 74.9265 117.996 74.8931 118.063C74.8596 118.131 74.8129 118.192 74.7557 118.241C74.6985 118.29 74.632 118.328 74.56 118.351C74.4881 118.374 74.4123 118.383 74.337 118.376Z" fill="#32324C"/>
<path id="Vector_82" d="M73.9333 124.186L71.8047 124.051C71.6519 124.037 71.5102 123.965 71.4089 123.85C71.3076 123.735 71.2543 123.585 71.2601 123.432V123.432C71.2654 123.356 71.2858 123.281 71.3201 123.213C71.3545 123.144 71.4021 123.084 71.4602 123.034C71.5183 122.984 71.5857 122.946 71.6585 122.923C71.7313 122.9 71.808 122.891 71.8842 122.898L74.0128 123.032C74.1667 123.043 74.3101 123.114 74.412 123.23C74.514 123.346 74.5662 123.497 74.5574 123.651C74.5521 123.728 74.5317 123.802 74.4974 123.87C74.463 123.939 74.4154 124 74.3573 124.049C74.2992 124.099 74.2318 124.137 74.159 124.16C74.0862 124.183 74.0095 124.192 73.9333 124.186V124.186Z" fill="#32324C"/>
<path id="Vector_83" d="M73.5678 130.081L70.1024 129.859C69.9485 129.848 69.8051 129.777 69.7031 129.661C69.6012 129.545 69.549 129.394 69.5578 129.24V129.24C69.5717 129.087 69.6436 128.945 69.7588 128.844C69.874 128.742 70.0238 128.689 70.1771 128.695L73.6472 128.927C73.8011 128.938 73.9446 129.01 74.0465 129.125C74.1484 129.241 74.2006 129.393 74.1918 129.547V129.547C74.1866 129.623 74.1662 129.698 74.1318 129.766C74.0975 129.834 74.0499 129.895 73.9918 129.945C73.9337 129.995 73.8663 130.032 73.7935 130.056C73.7207 130.079 73.6439 130.088 73.5678 130.081V130.081Z" fill="#32324C"/>
<path id="Vector_84" d="M73.1987 135.94L71.0463 135.752C70.9695 135.748 70.8943 135.728 70.8251 135.695C70.7558 135.662 70.694 135.615 70.6433 135.557C70.5925 135.499 70.5538 135.432 70.5295 135.359C70.5052 135.286 70.4957 135.209 70.5017 135.132V135.132C70.5069 135.056 70.5273 134.981 70.5616 134.913C70.596 134.845 70.6436 134.784 70.7017 134.734C70.7598 134.684 70.8272 134.647 70.9 134.623C70.9728 134.6 71.0495 134.591 71.1257 134.598L73.3222 134.741C73.4751 134.755 73.6167 134.827 73.7181 134.942C73.8194 135.057 73.8727 135.207 73.8668 135.36V135.36C73.8646 135.443 73.8452 135.525 73.8096 135.6C73.7741 135.676 73.7232 135.743 73.6604 135.797C73.5975 135.852 73.524 135.892 73.4445 135.917C73.365 135.942 73.2813 135.949 73.1987 135.94Z" fill="#32324C"/>
</g>
<g id="pill">
<path id="Vector_85" d="M107.771 266.478C107.19 267.714 106.447 268.867 105.563 269.908C105.387 270.12 105.199 270.331 105.011 270.519C102.748 272.914 99.7866 274.531 96.5496 275.141C93.3126 275.75 89.9658 275.32 86.9877 273.913C84.0095 272.505 81.5523 270.192 79.9672 267.303C78.3822 264.415 77.7504 261.099 78.1622 257.83V257.83C78.1622 257.56 78.2326 257.289 78.2913 257.019C78.5291 255.673 78.9478 254.364 79.5363 253.13C80.0333 252.07 80.6479 251.069 81.3685 250.146L81.897 249.511C84.1364 246.958 87.146 245.203 90.4706 244.513C93.7953 243.823 97.2543 244.234 100.325 245.685C103.395 247.135 105.909 249.547 107.488 252.554C109.067 255.561 109.624 259.001 109.075 262.353V262.353C109.075 262.624 108.969 262.894 108.91 263.164C108.666 264.311 108.283 265.423 107.771 266.478Z" fill="#38A3A5"/>
<g id="Vector_86" style="mix-blend-mode:soft-light" opacity="0.6">
<path d="M107.771 266.478C107.19 267.714 106.447 268.867 105.563 269.908C105.387 270.12 105.199 270.331 105.011 270.519L78.1504 257.83C78.1504 257.56 78.2209 257.289 78.2796 257.019C78.5173 255.673 78.9361 254.364 79.5246 253.13C80.0216 252.07 80.6362 251.069 81.3568 250.146L81.8853 249.511L109.063 262.353C109.063 262.624 108.957 262.894 108.899 263.164C108.658 264.31 108.279 265.423 107.771 266.478Z" fill="black"/>
</g>
<g id="Vector_87" style="mix-blend-mode:soft-light" opacity="0.2">
<path d="M108.899 263.164L81.4155 250.146L81.944 249.511L109.122 262.353C109.016 262.624 108.957 262.894 108.899 263.164Z" fill="black"/>
</g>
<g id="Vector_88" style="mix-blend-mode:soft-light" opacity="0.2">
<path d="M105.563 269.908C105.387 270.12 105.199 270.331 105.011 270.519L78.1621 257.83C78.1621 257.56 78.2326 257.289 78.2913 257.019L105.563 269.908Z" fill="black"/>
</g>
</g>
<g id="capsulate">
<path id="Vector_89" d="M88.0293 357.673L67.6636 370.867C64.6108 372.845 60.8976 373.529 57.3407 372.769C53.7837 372.009 50.6741 369.867 48.6956 366.814V366.814C46.7184 363.76 46.0346 360.045 46.7944 356.487C47.5543 352.929 49.6956 349.818 52.7476 347.839L73.1133 334.644L88.0293 357.673Z" fill="#57CC99"/>
<path id="Vector_90" d="M110.309 326.866C112.287 329.92 112.97 333.634 112.211 337.193C111.451 340.751 109.309 343.862 106.257 345.841L85.8917 359.048L70.9757 336.007L91.3414 322.812C94.3943 320.834 98.1074 320.15 101.664 320.91C105.221 321.67 108.331 323.813 110.309 326.866V326.866Z" fill="#38A3A5"/>
<path id="Vector_91" d="M72.0325 335.342L69.7753 336.805L84.7323 359.899L86.9895 358.436L72.0325 335.342Z" fill="#529F91"/>
<g id="Vector_92" style="mix-blend-mode:soft-light" opacity="0.3">
<path d="M110.309 326.866C112.287 329.92 112.97 333.634 112.211 337.193C111.451 340.751 109.309 343.862 106.257 345.841L87.4656 358.061C87.1857 357.717 86.9851 357.316 86.8783 356.886C86.7031 355.573 86.9763 354.24 87.6535 353.102C89.664 348.891 92.3014 345.008 95.4756 341.588C97.437 339.461 99.7273 337.299 100.174 334.444C100.784 330.696 98.0008 327.395 94.8649 325.75C93.4437 325.021 91.1417 324.739 89.6619 323.952L91.3766 322.777C94.4309 320.814 98.1388 320.141 101.688 320.908C105.236 321.674 108.337 323.817 110.309 326.866V326.866Z" fill="black"/>
</g>
<g id="Vector_93" style="mix-blend-mode:soft-light" opacity="0.3">
<path d="M48.7426 358.049C48.8249 360.818 49.8434 363.477 51.6318 365.592C51.9598 366.019 52.3568 366.388 52.8063 366.685C53.3493 366.962 53.9469 367.115 54.5562 367.133C55.1655 367.152 55.7712 367.034 56.3298 366.79C56.8529 366.641 57.3192 366.338 57.6687 365.921C57.8699 365.592 57.9869 365.218 58.0095 364.833C58.032 364.447 57.9593 364.063 57.7979 363.712C57.4656 363.015 57.0516 362.361 56.5647 361.762C56.0432 361.019 55.5874 360.233 55.2023 359.412C54.9612 358.964 54.836 358.463 54.8382 357.955C54.9204 356.956 55.8483 356.263 56.6939 355.722L59.4305 353.948C60.2409 353.408 61.157 352.703 61.11 351.728C61.0596 351.251 60.8385 350.808 60.4875 350.482C59.9328 349.959 59.259 349.578 58.5244 349.373C57.7898 349.169 57.0164 349.146 56.2711 349.307C54.1972 349.664 52.3118 350.731 50.9383 352.326C49.5647 353.921 48.7885 355.944 48.7426 358.049V358.049Z" fill="white"/>
</g>
</g>
<g id="vaccine">
<path id="Vector_94" d="M733.34 118.884L733.12 120.197L721.094 94.3986L721.775 94.0788L733.34 118.884Z" fill="#32324C"/>
<path id="Vector_95" d="M693.359 19.7461L682.491 24.8164L687.862 36.3379L698.73 31.2676L693.359 19.7461Z" fill="#22577A"/>
<path id="Vector_96" d="M695.724 15.8382L677.969 24.1213L679.403 27.1986L697.158 18.9155L695.724 15.8382Z" fill="#32324C"/>
<path id="Vector_97" d="M703.989 32.3892L685.329 41.0947L711.747 97.7654L730.407 89.0599L703.989 32.3892Z" fill="#22577A"/>
<path id="Vector_98" d="M727.675 90.3256L714.476 96.4834L715.891 99.5181L729.09 93.3603L727.675 90.3256Z" fill="#22577A"/>
<g id="Vector_99" style="mix-blend-mode:soft-light" opacity="0.6">
<path d="M727.675 90.3299L714.476 96.4876L714.769 97.1159L727.968 90.9582L727.675 90.3299Z" fill="black"/>
</g>
<g id="Vector_100" style="mix-blend-mode:soft-light" opacity="0.6">
<path d="M693.729 20.505L682.851 25.5802L683.054 26.0167L693.933 20.9416L693.729 20.505Z" fill="black"/>
</g>
<g id="Vector_101" style="mix-blend-mode:soft-light" opacity="0.6">
<path d="M698.51 30.7793L687.632 35.8544L687.835 36.291L698.714 31.2159L698.51 30.7793Z" fill="black"/>
</g>
<path id="Vector_102" d="M714.473 59.4281L699.273 66.5196L712.501 94.8974L727.702 87.8059L714.473 59.4281Z" fill="#529F91"/>
<path id="Vector_103" d="M710.954 52.0197L708.644 53.0833C708.595 53.1063 708.541 53.1193 708.487 53.1216C708.433 53.1238 708.378 53.1153 708.327 53.0965C708.276 53.0776 708.23 53.0489 708.19 53.0118C708.15 52.9748 708.118 52.9302 708.095 52.8807V52.8807C708.049 52.7795 708.043 52.6639 708.081 52.5589C708.119 52.454 708.197 52.3683 708.298 52.3204L710.608 51.2686C710.658 51.2456 710.711 51.2325 710.765 51.2303C710.82 51.228 710.874 51.2365 710.925 51.2554C710.976 51.2742 711.023 51.303 711.062 51.34C711.102 51.3771 711.134 51.4216 711.157 51.4712C711.18 51.5204 711.193 51.5738 711.195 51.6281C711.197 51.6825 711.189 51.7367 711.17 51.7877C711.151 51.8387 711.122 51.8855 711.085 51.9253C711.048 51.9651 711.004 51.9972 710.954 52.0197V52.0197Z" fill="#22577A"/>
<path id="Vector_104" d="M712.733 55.8441L711.335 56.4968C711.234 56.5407 711.119 56.5443 711.015 56.5067C710.911 56.4692 710.825 56.3933 710.775 56.2946V56.2946C710.732 56.1916 710.73 56.0759 710.77 55.9714C710.81 55.867 710.888 55.782 710.989 55.7339L712.375 55.0934C712.477 55.0464 712.592 55.0413 712.697 55.0791C712.802 55.117 712.888 55.1948 712.935 55.2956V55.2956C712.958 55.3448 712.971 55.3982 712.974 55.4525C712.976 55.5068 712.967 55.5611 712.949 55.6121C712.93 55.6631 712.901 55.7099 712.864 55.7497C712.827 55.7895 712.782 55.8216 712.733 55.8441V55.8441Z" fill="#32324C"/>
<path id="Vector_105" d="M714.5 59.6689L712.189 60.7325C712.14 60.7555 712.087 60.7685 712.033 60.7708C711.978 60.7731 711.924 60.7645 711.873 60.7457C711.822 60.7268 711.775 60.6981 711.735 60.661C711.696 60.624 711.664 60.5794 711.641 60.5299V60.5299C711.594 60.4287 711.589 60.3131 711.627 60.2081C711.665 60.1032 711.743 60.0175 711.843 59.9696L714.154 58.9178C714.203 58.8948 714.257 58.8818 714.311 58.8795C714.365 58.8772 714.42 58.8858 714.471 58.9046C714.522 58.9234 714.568 58.9522 714.608 58.9892C714.648 59.0263 714.68 59.0709 714.702 59.1204C714.725 59.1696 714.739 59.223 714.741 59.2773C714.743 59.3317 714.734 59.3859 714.716 59.4369C714.697 59.4879 714.668 59.5347 714.631 59.5745C714.594 59.6144 714.549 59.6464 714.5 59.6689V59.6689Z" fill="#32324C"/>
<path id="Vector_106" d="M716.279 63.4933L714.881 64.146C714.832 64.169 714.778 64.182 714.724 64.1843C714.67 64.1866 714.616 64.178 714.565 64.1592C714.514 64.1403 714.467 64.1116 714.427 64.0745C714.387 64.0375 714.355 63.9929 714.333 63.9434C714.286 63.8422 714.281 63.7266 714.318 63.6216C714.356 63.5167 714.434 63.431 714.535 63.3831L715.921 62.7426C716.022 62.6956 716.138 62.6905 716.243 62.7284C716.348 62.7662 716.433 62.844 716.481 62.9448V62.9448C716.504 62.994 716.517 63.0474 716.519 63.1017C716.522 63.1561 716.513 63.2103 716.494 63.2613C716.475 63.3123 716.447 63.3591 716.41 63.3989C716.373 63.4387 716.328 63.4708 716.279 63.4933Z" fill="#32324C"/>
<path id="Vector_107" d="M718.046 67.3299L715.735 68.3817C715.686 68.4047 715.632 68.4177 715.578 68.42C715.524 68.4222 715.47 68.4137 715.419 68.3949C715.368 68.376 715.321 68.3473 715.281 68.3102C715.241 68.2732 715.209 68.2286 715.187 68.1791C715.14 68.0779 715.135 67.9623 715.172 67.8573C715.21 67.7524 715.288 67.6667 715.389 67.6188L717.7 66.567C717.749 66.544 717.802 66.5309 717.857 66.5287C717.911 66.5264 717.965 66.5349 718.016 66.5538C718.067 66.5726 718.114 66.6014 718.154 66.6384C718.194 66.6755 718.226 66.7201 718.248 66.7696V66.7696C718.295 66.8707 718.3 66.9864 718.262 67.0913C718.224 67.1963 718.147 67.282 718.046 67.3299V67.3299Z" fill="#32324C"/>
<path id="Vector_108" d="M719.825 71.1542L718.427 71.7952C718.378 71.8182 718.324 71.8312 718.27 71.8335C718.216 71.8357 718.161 71.8272 718.11 71.8084C718.059 71.7895 718.013 71.7608 717.973 71.7237C717.933 71.6867 717.901 71.6421 717.878 71.5926C717.831 71.4914 717.826 71.3758 717.864 71.2708C717.902 71.1659 717.98 71.0802 718.08 71.0323L719.467 70.3918C719.568 70.3448 719.683 70.3397 719.788 70.3775C719.893 70.4154 719.979 70.4932 720.027 70.594C720.071 70.6955 720.074 70.81 720.037 70.9142C719.999 71.0183 719.923 71.1041 719.825 71.1542V71.1542Z" fill="#32324C"/>
<path id="Vector_109" d="M721.615 74.9782L719.304 76.03C719.203 76.077 719.087 76.0821 718.983 76.0443C718.878 76.0064 718.792 75.9286 718.744 75.8279V75.8279C718.697 75.7267 718.692 75.611 718.73 75.5061C718.768 75.4012 718.845 75.3154 718.946 75.2676L721.257 74.2157C721.306 74.1927 721.36 74.1797 721.414 74.1774C721.468 74.1752 721.523 74.1837 721.574 74.2025C721.625 74.2214 721.671 74.2502 721.711 74.2872C721.751 74.3242 721.783 74.3688 721.805 74.4183V74.4183C721.853 74.518 721.86 74.6324 721.824 74.737C721.789 74.8417 721.714 74.9282 721.615 74.9782V74.9782Z" fill="#32324C"/>
<path id="Vector_110" d="M723.37 78.8034L721.972 79.4444C721.923 79.4674 721.87 79.4804 721.815 79.4827C721.761 79.485 721.707 79.4764 721.656 79.4576C721.605 79.4387 721.558 79.41 721.518 79.3729C721.479 79.3359 721.446 79.2913 721.424 79.2418V79.2418C721.401 79.1925 721.388 79.1392 721.386 79.0848C721.383 79.0305 721.392 78.9762 721.411 78.9252C721.43 78.8742 721.458 78.8274 721.495 78.7876C721.532 78.7478 721.577 78.7157 721.627 78.6932L723.012 78.041C723.114 77.9971 723.228 77.9935 723.332 78.0311C723.436 78.0686 723.522 78.1445 723.572 78.2432V78.2432C723.616 78.3447 723.62 78.4592 723.582 78.5634C723.545 78.6675 723.469 78.7533 723.37 78.8034V78.8034Z" fill="#32324C"/>
<path id="Vector_111" d="M725.137 82.6282L722.826 83.6801C722.725 83.7271 722.61 83.7322 722.505 83.6943C722.4 83.6565 722.314 83.5787 722.266 83.4779V83.4779C722.243 83.4286 722.23 83.3753 722.228 83.321C722.226 83.2666 722.234 83.2124 722.253 83.1614C722.272 83.1104 722.301 83.0636 722.338 83.0238C722.375 82.9839 722.419 82.9519 722.469 82.9294L724.779 81.8658C724.828 81.8428 724.882 81.8298 724.936 81.8275C724.99 81.8253 725.045 81.8338 725.096 81.8526C725.147 81.8715 725.193 81.9002 725.233 81.9373C725.273 81.9743 725.305 82.0189 725.327 82.0684C725.375 82.1681 725.382 82.2825 725.346 82.3871C725.311 82.4917 725.236 82.5783 725.137 82.6282V82.6282Z" fill="#32324C"/>
<path id="Vector_112" d="M726.916 86.4644L725.518 87.1053C725.469 87.1283 725.416 87.1413 725.362 87.1436C725.307 87.1459 725.253 87.1373 725.202 87.1185C725.151 87.0997 725.104 87.0709 725.064 87.0338C725.025 86.9968 724.993 86.9522 724.97 86.9027C724.947 86.8534 724.934 86.8001 724.932 86.7457C724.93 86.6914 724.938 86.6372 724.957 86.5862C724.976 86.5351 725.005 86.4884 725.042 86.4485C725.079 86.4087 725.123 86.3766 725.173 86.3542L726.558 85.7019C726.66 85.658 726.774 85.6544 726.878 85.692C726.982 85.7295 727.068 85.8054 727.118 85.9041V85.9041C727.162 86.0057 727.166 86.1202 727.128 86.2243C727.091 86.3284 727.015 86.4142 726.916 86.4644V86.4644Z" fill="#32324C"/>
<g id="Vector_113" style="mix-blend-mode:soft-light" opacity="0.6">
<path d="M703.993 32.3899L730.398 89.0007L717.127 95.1951C716.615 94.5931 716.298 93.8496 716.218 93.0631C716.138 92.2767 716.298 91.4844 716.678 90.7913C717.34 89.32 718.481 88.1126 719.25 86.7078C720.474 84.205 720.81 81.3601 720.202 78.6411C719.583 75.9554 718.665 73.3478 717.463 70.8674C714.23 63.5121 710.998 56.1569 707.765 48.8017C706.195 45.2046 704.126 41.1796 700.306 40.2429C695.846 39.1541 691.018 43.2762 686.708 43.9806L685.327 41.0348L703.993 32.3899Z" fill="black"/>
</g>
<path id="Vector_114" d="M704.94 28.3124L681.607 39.1977L683.538 43.3398L706.871 32.4545L704.94 28.3124Z" fill="#32324C"/>
</g>
<g id="heal">
<path id="Vector_115" d="M253.568 16.8615L293.078 59.5237C293.458 59.9349 293.753 60.4169 293.947 60.9424C294.141 61.4678 294.23 62.0264 294.208 62.5861C294.186 63.1458 294.054 63.6957 293.82 64.2045C293.586 64.7132 293.254 65.1708 292.843 65.5511L280.757 76.7483C279.927 77.5151 278.828 77.922 277.699 77.8802C276.57 77.8384 275.503 77.3512 274.732 76.5251L235.257 33.8512C234.876 33.4407 234.579 32.9589 234.384 32.4333C234.189 31.9077 234.1 31.3487 234.122 30.7886C234.144 30.2284 234.276 29.6781 234.511 29.1693C234.746 28.6605 235.08 28.2032 235.492 27.8237L247.578 16.6265C248.405 15.8663 249.499 15.4643 250.621 15.5083C251.743 15.5523 252.803 16.0388 253.568 16.8615V16.8615Z" fill="#38A3A5"/>
<path id="Vector_116" d="M261.515 34.8644L252.759 42.9752C251.284 44.3419 251.195 46.6464 252.562 48.1224L261.3 57.5623C262.666 59.0383 264.97 59.1268 266.445 57.76L275.2 49.6492C276.676 48.2825 276.764 45.978 275.398 44.502L266.66 35.0621C265.294 33.5862 262.99 33.4976 261.515 34.8644Z" fill="#22577A"/>
<path id="Vector_117" d="M239.826 31.4308C239.956 31.6613 240.004 31.9288 239.963 32.1901C239.922 32.4514 239.794 32.6911 239.599 32.8705C239.405 33.0499 239.156 33.1585 238.892 33.1787C238.629 33.1989 238.366 33.1295 238.147 32.9817C238 32.8827 237.877 32.7516 237.788 32.5984C237.698 32.4451 237.645 32.2736 237.632 32.0968C237.618 31.92 237.645 31.7424 237.71 31.5774C237.774 31.4123 237.876 31.2641 238.006 31.1438C238.136 31.0236 238.292 30.9343 238.462 30.8828C238.631 30.8314 238.81 30.819 238.986 30.8466C239.161 30.8742 239.327 30.9411 239.473 31.0423C239.618 31.1434 239.739 31.2763 239.826 31.4308Z" fill="#DEEFFF"/>
<path id="Vector_118" d="M243.115 28.3289C243.323 28.5475 243.439 28.8378 243.439 29.1396C243.439 29.4415 243.323 29.7319 243.115 29.9504C243.016 30.0975 242.885 30.2202 242.732 30.3094C242.578 30.3987 242.407 30.452 242.23 30.4656C242.053 30.4791 241.876 30.4524 241.711 30.3876C241.546 30.3227 241.398 30.2213 241.278 30.091C241.157 29.9607 241.068 29.8048 241.017 29.6351C240.965 29.4654 240.953 29.2863 240.98 29.1111C241.008 28.936 241.075 28.7693 241.176 28.6237C241.277 28.478 241.41 28.3572 241.564 28.2702C241.786 28.0898 242.065 27.9962 242.351 28.007C242.636 28.0179 242.908 28.1323 243.115 28.3289V28.3289Z" fill="#DEEFFF"/>
<path id="Vector_119" d="M246.415 25.2741C246.585 25.4361 246.702 25.6453 246.752 25.8747C246.802 26.1041 246.782 26.3432 246.695 26.5612C246.608 26.7791 246.457 26.966 246.263 27.0976C246.069 27.2292 245.839 27.2995 245.605 27.2995C245.37 27.2995 245.141 27.2292 244.946 27.0976C244.752 26.966 244.601 26.7791 244.514 26.5612C244.427 26.3432 244.407 26.1041 244.457 25.8747C244.507 25.6453 244.624 25.4361 244.794 25.2741C245.013 25.0658 245.303 24.9496 245.605 24.9496C245.906 24.9496 246.197 25.0658 246.415 25.2741Z" fill="#DEEFFF"/>
<path id="Vector_120" d="M249.704 22.231C249.851 22.33 249.973 22.4611 250.063 22.6144C250.152 22.7676 250.205 22.9391 250.219 23.1159C250.232 23.2927 250.206 23.4703 250.141 23.6353C250.076 23.8004 249.974 23.9486 249.844 24.0689C249.714 24.1892 249.558 24.2784 249.389 24.3299C249.219 24.3814 249.04 24.3938 248.865 24.3662C248.69 24.3385 248.523 24.2716 248.377 24.1705C248.232 24.0693 248.111 23.9364 248.024 23.7819C247.827 23.5566 247.723 23.2646 247.734 22.9654C247.745 22.6663 247.87 22.3826 248.083 22.1722C248.309 21.9717 248.603 21.8659 248.905 21.8768C249.207 21.8877 249.493 22.0146 249.704 22.231V22.231Z" fill="#DEEFFF"/>
<path id="Vector_121" d="M252.992 19.1761C253.156 19.3442 253.266 19.5576 253.307 19.7886C253.348 20.0196 253.32 20.2577 253.225 20.4723C253.13 20.6869 252.973 20.868 252.774 20.9925C252.575 21.1169 252.343 21.1788 252.109 21.1703C251.874 21.1618 251.647 21.0833 251.458 20.9448C251.269 20.8063 251.125 20.6142 251.046 20.3933C250.966 20.1724 250.955 19.9328 251.013 19.7054C251.071 19.478 251.196 19.2732 251.371 19.1174C251.597 18.9168 251.892 18.811 252.194 18.822C252.495 18.8329 252.781 18.9598 252.992 19.1761V19.1761Z" fill="#DEEFFF"/>
<path id="Vector_122" d="M243.913 32.6645C244.083 32.8265 244.201 33.0357 244.251 33.2651C244.301 33.4945 244.281 33.7336 244.193 33.9515C244.106 34.1695 243.956 34.3563 243.761 34.4879C243.567 34.6195 243.338 34.6899 243.103 34.6899C242.868 34.6899 242.639 34.6195 242.445 34.4879C242.25 34.3563 242.1 34.1695 242.013 33.9515C241.925 33.7336 241.905 33.4945 241.955 33.2651C242.005 33.0357 242.123 32.8265 242.293 32.6645C242.511 32.4562 242.801 32.34 243.103 32.34C243.405 32.34 243.695 32.4562 243.913 32.6645Z" fill="#DEEFFF"/>
<path id="Vector_123" d="M247.214 29.6214C247.357 29.7224 247.477 29.8544 247.563 30.0076C247.648 30.1609 247.699 30.3314 247.71 30.5067C247.722 30.6821 247.694 30.8577 247.628 31.0207C247.563 31.1838 247.461 31.33 247.332 31.4487C247.202 31.5675 247.048 31.6556 246.88 31.7067C246.712 31.7579 246.535 31.7706 246.361 31.7441C246.187 31.7176 246.022 31.6525 245.877 31.5535C245.732 31.4545 245.611 31.3243 245.522 31.1723C245.388 30.9407 245.337 30.67 245.377 30.4053C245.418 30.1405 245.547 29.8975 245.745 29.7165C245.942 29.5355 246.195 29.4274 246.462 29.4101C246.73 29.3928 246.995 29.4674 247.214 29.6214V29.6214Z" fill="#DEEFFF"/>
<path id="Vector_124" d="M250.502 26.5665C250.622 26.7925 250.664 27.0512 250.623 27.3036C250.583 27.5559 250.461 27.788 250.276 27.9647C250.091 28.1414 249.854 28.2531 249.6 28.2828C249.347 28.3125 249.09 28.2585 248.87 28.1292C248.734 27.8986 248.681 27.6286 248.72 27.3638C248.759 27.099 248.886 26.8554 249.082 26.6732C249.278 26.4909 249.53 26.381 249.797 26.3616C250.064 26.3423 250.329 26.4145 250.549 26.5665H250.502Z" fill="#DEEFFF"/>
<path id="Vector_125" d="M253.791 23.5234C253.953 23.6927 254.061 23.9068 254.101 24.1381C254.141 24.3694 254.11 24.6073 254.014 24.8212C253.917 25.035 253.759 25.215 253.559 25.3379C253.359 25.4609 253.127 25.5211 252.893 25.5109C252.658 25.5007 252.432 25.4205 252.244 25.2807C252.055 25.1409 251.913 24.9478 251.835 24.7264C251.758 24.505 251.748 24.2653 251.808 24.0384C251.867 23.8114 251.994 23.6075 252.17 23.4529C252.397 23.2539 252.693 23.1501 252.995 23.1632C253.296 23.1764 253.582 23.3054 253.791 23.5234V23.5234Z" fill="#DEEFFF"/>
<path id="Vector_126" d="M245.17 37.1527C245.342 37.314 245.461 37.5232 245.512 37.753C245.563 37.9828 245.544 38.2227 245.457 38.4416C245.371 38.6605 245.22 38.8483 245.026 38.9806C244.831 39.1129 244.601 39.1837 244.366 39.1837C244.13 39.1837 243.9 39.1129 243.706 38.9806C243.511 38.8483 243.36 38.6605 243.274 38.4416C243.187 38.2227 243.168 37.9828 243.219 37.753C243.27 37.5232 243.39 37.314 243.561 37.1527C243.779 36.9479 244.067 36.8338 244.366 36.8338C244.665 36.8338 244.952 36.9479 245.17 37.1527V37.1527Z" fill="#DEEFFF"/>
<path id="Vector_127" d="M248.47 34.1097C248.633 34.279 248.741 34.4931 248.781 34.7244C248.82 34.9557 248.79 35.1936 248.693 35.4074C248.597 35.6212 248.438 35.8012 248.238 35.9242C248.039 36.0471 247.806 36.1074 247.572 36.0972C247.338 36.087 247.112 36.0068 246.923 35.867C246.735 35.7271 246.593 35.5341 246.515 35.3127C246.437 35.0912 246.428 34.8516 246.487 34.6246C246.547 34.3976 246.673 34.1937 246.85 34.0392C247.077 33.8401 247.372 33.7364 247.674 33.7495C247.976 33.7626 248.261 33.8916 248.47 34.1097V34.1097Z" fill="#DEEFFF"/>
<path id="Vector_128" d="M251.759 31.0548C251.929 31.2168 252.046 31.426 252.096 31.6554C252.146 31.8848 252.126 32.1239 252.039 32.3419C251.952 32.5598 251.801 32.7467 251.607 32.8783C251.413 33.0099 251.183 33.0802 250.949 33.0802C250.714 33.0802 250.485 33.0099 250.29 32.8783C250.096 32.7467 249.945 32.5598 249.858 32.3419C249.771 32.1239 249.751 31.8848 249.801 31.6554C249.851 31.426 249.968 31.2168 250.138 31.0548C250.357 30.8465 250.647 30.7303 250.949 30.7303C251.25 30.7303 251.541 30.8465 251.759 31.0548Z" fill="#DEEFFF"/>
<path id="Vector_129" d="M255.048 28C255.217 28.162 255.335 28.3711 255.385 28.6005C255.435 28.8299 255.415 29.0691 255.328 29.287C255.24 29.505 255.09 29.6918 254.895 29.8234C254.701 29.955 254.472 30.0253 254.237 30.0253C254.002 30.0253 253.773 29.955 253.579 29.8234C253.384 29.6918 253.234 29.505 253.147 29.287C253.06 29.0691 253.04 28.8299 253.09 28.6005C253.139 28.3711 253.257 28.162 253.427 28C253.645 27.7917 253.935 27.6754 254.237 27.6754C254.539 27.6754 254.829 27.7917 255.048 28Z" fill="#DEEFFF"/>
<path id="Vector_130" d="M258.348 24.9569C258.482 25.1885 258.533 25.4592 258.493 25.7239C258.453 25.9887 258.323 26.2317 258.126 26.4127C257.928 26.5937 257.675 26.7018 257.408 26.7191C257.141 26.7364 256.876 26.6618 256.657 26.5078C256.522 26.2761 256.471 26.0055 256.511 25.7407C256.552 25.476 256.681 25.233 256.879 25.052C257.076 24.871 257.329 24.7629 257.597 24.7456C257.864 24.7283 258.129 24.8028 258.348 24.9569V24.9569Z" fill="#DEEFFF"/>
<path id="Vector_131" d="M249.269 38.4804C249.439 38.6424 249.556 38.8516 249.606 39.081C249.656 39.3104 249.636 39.5495 249.549 39.7675C249.462 39.9855 249.311 40.1723 249.117 40.3039C248.923 40.4355 248.693 40.5058 248.459 40.5058C248.224 40.5058 247.995 40.4355 247.8 40.3039C247.606 40.1723 247.456 39.9855 247.368 39.7675C247.281 39.5495 247.261 39.3104 247.311 39.081C247.361 38.8516 247.478 38.6424 247.648 38.4804C247.867 38.2721 248.157 38.1559 248.459 38.1559C248.76 38.1559 249.051 38.2721 249.269 38.4804Z" fill="#DEEFFF"/>
<path id="Vector_132" d="M252.558 35.3904C252.766 35.6089 252.882 35.8992 252.882 36.2011C252.882 36.503 252.766 36.7933 252.558 37.0118C252.327 37.1475 252.057 37.2003 251.793 37.1617C251.528 37.123 251.284 36.9952 251.102 36.7993C250.92 36.6033 250.81 36.3511 250.791 36.0842C250.771 35.8173 250.844 35.5518 250.996 35.3316C251.218 35.1479 251.5 35.0524 251.788 35.0633C252.076 35.0741 252.35 35.1905 252.558 35.3904V35.3904Z" fill="#DEEFFF"/>
<path id="Vector_133" d="M255.846 32.3473C256.01 32.5154 256.12 32.7287 256.161 32.9597C256.203 33.1907 256.174 33.4288 256.079 33.6434C255.984 33.858 255.827 34.0392 255.628 34.1636C255.429 34.288 255.197 34.3499 254.963 34.3414C254.728 34.3329 254.501 34.2544 254.312 34.1159C254.123 33.9774 253.979 33.7853 253.9 33.5644C253.82 33.3435 253.809 33.104 253.867 32.8765C253.925 32.6491 254.05 32.4443 254.225 32.2885C254.451 32.0879 254.746 31.9821 255.048 31.9931C255.349 32.004 255.635 32.1309 255.846 32.3473V32.3473Z" fill="#DEEFFF"/>
<path id="Vector_134" d="M259.135 29.2924C259.27 29.523 259.323 29.7931 259.285 30.0578C259.246 30.3226 259.118 30.5662 258.922 30.7485C258.726 30.9307 258.474 31.0406 258.208 31.06C257.941 31.0794 257.675 31.0071 257.455 30.8551C257.32 30.6245 257.267 30.3544 257.305 30.0897C257.344 29.8249 257.472 29.5813 257.668 29.399C257.864 29.2168 258.116 29.1069 258.383 29.0875C258.649 29.0681 258.915 29.1404 259.135 29.2924V29.2924Z" fill="#DEEFFF"/>
<path id="Vector_135" d="M270.715 64.7404C270.851 64.971 270.904 65.2411 270.865 65.5058C270.826 65.7706 270.699 66.0143 270.503 66.1965C270.307 66.3787 270.055 66.4886 269.788 66.508C269.521 66.5274 269.256 66.4551 269.036 66.3031C268.9 66.0725 268.847 65.8024 268.886 65.5377C268.925 65.2729 269.052 65.0293 269.248 64.847C269.444 64.6648 269.696 64.5549 269.963 64.5355C270.23 64.5161 270.495 64.5884 270.715 64.7404Z" fill="#DEEFFF"/>
<path id="Vector_136" d="M274.016 61.6973C274.169 61.7925 274.298 61.9216 274.393 62.0746C274.488 62.2277 274.547 62.4006 274.565 62.5801C274.582 62.7595 274.559 62.9406 274.495 63.1093C274.432 63.2781 274.33 63.4299 274.199 63.5532C274.067 63.6764 273.909 63.7676 273.736 63.8199C273.564 63.8722 273.382 63.884 273.204 63.8545C273.026 63.8251 272.857 63.755 272.711 63.6499C272.565 63.5448 272.444 63.4073 272.36 63.2482C272.225 63.0166 272.174 62.746 272.214 62.4812C272.255 62.2164 272.384 61.9734 272.582 61.7924C272.779 61.6115 273.032 61.5034 273.3 61.4861C273.567 61.4688 273.832 61.5433 274.051 61.6973H274.016Z" fill="#DEEFFF"/>
<path id="Vector_137" d="M277.304 58.6425C277.474 58.8045 277.592 59.0137 277.641 59.2431C277.691 59.4725 277.671 59.7116 277.584 59.9295C277.497 60.1475 277.347 60.3343 277.152 60.4659C276.958 60.5975 276.728 60.6679 276.494 60.6679C276.259 60.6679 276.03 60.5975 275.835 60.4659C275.641 60.3343 275.491 60.1475 275.403 59.9295C275.316 59.7116 275.296 59.4725 275.346 59.2431C275.396 59.0137 275.514 58.8045 275.683 58.6425C275.902 58.4342 276.192 58.318 276.494 58.318C276.796 58.318 277.086 58.4342 277.304 58.6425V58.6425Z" fill="#DEEFFF"/>
<path id="Vector_138" d="M280.581 55.5994C280.743 55.7687 280.852 55.9828 280.891 56.2141C280.931 56.4453 280.901 56.6832 280.804 56.8971C280.707 57.1109 280.549 57.2909 280.349 57.4138C280.149 57.5368 279.917 57.597 279.683 57.5868C279.448 57.5767 279.222 57.4965 279.034 57.3567C278.846 57.2168 278.703 57.0238 278.626 56.8023C278.548 56.5809 278.538 56.3413 278.598 56.1143C278.657 55.8873 278.784 55.6834 278.96 55.5289C279.188 55.3298 279.483 55.226 279.785 55.2392C280.087 55.2523 280.372 55.3813 280.581 55.5994V55.5994Z" fill="#DEEFFF"/>
<path id="Vector_139" d="M283.881 52.5798C284.053 52.7411 284.172 52.9502 284.223 53.18C284.274 53.4098 284.255 53.6497 284.169 53.8686C284.082 54.0876 283.931 54.2753 283.737 54.4077C283.542 54.54 283.312 54.6107 283.077 54.6107C282.841 54.6107 282.611 54.54 282.417 54.4077C282.222 54.2753 282.072 54.0876 281.985 53.8686C281.898 53.6497 281.879 53.4098 281.93 53.18C281.982 52.9502 282.101 52.7411 282.272 52.5798C282.49 52.3749 282.778 52.2608 283.077 52.2608C283.376 52.2608 283.663 52.3749 283.881 52.5798V52.5798Z" fill="#DEEFFF"/>
<path id="Vector_140" d="M274.814 66.0329C274.984 66.1949 275.102 66.4041 275.152 66.6335C275.201 66.8629 275.181 67.102 275.094 67.3199C275.007 67.5379 274.857 67.7247 274.662 67.8563C274.468 67.9879 274.239 68.0583 274.004 68.0583C273.769 68.0583 273.54 67.9879 273.346 67.8563C273.151 67.7247 273.001 67.5379 272.913 67.3199C272.826 67.102 272.806 66.8629 272.856 66.6335C272.906 66.4041 273.024 66.1949 273.193 66.0329C273.412 65.8246 273.702 65.7084 274.004 65.7084C274.306 65.7084 274.596 65.8246 274.814 66.0329V66.0329Z" fill="#DEEFFF"/>
<path id="Vector_141" d="M278.103 62.9898C278.302 63.2172 278.406 63.5126 278.392 63.8146C278.379 64.1166 278.25 64.4019 278.032 64.6112C277.801 64.7456 277.53 64.7969 277.266 64.7564C277.001 64.716 276.758 64.5863 276.577 64.3889C276.396 64.1914 276.288 63.9381 276.271 63.6708C276.254 63.4035 276.328 63.1384 276.482 62.9193C276.709 62.7202 277.005 62.6165 277.307 62.6296C277.608 62.6427 277.894 62.7717 278.103 62.9898V62.9898Z" fill="#DEEFFF"/>
<path id="Vector_142" d="M281.391 59.9349C281.555 60.103 281.665 60.3163 281.706 60.5473C281.748 60.7784 281.719 61.0165 281.624 61.2311C281.529 61.4457 281.372 61.6268 281.173 61.7512C280.974 61.8756 280.742 61.9376 280.508 61.9291C280.273 61.9206 280.047 61.842 279.857 61.7035C279.668 61.5651 279.524 61.373 279.445 61.1521C279.366 60.9312 279.354 60.6916 279.412 60.4642C279.47 60.2368 279.595 60.032 279.771 59.8762C279.997 59.6756 280.291 59.5698 280.593 59.5807C280.895 59.5917 281.181 59.7185 281.391 59.9349Z" fill="#DEEFFF"/>
<path id="Vector_143" d="M284.68 56.8918C284.842 57.0611 284.951 57.2752 284.99 57.5065C285.03 57.7378 285 57.9757 284.903 58.1895C284.806 58.4034 284.648 58.5834 284.448 58.7063C284.248 58.8292 284.016 58.8895 283.782 58.8793C283.547 58.8691 283.321 58.7889 283.133 58.6491C282.945 58.5093 282.802 58.3162 282.725 58.0948C282.647 57.8734 282.637 57.6337 282.697 57.4068C282.756 57.1798 282.883 56.9759 283.059 56.8213C283.287 56.6223 283.582 56.5185 283.884 56.5316C284.186 56.5448 284.471 56.6738 284.68 56.8918V56.8918Z" fill="#DEEFFF"/>
<path id="Vector_144" d="M276.071 70.5212C276.241 70.6832 276.358 70.8923 276.408 71.1218C276.458 71.3512 276.438 71.5902 276.351 71.8082C276.264 72.0262 276.113 72.213 275.919 72.3446C275.725 72.4762 275.495 72.5465 275.261 72.5465C275.026 72.5465 274.797 72.4762 274.602 72.3446C274.408 72.213 274.257 72.0262 274.17 71.8082C274.083 71.5902 274.063 71.3512 274.113 71.1218C274.163 70.8923 274.28 70.6832 274.45 70.5212C274.669 70.3129 274.959 70.1967 275.261 70.1967C275.562 70.1967 275.853 70.3129 276.071 70.5212V70.5212Z" fill="#DEEFFF"/>
<path id="Vector_145" d="M279.407 67.4663C279.576 67.6283 279.694 67.8375 279.744 68.0669C279.794 68.2963 279.774 68.5354 279.686 68.7533C279.599 68.9713 279.449 69.1581 279.254 69.2897C279.06 69.4213 278.831 69.4917 278.596 69.4917C278.361 69.4917 278.132 69.4213 277.938 69.2897C277.743 69.1581 277.593 68.9713 277.506 68.7533C277.418 68.5354 277.399 68.2963 277.448 68.0669C277.498 67.8375 277.616 67.6283 277.786 67.4663C278.004 67.258 278.294 67.1418 278.596 67.1418C278.898 67.1418 279.188 67.258 279.407 67.4663V67.4663Z" fill="#DEEFFF"/>
<path id="Vector_146" d="M282.648 64.4232C282.795 64.5222 282.918 64.6533 283.007 64.8066C283.096 64.9598 283.15 65.1313 283.163 65.3081C283.177 65.4849 283.15 65.6625 283.085 65.8275C283.02 65.9926 282.919 66.1408 282.789 66.2611C282.658 66.3814 282.503 66.4706 282.333 66.5221C282.163 66.5736 281.984 66.586 281.809 66.5583C281.634 66.5307 281.468 66.4638 281.322 66.3627C281.176 66.2615 281.056 66.1286 280.969 65.9741C280.839 65.7436 280.791 65.4761 280.832 65.2148C280.873 64.9535 281.001 64.7138 281.195 64.5344C281.39 64.355 281.639 64.2464 281.902 64.2262C282.166 64.206 282.429 64.2754 282.648 64.4232Z" fill="#DEEFFF"/>
<path id="Vector_147" d="M285.937 61.3683C286.081 61.4682 286.202 61.5993 286.289 61.7519C286.376 61.9045 286.428 62.0748 286.441 62.2502C286.454 62.4255 286.427 62.6015 286.363 62.7652C286.298 62.9288 286.198 63.0759 286.069 63.1956C285.941 63.3154 285.787 63.4047 285.619 63.457C285.451 63.5093 285.274 63.5233 285.1 63.4979C284.926 63.4725 284.76 63.4084 284.614 63.3103C284.468 63.2122 284.346 63.0826 284.257 62.931C284.058 62.7036 283.954 62.4082 283.968 62.1062C283.981 61.8042 284.11 61.5189 284.328 61.3096C284.553 61.1125 284.845 61.0088 285.144 61.0197C285.443 61.0307 285.726 61.1553 285.937 61.3683Z" fill="#DEEFFF"/>
<path id="Vector_148" d="M289.237 58.3253C289.436 58.5527 289.54 58.8481 289.527 59.1501C289.513 59.4521 289.385 59.7374 289.167 59.9467C288.935 60.0752 288.667 60.1218 288.406 60.0788C288.145 60.0359 287.906 59.9059 287.728 59.7101C287.55 59.5142 287.443 59.2639 287.425 58.9998C287.407 58.7356 287.478 58.4731 287.628 58.2548C287.855 58.0592 288.147 57.9575 288.446 57.9706C288.746 57.9837 289.028 58.1106 289.237 58.3253Z" fill="#DEEFFF"/>
<path id="Vector_149" d="M280.158 71.8136C280.303 71.9135 280.423 72.0445 280.511 72.1972C280.598 72.3498 280.65 72.52 280.662 72.6954C280.675 72.8708 280.648 73.0468 280.584 73.2104C280.52 73.374 280.42 73.5211 280.291 73.6409C280.162 73.7606 280.008 73.85 279.84 73.9023C279.673 73.9546 279.495 73.9686 279.321 73.9432C279.147 73.9178 278.981 73.8536 278.836 73.7555C278.69 73.6574 278.568 73.5278 278.479 73.3763C278.334 73.2764 278.214 73.1453 278.126 72.9927C278.039 72.8401 277.987 72.6698 277.974 72.4944C277.962 72.3191 277.989 72.1431 278.053 71.9794C278.117 71.8158 278.217 71.6687 278.346 71.5489C278.475 71.4292 278.629 71.3399 278.796 71.2876C278.964 71.2352 279.142 71.2213 279.316 71.2467C279.489 71.2721 279.655 71.3362 279.801 71.4343C279.947 71.5324 280.069 71.662 280.158 71.8136Z" fill="#DEEFFF"/>
<path id="Vector_150" d="M283.447 68.7587C283.617 68.9207 283.734 69.1299 283.784 69.3593C283.834 69.5887 283.814 69.8278 283.727 70.0458C283.64 70.2638 283.489 70.4506 283.295 70.5822C283.1 70.7138 282.871 70.7841 282.636 70.7841C282.402 70.7841 282.172 70.7138 281.978 70.5822C281.784 70.4506 281.633 70.2638 281.546 70.0458C281.459 69.8278 281.439 69.5887 281.489 69.3593C281.539 69.1299 281.656 68.9207 281.826 68.7587C282.044 68.5504 282.335 68.4342 282.636 68.4342C282.938 68.4342 283.228 68.5504 283.447 68.7587V68.7587Z" fill="#DEEFFF"/>
<path id="Vector_151" d="M286.735 65.7156C286.898 65.8849 287.006 66.099 287.046 66.3303C287.085 66.5616 287.055 66.7995 286.958 67.0134C286.862 67.2272 286.703 67.4072 286.503 67.5301C286.303 67.6531 286.071 67.7133 285.837 67.7031C285.603 67.6929 285.377 67.6128 285.188 67.4729C285 67.3331 284.858 67.14 284.78 66.9186C284.702 66.6972 284.693 66.4576 284.752 66.2306C284.812 66.0036 284.938 65.7997 285.115 65.6451C285.342 65.4461 285.637 65.3423 285.939 65.3555C286.241 65.3686 286.526 65.4976 286.735 65.7156V65.7156Z" fill="#DEEFFF"/>
<path id="Vector_152" d="M290.036 62.6608C290.206 62.8228 290.323 63.032 290.373 63.2614C290.423 63.4908 290.403 63.7299 290.316 63.9478C290.228 64.1658 290.078 64.3526 289.884 64.4842C289.689 64.6158 289.46 64.6862 289.225 64.6862C288.991 64.6862 288.761 64.6158 288.567 64.4842C288.373 64.3526 288.222 64.1658 288.135 63.9478C288.048 63.7299 288.028 63.4908 288.078 63.2614C288.128 63.032 288.245 62.8228 288.415 62.6608C288.633 62.4525 288.923 62.3363 289.225 62.3363C289.527 62.3363 289.817 62.4525 290.036 62.6608V62.6608Z" fill="#DEEFFF"/>
<g id="Vector_153" style="mix-blend-mode:soft-light" opacity="0.3">
<path d="M253.568 16.8615L293.078 59.5237C293.458 59.9349 293.753 60.417 293.947 60.9424C294.141 61.4679 294.23 62.0264 294.208 62.5861C294.186 63.1458 294.054 63.6957 293.82 64.2045C293.586 64.7132 293.254 65.1708 292.843 65.5511L280.828 76.6896C279.607 76.4362 278.468 75.8869 277.51 75.09C276.551 74.2931 275.803 73.2729 275.331 72.1191C274.485 69.7692 275.073 67.1843 275.331 64.6934C276.365 54.2129 271.021 44.1437 264.761 35.7076C262.446 32.4325 259.709 29.4774 256.621 26.919C253.215 24.2401 249.375 22.8537 245.499 21.0443C244.922 20.7858 244.368 20.4792 243.843 20.1278L247.601 16.603C248.43 15.8529 249.521 15.4595 250.638 15.5079C251.754 15.5563 252.807 16.0426 253.568 16.8615V16.8615Z" fill="black"/>
</g>
</g>
<g id="plus">
<path id="Vector_154" d="M530.903 64.2253C535.115 46.5143 524.176 28.7416 506.472 24.5287C488.768 20.3159 471.002 31.2584 466.791 48.9693C462.58 66.6803 473.518 84.4531 491.222 88.6659C508.926 92.8787 526.692 81.9363 530.903 64.2253Z" fill="#DEEFFF"/>
<path id="Vector_155" d="M511.44 39.6928L499.128 35.8989L487.139 74.8354L499.451 78.6293L511.44 39.6928Z" fill="#57CC99"/>
<path id="Vector_156" d="M516.853 69.3843L520.646 57.0674L481.724 45.0741L477.932 57.3909L516.853 69.3843Z" fill="#57CC99"/>
</g>
<g id="right_note">
<g id="Vector_157" style="mix-blend-mode:soft-light" opacity="0.6">
<path d="M599.573 106.735C599.573 106.735 599.96 152.158 596.413 159.266L651.685 160.054C651.685 160.054 654.034 114.63 654.034 106.006L599.573 106.735Z" fill="black"/>
</g>
<path id="Vector_158" d="M597.788 102.188C597.788 102.188 598.187 147.611 594.628 154.719L649.912 155.518C649.912 155.518 652.261 110.095 652.261 101.4L597.788 102.188Z" fill="#22577A"/>
<path id="Vector_159" d="M604.435 113.42C606.491 111.775 609.274 110.06 611.482 111.411C611.923 111.747 612.386 112.053 612.868 112.327C614.97 113.267 617.566 110.671 619.563 111.857C620.197 112.245 620.596 112.95 621.254 113.279C622.769 114.031 624.366 112.445 625.952 111.963C627.537 111.481 629.323 112.186 631.014 112.48C634.537 113.079 638.178 111.799 641.584 110.541" stroke="#BFD0E0" stroke-width="0.38" stroke-linecap="round" stroke-linejoin="round"/>
<path id="Vector_160" d="M604.435 132.877C606.491 131.232 609.274 129.517 611.482 130.868C611.923 131.204 612.386 131.511 612.868 131.784C614.97 132.724 617.566 130.128 619.563 131.314C620.197 131.69 620.596 132.395 621.254 132.724C622.769 133.488 624.366 131.89 625.952 131.42C627.537 130.95 629.323 131.643 631.014 131.925C634.537 132.536 638.178 131.256 641.584 129.998" stroke="#BFD0E0" stroke-width="0.38" stroke-linecap="round" stroke-linejoin="round"/>
<path id="Vector_161" d="M604.435 143.24C606.491 141.595 609.274 139.88 611.482 141.231C611.923 141.567 612.386 141.874 612.868 142.147C614.97 143.087 617.566 140.491 619.563 141.689C620.197 142.065 620.596 142.77 621.254 143.099C622.769 143.851 624.366 142.265 625.952 141.783C627.537 141.301 629.323 142.006 631.014 142.3C634.537 142.899 638.178 141.619 641.584 140.361" stroke="#BFD0E0" stroke-width="0.38" stroke-linecap="round" stroke-linejoin="round"/>
<path id="Vector_162" d="M602.439 121.95C602.969 121.036 603.71 120.263 604.6 119.694C604.846 119.517 605.133 119.404 605.434 119.365C606.479 119.306 606.949 120.669 607.841 121.21C608.225 121.394 608.648 121.483 609.073 121.468C609.498 121.454 609.914 121.337 610.284 121.128C611.059 120.763 611.729 120.211 612.504 119.859C612.772 119.721 613.075 119.668 613.373 119.706C613.723 119.834 614.037 120.044 614.289 120.317C614.658 120.615 615.091 120.822 615.554 120.922C616.017 121.022 616.497 121.012 616.955 120.893C617.722 120.602 618.458 120.236 619.152 119.8C619.501 119.582 619.899 119.456 620.31 119.434C620.72 119.411 621.13 119.493 621.501 119.671C622.123 120.07 622.44 120.846 623.133 121.116C624.613 121.598 625.799 118.966 627.267 119.494C627.583 119.641 627.866 119.849 628.101 120.105C628.901 120.837 629.869 121.358 630.92 121.621C631.357 121.755 631.816 121.799 632.27 121.751C632.724 121.702 633.164 121.562 633.563 121.339C633.985 121.057 634.314 120.634 634.737 120.305C635.327 119.92 635.994 119.666 636.692 119.563C637.389 119.46 638.101 119.508 638.777 119.706C640.13 120.096 641.513 120.371 642.912 120.528C643.942 120.506 644.965 120.348 645.954 120.058" stroke="#BFD0E0" stroke-width="0.38" stroke-linecap="round" stroke-linejoin="round"/>
<path id="Vector_163" d="M609.419 100.537L602.999 94.1149L588.341 108.779L594.761 115.201L609.419 100.537Z" fill="#F0A500"/>
<path id="Vector_164" d="M656.081 112.485L661.731 105.376L645.506 92.4697L639.855 99.5786L656.081 112.485Z" fill="#F0A500"/>
</g>
<g id="left_note">
<g id="Vector_165" style="mix-blend-mode:soft-light" opacity="0.6">
<path d="M158.747 106.235C158.747 106.235 159.111 148.345 155.822 154.936L207.065 155.665C207.065 155.665 209.262 113.567 209.262 105.507L158.747 106.235Z" fill="black"/>
</g>
<path id="Vector_166" d="M157.102 102.029C157.102 102.029 157.467 144.139 154.166 150.73L205.409 151.459C205.409 151.459 207.606 109.349 207.606 101.3L157.102 102.029Z" fill="#22577A"/>
<path id="Vector_167" d="M163.269 112.439C165.171 110.911 167.755 109.325 169.846 110.582C170.256 110.889 170.683 111.171 171.126 111.428C173.087 112.298 175.507 109.889 177.339 110.994C177.926 111.346 178.29 112.004 178.901 112.31C180.31 113.003 181.79 111.534 183.294 111.135C184.797 110.735 186.418 111.346 187.992 111.605C191.304 112.169 194.639 110.982 197.787 109.819" stroke="#BFD0E0" stroke-width="0.35" stroke-linecap="round" stroke-linejoin="round"/>
<path id="Vector_168" d="M163.269 130.474C165.171 128.947 167.755 127.361 169.846 128.606C170.253 128.92 170.681 129.207 171.126 129.464C173.087 130.333 175.507 127.925 177.339 129.029C177.926 129.381 178.29 130.028 178.901 130.333C180.31 131.038 181.79 129.569 183.294 129.158C184.797 128.747 186.418 129.37 187.992 129.628C191.304 130.192 194.639 129.005 197.787 127.831" stroke="#BFD0E0" stroke-width="0.35" stroke-linecap="round" stroke-linejoin="round"/>
<path id="Vector_169" d="M163.269 140.085C165.171 138.558 167.755 136.972 169.846 138.217C170.253 138.531 170.681 138.818 171.126 139.075C173.087 139.944 175.507 137.536 177.339 138.64C177.926 138.992 178.29 139.639 178.901 139.944C180.31 140.649 181.79 139.18 183.294 138.769C184.797 138.358 186.418 138.981 187.992 139.239C191.304 139.803 194.639 138.617 197.787 137.453" stroke="#BFD0E0" stroke-width="0.35" stroke-linecap="round" stroke-linejoin="round"/>
<path id="Vector_170" d="M161.413 120.346C161.9 119.498 162.585 118.781 163.409 118.255C163.639 118.091 163.905 117.986 164.185 117.949C165.148 117.949 165.582 119.124 166.416 119.653C166.772 119.824 167.164 119.908 167.558 119.895C167.953 119.883 168.339 119.776 168.683 119.582C169.399 119.242 170.022 118.736 170.738 118.407C170.988 118.281 171.271 118.232 171.549 118.266C171.871 118.385 172.161 118.579 172.394 118.83C172.737 119.106 173.14 119.299 173.57 119.393C174 119.486 174.446 119.479 174.873 119.371C175.581 119.097 176.262 118.754 176.904 118.349C177.228 118.149 177.596 118.034 177.976 118.014C178.355 117.993 178.734 118.068 179.077 118.231C179.653 118.595 179.935 119.406 180.581 119.582C181.955 120.029 183.059 117.573 184.409 118.067C184.705 118.203 184.969 118.399 185.185 118.642C185.928 119.319 186.828 119.8 187.804 120.041C188.207 120.167 188.632 120.209 189.052 120.165C189.472 120.12 189.879 119.99 190.247 119.782C190.646 119.512 190.94 119.124 191.315 118.819C191.864 118.464 192.483 118.231 193.129 118.136C193.775 118.041 194.434 118.085 195.062 118.266C196.315 118.625 197.596 118.88 198.891 119.03C199.845 119.002 200.792 118.856 201.71 118.595" stroke="#BFD0E0" stroke-width="0.35" stroke-linecap="round" stroke-linejoin="round"/>
<path id="Vector_171" d="M167.872 100.492L161.917 94.535L148.331 108.127L154.285 114.084L167.872 100.492Z" fill="#F0A500"/>
<path id="Vector_172" d="M211.133 111.581L216.374 104.987L201.334 93.0234L196.093 99.6173L211.133 111.581Z" fill="#F0A500"/>
</g>
<g id="glass">
<path id="Vector_173" d="M712.891 447.251H702.003V431.895H639.814V505.751C639.817 509.874 641.452 513.828 644.362 516.748C647.272 519.668 651.219 521.316 655.341 521.331H686.336C690.466 521.331 694.427 519.69 697.348 516.768C700.268 513.846 701.909 509.883 701.909 505.751V487.798H712.891C716.948 487.77 720.829 486.139 723.689 483.261C726.549 480.382 728.156 476.489 728.159 472.43V462.631C728.159 458.57 726.554 454.674 723.694 451.793C720.833 448.912 716.95 447.279 712.891 447.251V447.251ZM723.344 472.43C723.341 475.201 722.238 477.858 720.278 479.817C718.318 481.775 715.661 482.875 712.891 482.875H702.003V452.162H712.891C715.662 452.165 718.319 453.268 720.279 455.229C722.238 457.189 723.341 459.847 723.344 462.619V472.43Z" fill="#082032"/>
<path id="Vector_174" d="M671.971 492.157C681.909 492.157 689.965 484.098 689.965 474.157C689.965 464.216 681.909 456.157 671.971 456.157C662.034 456.157 653.978 464.216 653.978 474.157C653.978 484.098 662.034 492.157 671.971 492.157Z" fill="#F0A500"/>
<g id="Vector_175" style="mix-blend-mode:soft-light">
<path d="M712.891 447.251H702.003V431.895H688.379C688.72 433.892 689.683 436.23 689.988 437.945C690.474 440.624 690.865 443.319 691.163 446.029C691.738 451.399 691.973 456.803 692.032 462.196C692.102 468.4 691.938 474.604 691.762 480.819C691.621 485.754 691.386 491.018 688.544 495.059C686.8 497.25 684.709 499.139 682.354 500.652C675.307 505.74 668.131 510.886 660.039 514.152C656.362 515.633 652.534 516.714 648.975 518.441C648.511 518.663 648.07 518.93 647.659 519.24C650.024 520.616 652.711 521.338 655.446 521.331H686.441C690.572 521.331 694.533 519.69 697.453 516.768C700.374 513.846 702.015 509.883 702.015 505.751V487.798H712.891C716.948 487.77 720.829 486.139 723.689 483.261C726.549 480.382 728.156 476.489 728.159 472.43V462.631C728.159 458.57 726.554 454.674 723.694 451.793C720.833 448.912 716.95 447.279 712.891 447.251V447.251ZM723.344 472.43C723.341 475.201 722.238 477.858 720.278 479.817C718.318 481.775 715.661 482.875 712.891 482.875H702.003V452.162H712.891C715.662 452.165 718.319 453.268 720.279 455.229C722.238 457.189 723.341 459.847 723.344 462.619V472.43Z" fill="black"/>
</g>
<path id="Vector_176" d="M661.894 472.313C661.802 472.782 661.619 473.23 661.354 473.628C661.26 473.809 661.154 473.985 661.037 474.157C660.943 474.319 660.841 474.476 660.732 474.627L660.426 475.074L660.203 475.414L659.956 475.755L659.733 476.072L659.569 476.343C659.471 476.497 659.385 476.658 659.31 476.824C659.229 476.984 659.17 477.154 659.134 477.33H658.782H658.5C658.419 477.295 658.35 477.238 658.3 477.165C658.217 477.045 658.143 476.919 658.077 476.789L657.96 476.542C657.91 476.456 657.867 476.365 657.831 476.272L657.69 475.978C657.69 475.873 657.607 475.779 657.561 475.685L657.29 475.027C657.196 474.815 657.114 474.592 657.032 474.369C656.844 473.91 656.762 473.687 656.75 473.675C656.633 473.382 656.527 473.123 656.421 472.888L656.139 472.266C656.042 472.045 655.978 471.812 655.951 471.572C655.984 471.481 656.044 471.402 656.125 471.347C656.205 471.292 656.301 471.264 656.398 471.267C656.542 471.276 656.679 471.334 656.785 471.431C656.785 471.431 656.785 471.431 656.785 471.502C656.804 471.566 656.828 471.629 656.856 471.69L656.95 471.937C657.003 472.043 657.05 472.153 657.091 472.266L657.279 472.712C657.337 472.865 657.408 473.018 657.478 473.182C657.549 473.347 657.584 473.476 657.643 473.64C657.701 473.805 657.76 473.969 657.831 474.134L658.289 475.309C658.408 475.645 658.545 475.974 658.7 476.296C658.772 476.136 658.859 475.982 658.958 475.837L659.287 475.344L659.616 474.862L659.898 474.416C660.015 474.216 660.097 474.051 660.168 473.91L660.368 473.487C660.473 473.288 660.614 473.018 660.767 472.677L660.967 472.219C661.025 472.089 661.084 471.972 661.119 471.866C661.14 471.807 661.177 471.754 661.225 471.713C661.283 471.7 661.343 471.7 661.401 471.713C661.487 471.714 661.571 471.741 661.64 471.792C661.71 471.843 661.762 471.914 661.789 471.995C661.8 472.065 661.8 472.137 661.789 472.207C661.826 472.24 661.861 472.275 661.894 472.313V472.313Z" fill="black"/>
<path id="Vector_177" d="M666.992 474.486C666.975 474.582 666.939 474.674 666.886 474.756C666.74 474.965 666.584 475.165 666.416 475.356C666.252 475.544 666.064 475.732 665.876 475.908L665.277 476.401C665.076 476.548 664.864 476.677 664.643 476.789C664.437 476.898 664.221 476.985 663.997 477.048C663.796 477.112 663.585 477.144 663.374 477.142C663.18 477.155 662.985 477.128 662.801 477.064C662.617 476.999 662.449 476.898 662.305 476.766C662.167 476.605 662.061 476.419 661.994 476.217C661.928 476.015 661.902 475.802 661.918 475.591C661.9 475.383 661.9 475.175 661.918 474.968C661.947 474.768 661.994 474.572 662.059 474.381C662.132 474.177 662.222 473.981 662.329 473.793C662.448 473.596 662.585 473.411 662.74 473.241C662.801 473.172 662.868 473.109 662.94 473.053C663.018 472.987 663.105 472.932 663.198 472.888C663.283 472.83 663.379 472.79 663.48 472.771C663.577 472.753 663.676 472.753 663.774 472.771C663.9 472.766 664.025 472.794 664.138 472.853C664.241 472.9 664.33 472.973 664.396 473.065C664.457 473.159 664.505 473.262 664.537 473.37C664.6 473.568 664.613 473.779 664.576 473.984C664.54 474.188 664.454 474.381 664.326 474.545C664.114 474.835 663.865 475.096 663.586 475.32C663.475 475.423 663.357 475.517 663.233 475.602L662.787 475.943C662.788 476.01 662.809 476.075 662.846 476.131C662.876 476.192 662.92 476.244 662.975 476.284C663.038 476.333 663.109 476.369 663.186 476.39C663.276 476.402 663.367 476.402 663.456 476.39C663.597 476.406 663.739 476.406 663.879 476.39C664.027 476.357 664.172 476.314 664.314 476.26L664.737 476.061C664.878 475.99 664.995 475.908 665.112 475.837C665.23 475.767 665.5 475.532 665.676 475.367L666.217 474.862L666.428 474.651C666.526 474.545 666.66 474.478 666.804 474.463C666.862 474.463 666.898 474.463 666.909 474.463C666.938 474.464 666.966 474.472 666.992 474.486ZM663.856 473.746C663.862 473.691 663.862 473.636 663.856 473.582C663.849 473.54 663.828 473.503 663.797 473.476C663.69 473.485 663.588 473.526 663.503 473.593C663.385 473.687 663.285 473.803 663.21 473.934C663.107 474.096 663.024 474.269 662.963 474.451C662.881 474.667 662.826 474.892 662.799 475.121L663.175 474.827C663.316 474.728 663.446 474.614 663.562 474.486C663.665 474.382 663.752 474.263 663.821 474.134C663.862 474.013 663.874 473.884 663.856 473.758V473.746Z" fill="black"/>
<path id="Vector_178" d="M669.928 473.617C669.928 473.68 669.907 473.742 669.869 473.793L669.728 473.899L669.54 473.957H669.364H668.765L668.225 474.028H667.826H667.649C667.633 474.12 667.609 474.21 667.579 474.298C667.579 474.416 667.579 474.533 667.497 474.662C667.414 474.792 667.438 474.921 667.403 475.05C667.367 475.179 667.403 475.309 667.321 475.426C667.238 475.544 667.32 475.661 667.262 475.755C667.258 475.833 667.258 475.912 667.262 475.99C667.262 475.99 667.262 476.084 667.262 476.155C667.274 476.223 667.294 476.29 667.321 476.354C667.337 476.416 667.37 476.473 667.414 476.519C667.433 476.542 667.456 476.56 667.482 476.572C667.509 476.584 667.538 476.59 667.567 476.589H667.72C667.794 476.568 667.865 476.536 667.931 476.495C668.021 476.458 668.104 476.406 668.178 476.343C668.26 476.284 668.342 476.202 668.436 476.119C668.461 476.082 668.493 476.051 668.53 476.025C668.56 475.988 668.595 475.956 668.636 475.931L668.765 475.873C668.815 475.86 668.868 475.86 668.918 475.873C668.971 475.853 669.029 475.853 669.082 475.873C669.094 475.915 669.094 475.96 669.082 476.002C669.087 476.106 669.059 476.209 669 476.296L668.765 476.601L668.565 476.801C668.462 476.899 668.347 476.986 668.225 477.059C668.095 477.152 667.952 477.228 667.802 477.283C667.645 477.344 667.478 477.376 667.309 477.377C667.165 477.379 667.021 477.355 666.886 477.306C666.777 477.273 666.677 477.217 666.592 477.142C666.517 477.073 666.457 476.989 666.416 476.895C666.374 476.805 666.343 476.71 666.322 476.613C666.311 476.515 666.311 476.417 666.322 476.319C666.317 476.237 666.317 476.155 666.322 476.072C666.317 475.978 666.317 475.884 666.322 475.79L666.393 475.461C666.393 475.344 666.393 475.215 666.475 475.097C666.557 474.98 666.475 474.85 666.557 474.733C666.582 474.628 666.602 474.522 666.616 474.416C666.621 474.334 666.621 474.251 666.616 474.169V474.169C666.593 474.16 666.568 474.16 666.545 474.169H666.169C666.1 474.181 666.028 474.181 665.958 474.169C665.895 474.143 665.839 474.102 665.794 474.052C665.745 473.988 665.72 473.909 665.723 473.828C665.71 473.778 665.71 473.726 665.723 473.676C665.737 473.634 665.761 473.598 665.794 473.57C665.832 473.559 665.873 473.559 665.911 473.57H666.052H666.898C666.929 473.513 666.957 473.454 666.98 473.394L667.097 473.088L667.238 472.724C667.238 472.583 667.321 472.465 667.356 472.348C667.395 472.214 667.468 472.093 667.567 471.995C667.658 471.916 667.776 471.874 667.896 471.878C667.962 471.864 668.03 471.864 668.096 471.878C668.138 471.9 668.175 471.932 668.201 471.972C668.213 472.01 668.213 472.051 668.201 472.089C668.207 472.132 668.207 472.176 668.201 472.219V472.313C668.201 472.313 668.201 472.418 668.143 472.489C668.121 472.573 668.093 472.655 668.06 472.736C668.034 472.827 668.003 472.918 667.966 473.006L667.884 473.264C667.854 473.332 667.83 473.403 667.814 473.476H667.966H668.225H668.53H668.824H669.071H669.2C669.317 473.462 669.435 473.462 669.552 473.476C669.625 473.483 669.697 473.503 669.763 473.535C669.801 473.564 669.833 473.599 669.857 473.64C669.88 473.631 669.904 473.623 669.928 473.617Z" fill="black"/>
<path id="Vector_179" d="M670.222 475.99C670.222 475.873 670.292 475.72 670.339 475.532C670.386 475.344 670.421 475.156 670.468 474.944L670.609 474.263C670.609 474.04 670.691 473.805 670.727 473.582C670.762 473.358 670.797 473.159 670.832 472.971C670.842 472.806 670.842 472.641 670.832 472.477V472.254C670.827 472.199 670.827 472.144 670.832 472.089C670.851 472.018 670.883 471.95 670.926 471.89C670.969 471.824 671.025 471.768 671.091 471.725C671.191 471.704 671.295 471.704 671.396 471.725C671.473 471.705 671.554 471.705 671.631 471.725C671.699 471.76 671.756 471.813 671.795 471.878C671.844 471.953 671.88 472.037 671.901 472.125C671.901 472.219 671.901 472.324 671.995 472.442C672.038 472.582 672.089 472.719 672.148 472.853C672.218 473.018 672.312 473.194 672.406 473.394L672.758 474.016L673.169 474.674C673.31 474.897 673.463 475.121 673.616 475.332C673.768 475.544 673.921 475.755 674.074 475.943C674.074 475.802 674.109 475.649 674.18 475.485C674.18 475.332 674.25 475.168 674.273 475.003C674.297 474.839 674.332 474.674 674.367 474.521C674.403 474.369 674.367 474.216 674.438 474.087C674.508 473.957 674.438 473.828 674.497 473.734C674.555 473.64 674.497 473.546 674.497 473.488C674.497 473.429 674.567 473.076 674.602 472.912C674.638 472.747 674.661 472.595 674.673 472.442C674.685 472.289 674.673 472.16 674.673 472.019C674.673 471.878 674.673 471.725 674.673 471.561C674.667 471.514 674.667 471.466 674.673 471.42C674.668 471.369 674.668 471.318 674.673 471.267C674.69 471.223 674.71 471.18 674.732 471.138C674.749 471.096 674.778 471.059 674.814 471.032C674.851 470.99 674.894 470.954 674.943 470.926H675.06H675.166H675.295C675.376 470.923 675.455 470.948 675.518 470.997C675.577 471.038 675.622 471.095 675.648 471.161C675.654 471.235 675.654 471.31 675.648 471.384C675.653 471.467 675.653 471.549 675.648 471.631C675.65 471.674 675.65 471.717 675.648 471.76C675.653 471.831 675.653 471.901 675.648 471.972C675.648 472.054 675.648 472.136 675.648 472.219C675.643 472.293 675.643 472.367 675.648 472.442C675.53 472.865 675.436 473.264 675.354 473.617C675.272 473.969 675.201 474.345 675.143 474.686C675.084 475.027 675.025 475.32 674.99 475.614C674.955 475.908 674.908 476.155 674.872 476.39V476.484C674.867 476.515 674.867 476.547 674.872 476.578V476.836C674.88 476.95 674.855 477.064 674.802 477.165C674.763 477.234 674.706 477.291 674.638 477.33C674.573 477.369 674.501 477.393 674.426 477.4H674.226C674.13 477.405 674.034 477.376 673.956 477.318C673.879 477.263 673.811 477.196 673.757 477.118L673.569 476.789C673.491 476.651 673.405 476.517 673.31 476.39C673.005 475.99 672.7 475.555 672.394 475.085C672.089 474.627 671.772 474.11 671.455 473.535L671.314 474.286C671.314 474.545 671.232 474.803 671.196 475.062C671.161 475.32 671.126 475.555 671.102 475.79C671.079 476.025 671.102 476.237 671.02 476.413C671.026 476.491 671.026 476.57 671.02 476.648V476.883C671.02 476.954 671.02 477.024 671.02 477.071C671.024 477.106 671.024 477.142 671.02 477.177L670.961 477.294L670.844 477.435C670.805 477.48 670.757 477.516 670.703 477.541C670.65 477.558 670.592 477.558 670.539 477.541C670.458 477.561 670.373 477.561 670.292 477.541C670.227 477.518 670.173 477.472 670.139 477.412C670.101 477.35 670.073 477.283 670.057 477.212C670.051 477.114 670.051 477.016 670.057 476.918C670.052 476.856 670.052 476.793 670.057 476.73V476.495C670.057 476.401 670.057 476.319 670.116 476.225C670.155 476.149 670.19 476.07 670.222 475.99Z" fill="black"/>
<path id="Vector_180" d="M682.483 474.323C682.499 474.377 682.499 474.434 682.483 474.488L682.354 474.664L682.178 474.828L681.966 474.993L681.778 475.11L681.626 475.193L681.356 475.275L680.992 475.334H680.627H680.263H680.146H680.04H679.935C679.952 475.399 679.952 475.468 679.935 475.533C679.941 475.608 679.941 475.682 679.935 475.757C679.935 475.757 679.935 475.862 679.935 475.933C679.935 476.003 679.935 476.074 679.935 476.144C679.94 476.215 679.94 476.285 679.935 476.356C679.917 476.415 679.889 476.471 679.852 476.52C679.791 476.632 679.721 476.738 679.641 476.838C679.564 476.936 679.477 477.027 679.383 477.108C679.284 477.195 679.178 477.274 679.065 477.343C678.933 477.423 678.796 477.494 678.654 477.554C678.497 477.627 678.331 477.678 678.161 477.707C677.989 477.719 677.816 477.719 677.644 477.707C677.523 477.714 677.404 477.681 677.304 477.613C677.197 477.54 677.109 477.443 677.045 477.331C676.97 477.212 676.914 477.081 676.881 476.943C676.844 476.789 676.824 476.632 676.822 476.473C676.822 476.473 676.822 476.379 676.822 476.321V476.133V475.956C676.822 475.956 676.822 475.851 676.822 475.804C676.87 475.672 676.925 475.542 676.987 475.416C677.06 475.266 677.142 475.121 677.233 474.981C677.328 474.825 677.434 474.676 677.55 474.535C677.663 474.391 677.789 474.257 677.926 474.135C678.057 474.03 678.199 473.94 678.349 473.865C678.48 473.797 678.625 473.761 678.772 473.759H678.924C678.955 473.753 678.987 473.753 679.018 473.759L679.077 473.83L679.148 473.9H679.265C679.356 473.9 679.444 473.933 679.512 473.994C679.6 474.058 679.682 474.129 679.758 474.206L679.876 474.312L679.982 474.405L680.064 474.476H680.122H680.839H681.05H681.156H681.379L681.661 474.405L681.943 474.335L682.178 474.276H682.283H682.413C682.413 474.276 682.483 474.265 682.483 474.323ZM677.856 477.002C678.059 477.002 678.258 476.945 678.431 476.838C678.601 476.714 678.745 476.559 678.854 476.379C678.968 476.172 679.055 475.951 679.112 475.721C679.183 475.473 679.218 475.216 679.218 474.958C679.195 474.916 679.167 474.877 679.136 474.84C679.099 474.795 679.055 474.756 679.007 474.723L678.866 474.64H678.737C678.659 474.645 678.585 474.674 678.525 474.723L678.325 474.875C678.253 474.94 678.186 475.011 678.126 475.087L677.95 475.381L677.809 475.721C677.809 475.839 677.726 475.956 677.691 476.074C677.657 476.185 677.633 476.299 677.621 476.415C677.61 476.512 677.61 476.611 677.621 476.708C677.615 476.747 677.615 476.787 677.621 476.826C677.633 476.868 677.653 476.908 677.679 476.943L677.762 477.014C677.762 477.014 677.809 477.002 677.856 477.002V477.002Z" fill="black"/>
<path id="Vector_181" d="M687.674 474.11C687.604 474.216 687.533 474.322 687.475 474.427L687.322 474.745L687.181 475.085C687.181 475.203 687.087 475.32 687.04 475.461L686.923 475.826L686.782 476.26C686.782 476.401 686.688 476.542 686.629 476.695C686.584 476.824 686.529 476.95 686.465 477.071C686.425 477.166 686.37 477.254 686.3 477.33C686.281 477.359 686.255 477.384 686.224 477.403C686.194 477.421 686.16 477.432 686.124 477.435C685.976 477.439 685.829 477.416 685.69 477.365C685.564 477.307 685.452 477.223 685.361 477.118L685.185 476.883C685.137 476.807 685.094 476.729 685.055 476.648C685.055 476.566 684.973 476.484 684.938 476.39L684.82 476.108C684.762 475.967 684.715 475.837 684.668 475.708C684.617 475.58 684.582 475.445 684.562 475.309C684.524 475.405 684.481 475.499 684.433 475.591C684.433 475.696 684.339 475.814 684.28 475.92C684.221 476.025 684.174 476.155 684.116 476.26L683.975 476.542C683.869 476.742 683.763 476.918 683.681 477.083C683.599 477.247 683.505 477.365 683.435 477.459C683.379 477.55 683.308 477.629 683.223 477.694C683.174 477.745 683.106 477.774 683.035 477.776C682.967 477.773 682.901 477.756 682.84 477.726C682.779 477.695 682.726 477.652 682.683 477.6C682.551 477.463 682.443 477.304 682.366 477.13C682.26 476.919 682.173 476.699 682.107 476.472C682.029 476.229 681.959 475.982 681.896 475.732C681.896 475.473 681.802 475.238 681.767 474.991C681.732 474.745 681.767 474.557 681.767 474.369C681.761 474.298 681.761 474.228 681.767 474.157C681.75 474.104 681.75 474.046 681.767 473.993L681.884 473.84L681.978 473.734H682.084C682.142 473.726 682.202 473.726 682.26 473.734C682.318 473.717 682.379 473.717 682.436 473.734C682.484 473.763 682.528 473.799 682.565 473.84C682.596 473.887 682.62 473.939 682.636 473.993C682.646 474.039 682.646 474.087 682.636 474.134V474.38C682.63 474.459 682.63 474.537 682.636 474.615V474.874C682.636 474.968 682.636 475.085 682.636 475.226C682.636 475.367 682.636 475.344 682.636 475.438C682.63 475.536 682.63 475.634 682.636 475.732L682.706 476.049C682.706 476.166 682.765 476.26 682.789 476.343C682.803 476.418 682.83 476.489 682.871 476.554C682.871 476.554 682.871 476.636 682.941 476.636L683.117 476.284L683.294 475.931C683.364 475.79 683.435 475.649 683.517 475.508C683.584 475.368 683.659 475.23 683.74 475.097L683.94 474.721C683.983 474.653 684.022 474.583 684.057 474.51L684.186 474.286L684.339 474.075C684.396 474 684.463 473.933 684.539 473.875L684.773 473.934C684.836 473.967 684.891 474.01 684.938 474.063C684.989 474.126 685.014 474.206 685.008 474.286V474.345V474.404C684.999 474.502 684.999 474.6 685.008 474.698C685.03 474.825 685.061 474.951 685.102 475.074C685.102 475.203 685.185 475.332 685.232 475.461C685.277 475.594 685.332 475.724 685.396 475.849C685.441 475.963 685.496 476.073 685.56 476.178C685.605 476.264 685.656 476.347 685.713 476.425C685.792 476.218 685.859 476.006 685.913 475.79C685.971 475.579 686.03 475.379 686.101 475.168C686.165 474.955 686.244 474.747 686.336 474.545C686.435 474.313 686.553 474.089 686.688 473.875L686.782 473.77L686.923 473.664C686.974 473.633 687.03 473.61 687.087 473.593C687.141 473.582 687.197 473.582 687.252 473.593H687.393L687.487 473.675C687.493 473.714 687.493 473.754 687.487 473.793C687.493 473.836 687.493 473.879 687.487 473.922C687.492 473.961 687.492 474.001 687.487 474.04C687.521 474.036 687.556 474.04 687.589 474.053C687.621 474.065 687.651 474.085 687.674 474.11V474.11Z" fill="black"/>
</g>
</g>
<defs>
<clipPath id="clip0">
<rect width="797" height="567" fill="white"/>
</clipPath>
</defs>
</svg>
