<svg width="100%" height="100%" viewBox="0 0 475 500" fill="none" xmlns="http://www.w3.org/2000/svg">
<g id="doctor">
<path id="bg" fill-rule="evenodd" clip-rule="evenodd" d="M383.69 0C227.34 34.4 352.43 171.07 272 298.75C201.21 411.21 21.76 298.22 0.200012 500H475V0H383.69Z" fill="rgb(36, 60, 80)"/>
<path id="line" fill-rule="evenodd" clip-rule="evenodd" d="M475 456.1H66.05C64.9581 456.103 63.9117 456.538 63.1396 457.31C62.3675 458.082 61.9326 459.128 61.93 460.22C61.9326 461.312 62.3675 462.358 63.1396 463.13C63.9117 463.902 64.9581 464.337 66.05 464.34H475V456.1Z" fill="#ff9900"/>
<g id="phone">
<path id="Vector" d="M275.28 65.74H421.44C427.079 65.7426 432.486 67.9831 436.474 71.9692C440.462 75.9554 442.705 81.3614 442.71 87V434.83C442.71 440.471 440.469 445.881 436.48 449.87C432.491 453.859 427.081 456.1 421.44 456.1H275.28C272.486 456.101 269.719 455.552 267.137 454.484C264.555 453.415 262.21 451.849 260.233 449.874C258.257 447.898 256.69 445.553 255.62 442.972C254.55 440.391 254 437.624 254 434.83V87C254.005 81.3597 256.25 75.9521 260.24 71.9657C264.23 67.9792 269.64 65.74 275.28 65.74Z" fill="#989899"/>
<path id="Vector_2" d="M263.42 65.74H409.57C415.21 65.74 420.62 67.9792 424.61 71.9657C428.6 75.9521 430.845 81.3597 430.85 87V434.83C430.85 440.471 428.609 445.881 424.62 449.87C420.631 453.859 415.221 456.1 409.58 456.1H263.42C260.625 456.1 257.858 455.55 255.276 454.48C252.695 453.411 250.349 451.843 248.373 449.867C246.397 447.891 244.829 445.545 243.76 442.964C242.69 440.382 242.14 437.615 242.14 434.82V87C242.145 81.3597 244.39 75.9521 248.38 71.9657C252.37 67.9792 257.78 65.74 263.42 65.74Z" fill="#D6D6D6"/>
<path id="Vector_3" d="M413.04 118.64H259.94C257.77 118.64 256.01 120.4 256.01 122.57V399.28C256.01 401.45 257.77 403.21 259.94 403.21H413.04C415.21 403.21 416.97 401.45 416.97 399.28V122.57C416.97 120.4 415.21 118.64 413.04 118.64Z" fill="#2E5F77"/>
<path id="Vector_4" fill-rule="evenodd" clip-rule="evenodd" d="M336.49 447.2C339.876 447.202 343.187 446.2 346.004 444.32C348.821 442.44 351.017 439.767 352.314 436.638C353.611 433.51 353.952 430.068 353.292 426.746C352.633 423.425 351.003 420.373 348.609 417.978C346.215 415.583 343.165 413.951 339.844 413.29C336.522 412.628 333.08 412.967 329.951 414.262C326.822 415.558 324.148 417.752 322.266 420.568C320.384 423.383 319.38 426.694 319.38 430.08C319.385 434.617 321.189 438.967 324.397 442.176C327.604 445.385 331.953 447.192 336.49 447.2Z" fill="#989899"/>
<path id="Vector_5" fill-rule="evenodd" clip-rule="evenodd" d="M347.07 101.51C347.33 101.529 347.592 101.494 347.838 101.407C348.085 101.321 348.31 101.184 348.502 101.006C348.693 100.829 348.845 100.613 348.95 100.374C349.054 100.134 349.108 99.8761 349.108 99.615C349.108 99.3539 349.054 99.0956 348.95 98.8562C348.845 98.6168 348.693 98.4015 348.502 98.2236C348.31 98.0458 348.085 97.9093 347.838 97.8227C347.592 97.736 347.33 97.7011 347.07 97.72H315.85C315.371 97.7548 314.923 97.9696 314.596 98.3211C314.269 98.6727 314.088 99.1349 314.088 99.615C314.088 100.095 314.269 100.557 314.596 100.909C314.923 101.26 315.371 101.475 315.85 101.51H347.07ZM357.13 101.51C357.39 101.529 357.652 101.494 357.898 101.407C358.145 101.321 358.37 101.184 358.562 101.006C358.753 100.829 358.905 100.613 359.01 100.374C359.114 100.134 359.168 99.8761 359.168 99.615C359.168 99.3539 359.114 99.0956 359.01 98.8562C358.905 98.6168 358.753 98.4015 358.562 98.2236C358.37 98.0458 358.145 97.9093 357.898 97.8227C357.652 97.736 357.39 97.7011 357.13 97.72H354.82C354.56 97.7011 354.298 97.736 354.052 97.8227C353.805 97.9093 353.58 98.0458 353.388 98.2236C353.197 98.4015 353.045 98.6168 352.94 98.8562C352.836 99.0956 352.782 99.3539 352.782 99.615C352.782 99.8761 352.836 100.134 352.94 100.374C353.045 100.613 353.197 100.829 353.388 101.006C353.58 101.184 353.805 101.321 354.052 101.407C354.298 101.494 354.56 101.529 354.82 101.51H357.13Z" fill="#59595B"/>
<path id="Vector_6" fill-rule="evenodd" clip-rule="evenodd" d="M260.31 182.5L267 193C267 193 265.78 201.49 264.36 212.7L244.46 206.88C245.87 196.88 246.93 189.88 246.93 189.88L260.31 182.5Z" fill="#CB6459"/>
<path id="Vector_7" fill-rule="evenodd" clip-rule="evenodd" d="M274.84 186.83C277.254 183.977 280.405 181.843 283.95 180.66C286.05 180.03 281.9 172.66 275.69 177.88C275.69 177.88 272.04 179.14 271.18 177.69C270.32 176.24 279.29 155.64 280.27 153.39C280.436 152.997 280.502 152.568 280.461 152.143C280.42 151.718 280.274 151.31 280.035 150.956C279.797 150.602 279.475 150.312 279.097 150.114C278.718 149.916 278.297 149.815 277.87 149.82C276.87 150.05 275.49 153.33 273.46 157.36C271.43 161.39 269.1 165.91 268.55 166.11C268 166.31 267.09 165.81 267.34 163.11C267.59 160.41 269.53 145.96 268.81 144.77C268.09 143.58 265.53 143.58 264.59 145.67C263.65 147.76 262.25 162.49 261.47 164.32C260.69 166.15 259.03 165.11 258.79 163.74C258.55 162.37 257.79 146.19 257.17 145.06C256.55 143.93 253.93 144.01 253.51 146.43C253.09 148.85 253.16 164.36 252.51 165.33C251.86 166.3 250.19 166.33 248.88 163.54C247.57 160.75 245.49 154.72 244.7 154.23C243.91 153.74 241.46 155.62 242.28 158.69C243.1 161.76 244.88 169.45 245 170.62C245.64 176.81 244.49 182.62 245.65 187.35C246.111 189.123 246.981 190.764 248.19 192.14C249.711 193.9 251.576 195.328 253.671 196.338C255.766 197.348 258.046 197.917 260.37 198.01C268.37 198.2 270.27 192.28 274.84 186.83Z" fill="#E6AD83"/>
<path id="Vector_8" fill-rule="evenodd" clip-rule="evenodd" d="M245.91 196.77C252.024 200.053 258.906 201.638 265.84 201.36C265.84 201.36 266.9 202.56 266.9 203.36C266.74 204.681 266.513 205.992 266.22 207.29C267.399 208.505 268.278 209.979 268.788 211.593C269.299 213.207 269.426 214.918 269.16 216.59C268.32 222.47 265.27 262.15 265.27 262.15C265.27 262.15 295.51 243.04 300.27 239.9C301.547 239.098 302.926 238.472 304.37 238.04L303.9 251.3L295.78 292.94L256 300.43C256 300.43 236.9 303.36 235.64 283.84C234.38 264.32 240.24 208 240.24 208C240.24 208 240.87 203.69 243.86 203.06L244.2 198.44C244.236 198.002 244.428 197.592 244.742 197.285C245.057 196.978 245.471 196.795 245.91 196.77Z" fill="white"/>
<path id="Vector_9" fill-rule="evenodd" clip-rule="evenodd" d="M266.55 245.86C265.84 254.75 265.27 262.14 265.27 262.14L251.83 270.14L266.55 245.9V245.86ZM304.22 241.56L303.87 251.29L295.75 292.93L279.38 296L304.22 241.54V241.56Z" fill="#C5D2EB"/>
<path id="Vector_10" fill-rule="evenodd" clip-rule="evenodd" d="M406.69 249C409.25 270.14 404.43 306.8 404.43 306.8L391.5 336.05C391.5 336.05 404.17 397.14 403.42 403.2H362.73C352.34 398.26 339.01 394.58 322.35 394.58H290.46C289.016 393.422 287.822 391.983 286.95 390.35C286.079 388.717 285.548 386.924 285.39 385.08C285 379 295.77 344 296 337.54C296.93 313.39 293.72 285.44 298.12 262.26C298.418 260.676 298.819 259.112 299.32 257.58L304.32 238.03C304.32 238.03 315.6 233.98 323.63 232.1C329.05 234.92 331.85 231.39 340.2 230.32C349.925 229.931 359.665 230.265 369.34 231.32C378.523 233.255 387.367 236.548 395.58 241.09C399.539 243.348 403.261 245.998 406.69 249V249Z" fill="white"/>
<path id="Vector_11" fill-rule="evenodd" clip-rule="evenodd" d="M370.09 240.7L385.85 265.85L341.11 333.31L328.51 334.56L310.14 271.04L321.06 257.71L370.09 240.7Z" fill="#CCD7ED"/>
<path id="Vector_12" fill-rule="evenodd" clip-rule="evenodd" d="M316.35 234.08C318.83 233.34 321.35 232.63 323.65 232.08C329.07 234.9 331.87 231.37 340.22 230.3C349.945 229.911 359.685 230.245 369.36 231.3C373.257 232.104 377.096 233.17 380.85 234.49L386.05 250.43L377.44 254.63L349.93 267.23L333.76 266.6L310.04 257.6L316.35 234.08Z" fill="#9BADD7"/>
<path id="Vector_13" fill-rule="evenodd" clip-rule="evenodd" d="M404.38 306.93L391.5 336.05C391.5 336.05 404.17 397.14 403.42 403.2H362.73C355.207 399.649 347.217 397.184 339 395.88L333.38 382.75L351.15 356.87C351.15 356.87 387.21 337.14 388.78 334.72C390.35 332.3 389.94 328.84 389.94 328.84L389.53 277.22L404.38 306.93Z" fill="#DDE5F4"/>
<path id="Vector_14" fill-rule="evenodd" clip-rule="evenodd" d="M341.45 233.65L327.84 240.73L335.15 328.35L358.95 262.04L366.65 239.34L341.45 233.65Z" fill="#3E56A1"/>
<path id="Vector_15" fill-rule="evenodd" clip-rule="evenodd" d="M346.77 193.16C338.07 193.16 330.95 200.99 330.95 210.56V233.56C330.95 243.13 338.07 250.96 346.77 250.96C355.48 250.96 362.6 243.13 362.6 233.56V210.56C362.6 201 355.48 193.16 346.77 193.16Z" fill="#D56A5C"/>
<path id="Vector_16" fill-rule="evenodd" clip-rule="evenodd" d="M395.6 241.1C395.6 241.1 414.6 251.5 420.25 265.1C425.9 278.7 425.25 319.69 425.08 339.22C424.291 347.411 420.906 355.137 415.42 361.27C406.28 371.35 371.63 401.27 371.63 401.27L351.63 398.81L348.33 379.12L397.25 336.6L389.48 277.17C389.48 277.17 387.17 251.81 395.6 241.1Z" fill="white"/>
<path id="Vector_17" d="M253.49 395H374C374.538 395 375.072 395.106 375.569 395.312C376.066 395.518 376.518 395.82 376.899 396.201C377.28 396.582 377.582 397.034 377.788 397.531C377.994 398.028 378.1 398.562 378.1 399.1C378.101 399.639 377.996 400.173 377.791 400.671C377.585 401.169 377.283 401.621 376.902 402.002C376.521 402.383 376.069 402.685 375.571 402.891C375.073 403.096 374.539 403.201 374 403.2H253.49C252.405 403.2 251.365 402.769 250.598 402.002C249.831 401.235 249.4 400.195 249.4 399.11C249.399 398.572 249.503 398.038 249.708 397.54C249.913 397.042 250.214 396.59 250.594 396.208C250.974 395.826 251.425 395.523 251.922 395.316C252.419 395.109 252.952 395.001 253.49 395V395Z" fill="#222D5A"/>
<path id="Vector_18" fill-rule="evenodd" clip-rule="evenodd" d="M253.49 403.2H374C374.695 403.199 375.377 403.021 375.984 402.683C376.591 402.345 377.102 401.859 377.47 401.27C377.102 400.681 376.59 400.196 375.984 399.858C375.377 399.521 374.694 399.342 374 399.34H253.49C252.795 399.34 252.112 399.517 251.504 399.854C250.897 400.192 250.386 400.679 250.02 401.27C250.386 401.861 250.897 402.348 251.504 402.686C252.112 403.023 252.795 403.2 253.49 403.2Z" fill="#141A2D"/>
<path id="Vector_19" fill-rule="evenodd" clip-rule="evenodd" d="M250.3 395H353.48C354.159 395.015 354.834 394.881 355.456 394.608C356.078 394.334 356.633 393.928 357.081 393.417C357.529 392.906 357.86 392.303 358.049 391.65C358.239 390.998 358.284 390.312 358.18 389.64L350 322.82C349.791 321.363 349.075 320.027 347.977 319.046C346.879 318.066 345.471 317.504 344 317.46H240.76C240.081 317.445 239.406 317.578 238.784 317.852C238.162 318.126 237.607 318.532 237.159 319.043C236.711 319.554 236.38 320.157 236.19 320.81C236.001 321.462 235.956 322.148 236.06 322.82L244.29 389.65C244.501 391.107 245.22 392.442 246.32 393.421C247.419 394.399 248.829 394.959 250.3 395V395Z" fill="#141A2D"/>
<path id="Vector_20" fill-rule="evenodd" clip-rule="evenodd" d="M250.3 395H350.44C351.119 395.015 351.794 394.881 352.416 394.608C353.038 394.334 353.593 393.928 354.041 393.417C354.489 392.906 354.82 392.303 355.009 391.65C355.199 390.998 355.244 390.312 355.14 389.64L346.92 322.81C346.707 321.355 345.99 320.021 344.893 319.041C343.796 318.061 342.39 317.498 340.92 317.45H240.76C240.081 317.435 239.406 317.568 238.784 317.842C238.162 318.116 237.607 318.522 237.159 319.033C236.711 319.544 236.38 320.147 236.19 320.8C236.001 321.452 235.956 322.138 236.06 322.81L244.29 389.64C244.499 391.099 245.217 392.436 246.317 393.417C247.416 394.398 248.827 394.958 250.3 395Z" fill="#222D5A"/>
<path id="Vector_21" fill-rule="evenodd" clip-rule="evenodd" d="M329.15 389.61H320.28L250.28 330.84L250.69 327.47C250.825 326.467 251.249 325.526 251.91 324.76L329.16 389.61H329.15ZM262 322.85L338.35 387C338.717 386.389 338.948 385.707 339.03 385L340.13 376.05L276.76 322.85H262Z" fill="#304487"/>
<path id="Vector_22" d="M359 395H374C374.538 395 375.072 395.106 375.569 395.312C376.066 395.518 376.518 395.82 376.899 396.201C377.28 396.582 377.582 397.034 377.788 397.531C377.994 398.028 378.1 398.562 378.1 399.1C378.101 399.639 377.996 400.173 377.791 400.671C377.585 401.169 377.283 401.621 376.902 402.002C376.521 402.383 376.069 402.685 375.571 402.891C375.073 403.096 374.539 403.201 374 403.2H359C357.915 403.2 356.875 402.769 356.108 402.002C355.341 401.235 354.91 400.195 354.91 399.11C354.909 398.572 355.013 398.038 355.218 397.54C355.423 397.042 355.724 396.59 356.104 396.208C356.484 395.826 356.935 395.523 357.432 395.316C357.929 395.109 358.462 395.001 359 395V395Z" fill="#222D5A"/>
<path id="Vector_23" d="M358.78 392.96H251.44C250.308 392.96 249.39 393.878 249.39 395.01C249.39 396.142 250.308 397.06 251.44 397.06H358.78C359.912 397.06 360.83 396.142 360.83 395.01C360.83 393.878 359.912 392.96 358.78 392.96Z" fill="#304487"/>
<path id="Vector_24" fill-rule="evenodd" clip-rule="evenodd" d="M290.91 345.93C289.605 345.897 288.308 346.152 287.113 346.677C285.917 347.202 284.852 347.984 283.993 348.968C283.133 349.951 282.501 351.111 282.141 352.367C281.782 353.622 281.702 354.941 281.91 356.23C282.311 359.04 283.696 361.617 285.818 363.503C287.94 365.389 290.662 366.462 293.5 366.53C294.805 366.561 296.101 366.305 297.295 365.779C298.49 365.253 299.554 364.471 300.413 363.489C301.272 362.506 301.904 361.346 302.265 360.092C302.625 358.837 302.706 357.519 302.5 356.23C302.391 355.35 302.173 354.486 301.85 353.66C301.423 354.16 300.89 354.56 300.29 354.83C299.69 355.099 299.038 355.233 298.38 355.22C296.979 355.184 295.636 354.654 294.588 353.722C293.541 352.79 292.858 351.518 292.66 350.13C292.559 349.449 292.615 348.754 292.825 348.099C293.034 347.444 293.392 346.845 293.87 346.35C292.907 346.075 291.911 345.933 290.91 345.93V345.93Z" fill="#DDE5F4"/>
<path id="Vector_25" fill-rule="evenodd" clip-rule="evenodd" d="M362.6 230.76L343.31 250.54L358.95 262.04L369.36 231.33L362.6 225.69V230.76Z" fill="#6F87C2"/>
<path id="Vector_26" fill-rule="evenodd" clip-rule="evenodd" d="M330.95 230.76L343.31 250.54L329.15 256.47L323.65 232.1L330.95 226.64V230.76Z" fill="#6F87C2"/>
<path id="Vector_27" fill-rule="evenodd" clip-rule="evenodd" d="M311.9 286.45C312.545 286.452 313.176 286.262 313.714 285.905C314.251 285.548 314.671 285.04 314.919 284.444C315.167 283.849 315.233 283.193 315.109 282.56C314.984 281.927 314.674 281.345 314.219 280.888C313.763 280.431 313.182 280.12 312.55 279.993C311.917 279.867 311.261 279.931 310.665 280.177C310.068 280.424 309.559 280.841 309.2 281.378C308.841 281.914 308.65 282.545 308.65 283.19C308.653 284.052 308.996 284.878 309.604 285.489C310.213 286.099 311.038 286.445 311.9 286.45V286.45Z" fill="#141A2D"/>
<path id="Vector_28" fill-rule="evenodd" clip-rule="evenodd" d="M361.52 302.87C362.018 302.87 362.506 302.722 362.92 302.445C363.334 302.168 363.657 301.775 363.848 301.314C364.039 300.854 364.089 300.347 363.992 299.858C363.894 299.37 363.654 298.921 363.302 298.568C362.949 298.216 362.5 297.976 362.012 297.878C361.523 297.781 361.016 297.831 360.556 298.022C360.095 298.213 359.702 298.536 359.425 298.95C359.148 299.364 359 299.852 359 300.35C359 301.018 359.266 301.659 359.738 302.132C360.211 302.604 360.852 302.87 361.52 302.87V302.87Z" fill="#141A2D"/>
<path id="Vector_29" fill-rule="evenodd" clip-rule="evenodd" d="M388.4 302.87C388.898 302.87 389.386 302.722 389.8 302.445C390.214 302.168 390.537 301.775 390.728 301.314C390.919 300.854 390.969 300.347 390.872 299.858C390.774 299.37 390.534 298.921 390.182 298.568C389.829 298.216 389.38 297.976 388.892 297.878C388.403 297.781 387.896 297.831 387.436 298.022C386.975 298.213 386.582 298.536 386.305 298.95C386.028 299.364 385.88 299.852 385.88 300.35C385.88 301.018 386.146 301.659 386.618 302.132C387.091 302.604 387.732 302.87 388.4 302.87V302.87Z" fill="#141A2D"/>
<path id="Vector_30" fill-rule="evenodd" clip-rule="evenodd" d="M389 299.93C388.981 300.075 388.91 300.207 388.801 300.303C388.692 300.4 388.551 300.453 388.405 300.453C388.259 300.453 388.118 300.4 388.009 300.303C387.9 300.207 387.829 300.075 387.81 299.93V272.63C387.717 269.285 386.322 266.109 383.924 263.776C381.525 261.444 378.311 260.138 374.965 260.138C371.619 260.138 368.405 261.444 366.006 263.776C363.608 266.109 362.213 269.285 362.12 272.63V299.93C362.121 300.008 362.107 300.085 362.078 300.157C362.049 300.23 362.005 300.295 361.95 300.35C361.895 300.405 361.83 300.449 361.757 300.478C361.685 300.507 361.608 300.521 361.53 300.52C361.452 300.521 361.374 300.507 361.301 300.478C361.228 300.449 361.162 300.406 361.106 300.351C361.05 300.296 361.006 300.23 360.976 300.158C360.946 300.086 360.93 300.008 360.93 299.93V272.63C360.93 268.908 362.409 265.338 365.041 262.706C367.673 260.074 371.243 258.595 374.965 258.595C378.687 258.595 382.257 260.074 384.889 262.706C387.521 265.338 389 268.908 389 272.63V299.93Z" fill="#141A2D"/>
<path id="Vector_31" fill-rule="evenodd" clip-rule="evenodd" d="M390.18 272.63C390.198 272.876 390.166 273.122 390.085 273.355C390.003 273.587 389.875 273.801 389.707 273.981C389.54 274.162 389.337 274.306 389.111 274.404C388.885 274.503 388.641 274.554 388.395 274.554C388.149 274.554 387.905 274.503 387.679 274.404C387.453 274.306 387.25 274.162 387.083 273.981C386.915 273.801 386.787 273.587 386.705 273.355C386.624 273.122 386.592 272.876 386.61 272.63C386.521 269.598 385.254 266.72 383.078 264.607C380.902 262.493 377.988 261.311 374.955 261.311C371.922 261.311 369.008 262.493 366.832 264.607C364.656 266.72 363.389 269.598 363.3 272.63C363.318 272.876 363.286 273.122 363.205 273.355C363.123 273.587 362.995 273.801 362.827 273.981C362.66 274.162 362.457 274.306 362.231 274.404C362.005 274.503 361.761 274.554 361.515 274.554C361.269 274.554 361.025 274.503 360.799 274.404C360.573 274.306 360.37 274.162 360.203 273.981C360.035 273.801 359.907 273.587 359.825 273.355C359.744 273.122 359.712 272.876 359.73 272.63C359.832 268.66 361.48 264.886 364.325 262.114C367.169 259.342 370.983 257.79 374.955 257.79C378.927 257.79 382.741 259.342 385.585 262.114C388.43 264.886 390.078 268.66 390.18 272.63V272.63Z" fill="#141A2D"/>
<path id="Vector_32" fill-rule="evenodd" clip-rule="evenodd" d="M331 226.79H330.62C325.832 226.806 321.245 228.715 317.86 232.1C314.475 235.485 312.566 240.072 312.55 244.86V282.77C312.55 282.929 312.487 283.082 312.374 283.194C312.262 283.307 312.109 283.37 311.95 283.37C311.872 283.37 311.794 283.354 311.722 283.324C311.65 283.294 311.584 283.25 311.529 283.194C311.474 283.138 311.431 283.072 311.402 282.999C311.373 282.926 311.359 282.848 311.36 282.77V244.86C311.373 239.756 313.407 234.865 317.016 231.256C320.625 227.647 325.516 225.613 330.62 225.6H331V226.79Z" fill="#141A2D"/>
<path id="Vector_33" fill-rule="evenodd" clip-rule="evenodd" d="M362.6 225.6H363.78C366.9 225.611 369.889 226.855 372.095 229.063C374.3 231.27 375.542 234.26 375.55 237.38V260.08C375.551 260.158 375.537 260.236 375.508 260.309C375.479 260.382 375.436 260.448 375.381 260.504C375.326 260.56 375.26 260.604 375.188 260.634C375.116 260.664 375.038 260.68 374.96 260.68C374.881 260.68 374.803 260.664 374.73 260.634C374.658 260.604 374.591 260.56 374.536 260.504C374.48 260.449 374.436 260.382 374.406 260.31C374.376 260.237 374.36 260.159 374.36 260.08V237.38C374.352 234.576 373.235 231.888 371.253 229.904C369.271 227.92 366.584 226.801 363.78 226.79H362.6V225.6Z" fill="#141A2D"/>
<path id="Vector_34" fill-rule="evenodd" clip-rule="evenodd" d="M314.06 187.49L313.45 187.63C311.587 188.114 309.944 189.218 308.792 190.76C307.639 192.301 307.046 194.189 307.108 196.113C307.171 198.037 307.886 199.882 309.136 201.345C310.387 202.809 312.097 203.803 313.988 204.166C315.878 204.528 317.836 204.236 319.538 203.339C321.241 202.441 322.588 200.991 323.357 199.226C324.126 197.462 324.272 195.488 323.771 193.63C323.27 191.771 322.152 190.139 320.6 189C320.93 191.49 320.68 194.6 317.51 195.06L317.37 190.18C317.342 189.781 317.233 189.392 317.048 189.037C316.864 188.682 316.609 188.369 316.299 188.117C315.988 187.865 315.629 187.679 315.244 187.571C314.859 187.463 314.456 187.436 314.06 187.49V187.49Z" fill="#CB6459"/>
<path id="Vector_35" fill-rule="evenodd" clip-rule="evenodd" d="M375.17 184.63C375.38 184.63 375.58 184.63 375.79 184.71C377.689 185.027 379.423 185.98 380.708 187.413C381.993 188.846 382.752 190.674 382.861 192.596C382.969 194.517 382.421 196.419 381.306 197.988C380.19 199.557 378.574 200.699 376.724 201.228C374.873 201.757 372.897 201.64 371.122 200.897C369.346 200.155 367.876 198.83 366.953 197.141C366.03 195.452 365.709 193.499 366.043 191.603C366.377 189.708 367.345 187.982 368.79 186.71C368.69 189.22 369.23 192.3 372.44 192.46L372.12 187.58C372.116 187.183 372.192 186.789 372.345 186.422C372.498 186.056 372.724 185.724 373.01 185.448C373.295 185.172 373.634 184.957 374.006 184.816C374.377 184.676 374.773 184.612 375.17 184.63V184.63Z" fill="#CB6459"/>
<path id="Vector_36" fill-rule="evenodd" clip-rule="evenodd" d="M342.64 143.77C334.958 144.151 327.739 147.557 322.56 153.244C317.381 158.93 314.663 166.436 315 174.12L316.23 200.48C316.614 208.16 320.021 215.375 325.708 220.55C331.394 225.726 338.898 228.44 346.58 228.1V228.1C354.258 227.716 361.472 224.31 366.647 218.626C371.822 212.941 374.537 205.44 374.2 197.76L373 171.4C372.616 163.718 369.208 156.5 363.519 151.323C357.831 146.145 350.324 143.43 342.64 143.77V143.77Z" fill="#E6AD83"/>
<path id="Vector_37" fill-rule="evenodd" clip-rule="evenodd" d="M337.94 208.25C337.952 209.255 338.166 210.248 338.568 211.169C338.971 212.09 339.554 212.921 340.284 213.612C341.014 214.303 341.875 214.841 342.816 215.194C343.758 215.546 344.76 215.706 345.765 215.664C346.769 215.622 347.755 215.378 348.663 214.948C349.572 214.518 350.385 213.91 351.054 213.16C351.723 212.409 352.235 211.533 352.559 210.581C352.883 209.63 353.012 208.623 352.94 207.62V207.62C352.934 207.45 352.893 207.282 352.822 207.128C352.751 206.973 352.649 206.834 352.524 206.719C352.398 206.603 352.251 206.514 352.091 206.456C351.93 206.398 351.76 206.372 351.59 206.38L339.2 206.9C338.857 206.916 338.534 207.066 338.302 207.319C338.069 207.572 337.946 207.907 337.96 208.25H337.94Z" fill="#141A2D"/>
<path id="Vector_38" fill-rule="evenodd" clip-rule="evenodd" d="M341 214C342.378 215.023 344.065 215.542 345.78 215.47C347.181 215.405 348.538 214.955 349.7 214.17C349.296 213.356 348.664 212.678 347.881 212.218C347.098 211.758 346.197 211.536 345.29 211.58C344.422 211.552 343.563 211.762 342.806 212.189C342.049 212.616 341.425 213.242 341 214V214Z" fill="#C5404D"/>
<path id="Vector_39" fill-rule="evenodd" clip-rule="evenodd" d="M351.75 206.38L340.11 206.87C340.007 207.427 340.087 208.002 340.337 208.511C340.588 209.019 340.996 209.432 341.5 209.69C342.57 209.99 350.99 209.42 351.56 208.69C351.823 207.95 351.888 207.153 351.75 206.38V206.38Z" fill="white"/>
<path id="Vector_40" fill-rule="evenodd" clip-rule="evenodd" d="M361.73 199.78C360.974 199.8 360.242 200.044 359.625 200.48C359.008 200.917 358.534 201.527 358.264 202.233C357.994 202.939 357.939 203.709 358.107 204.446C358.274 205.183 358.657 205.854 359.206 206.373C359.755 206.893 360.445 207.238 361.191 207.364C361.936 207.491 362.702 207.394 363.392 207.086C364.082 206.777 364.664 206.27 365.066 205.63C365.468 204.99 365.671 204.246 365.65 203.49C365.621 202.478 365.192 201.52 364.457 200.824C363.722 200.129 362.742 199.753 361.73 199.78V199.78Z" fill="#CB6459"/>
<path id="Vector_41" fill-rule="evenodd" clip-rule="evenodd" d="M328.91 200.7C328.154 200.72 327.422 200.964 326.805 201.4C326.188 201.837 325.714 202.447 325.444 203.153C325.174 203.859 325.119 204.629 325.287 205.366C325.454 206.103 325.837 206.774 326.386 207.293C326.935 207.813 327.625 208.158 328.371 208.284C329.116 208.411 329.882 208.314 330.572 208.006C331.261 207.697 331.844 207.191 332.246 206.55C332.648 205.91 332.851 205.166 332.83 204.41C332.817 203.909 332.705 203.415 332.501 202.957C332.297 202.499 332.004 202.086 331.64 201.741C331.276 201.397 330.847 201.127 330.379 200.948C329.91 200.77 329.411 200.685 328.91 200.7V200.7Z" fill="#CB6459"/>
<path id="Vector_42" fill-rule="evenodd" clip-rule="evenodd" d="M326.68 187.26C326.443 187.393 326.162 187.425 325.901 187.351C325.639 187.277 325.418 187.102 325.285 186.865C325.152 186.628 325.119 186.347 325.194 186.086C325.268 185.824 325.443 185.603 325.68 185.47C327.041 184.669 328.578 184.215 330.156 184.147C331.734 184.079 333.305 184.399 334.73 185.08C334.971 185.213 335.15 185.436 335.227 185.7C335.304 185.965 335.273 186.249 335.14 186.49C335.007 186.731 334.784 186.91 334.52 186.987C334.255 187.064 333.971 187.033 333.73 186.9C332.615 186.38 331.389 186.141 330.16 186.204C328.931 186.267 327.737 186.629 326.68 187.26V187.26Z" fill="#141A2D"/>
<path id="Vector_43" fill-rule="evenodd" clip-rule="evenodd" d="M363.69 185.53C362.575 184.999 361.347 184.749 360.113 184.802C358.879 184.854 357.676 185.207 356.61 185.83C356.497 185.905 356.371 185.957 356.238 185.983C356.105 186.009 355.968 186.008 355.835 185.981C355.702 185.954 355.576 185.901 355.464 185.826C355.351 185.75 355.255 185.653 355.18 185.54C355.105 185.427 355.053 185.3 355.027 185.168C355.001 185.035 355.002 184.898 355.029 184.765C355.056 184.632 355.109 184.506 355.184 184.394C355.26 184.281 355.357 184.185 355.47 184.11C356.819 183.306 358.344 182.844 359.913 182.764C361.481 182.683 363.046 182.988 364.47 183.65C364.719 183.76 364.915 183.965 365.013 184.219C365.112 184.473 365.105 184.756 364.995 185.005C364.885 185.254 364.68 185.45 364.426 185.548C364.172 185.647 363.889 185.64 363.64 185.53H363.69Z" fill="#141A2D"/>
<path id="Vector_44" fill-rule="evenodd" clip-rule="evenodd" d="M360.65 189.15C361.586 189.127 362.494 189.465 363.187 190.095C363.88 190.724 364.303 191.596 364.37 192.53V192.75C364.398 193.218 364.333 193.686 364.177 194.128C364.022 194.57 363.779 194.976 363.464 195.323C363.149 195.669 362.768 195.949 362.343 196.146C361.918 196.343 361.458 196.454 360.99 196.47V196.47C360.052 196.495 359.141 196.156 358.447 195.524C357.754 194.892 357.332 194.016 357.27 193.08V192.87C357.242 192.402 357.307 191.934 357.463 191.492C357.618 191.05 357.861 190.644 358.176 190.297C358.491 189.951 358.872 189.671 359.297 189.474C359.722 189.277 360.182 189.166 360.65 189.15V189.15Z" fill="#141A2D"/>
<path id="Vector_45" fill-rule="evenodd" clip-rule="evenodd" d="M329.94 190.6C329.471 190.617 329.011 190.726 328.586 190.923C328.16 191.12 327.778 191.4 327.462 191.747C327.147 192.093 326.903 192.499 326.747 192.941C326.59 193.383 326.523 193.852 326.55 194.32V194.44C326.612 195.375 327.034 196.25 327.728 196.881C328.422 197.511 329.333 197.848 330.27 197.82V197.82C330.738 197.805 331.198 197.696 331.622 197.5C332.047 197.304 332.429 197.025 332.744 196.679C333.059 196.333 333.301 195.928 333.457 195.486C333.613 195.045 333.678 194.577 333.65 194.11V194C333.591 193.064 333.171 192.187 332.48 191.553C331.788 190.919 330.878 190.577 329.94 190.6V190.6Z" fill="#141A2D"/>
<path id="Vector_46" fill-rule="evenodd" clip-rule="evenodd" d="M331.8 165.53C328.68 165.68 322.72 167.44 323.01 173.67C323.3 179.9 322.35 184.9 318.37 185.09C318.37 185.09 318.48 187.24 318.6 189.98C318.72 192.72 318.6 195.49 316.02 195.61C315.74 189.73 313.84 187.5 313.84 187.5C313.84 187.5 313.47 179.64 313.15 172.76C312.83 165.88 314.33 156.55 323.06 149.76C328.701 145.476 335.51 143.005 342.586 142.673C349.662 142.34 356.672 144.163 362.69 147.9C372.02 153.82 374.38 162.97 374.69 169.85C375 176.73 375.38 184.59 375.38 184.59C375.38 184.59 373.69 186.98 373.97 192.86C371.39 192.99 370.97 190.23 370.86 187.5C370.75 184.77 370.63 182.61 370.63 182.61C366.63 182.8 365.25 177.91 364.95 171.68C364.65 165.45 358.56 164.25 355.44 164.39L331.8 165.53Z" fill="#141A2D"/>
<path id="Vector_47" fill-rule="evenodd" clip-rule="evenodd" d="M325.56 167.74C324.676 168.439 323.98 169.347 323.535 170.383C323.09 171.418 322.91 172.548 323.01 173.67C323.3 179.9 322.35 184.9 318.37 185.09V185.64V186.53L318.47 188.58C318.495 189.194 318.277 189.793 317.863 190.248C317.449 190.703 316.874 190.976 316.26 191.01V191.01C315.644 191.034 315.044 190.815 314.589 190.399C314.134 189.984 313.861 189.405 313.83 188.79L313.69 185.86V185.77L313.08 172.77C312.987 170.898 313.051 169.021 313.27 167.16C318.53 164.28 325.49 167.75 325.49 167.75L325.56 167.74ZM370.68 183.1V183.19L370.82 186.13C370.851 186.745 371.124 187.322 371.579 187.736C372.035 188.15 372.635 188.367 373.25 188.34V188.34C373.865 188.309 374.442 188.036 374.856 187.581C375.27 187.125 375.487 186.525 375.46 185.91L375.36 183.91V183.02L374.75 169.92C374.66 168.047 374.419 166.184 374.03 164.35C368.55 161.98 362.03 166.03 361.92 166.07C362.864 166.688 363.641 167.53 364.18 168.521C364.719 169.512 365.004 170.622 365.01 171.75C365.31 177.98 366.72 182.87 370.69 182.68L370.68 183.1Z" fill="#141A2D"/>
<path id="Vector_48" fill-rule="evenodd" clip-rule="evenodd" d="M343.74 197.65C343.114 199.139 342.593 200.669 342.18 202.23C342.05 203.3 343.1 203.84 345.23 203.4C347.36 202.96 345.11 195.48 343.74 197.65Z" fill="#EFCCAF"/>
<path id="Vector_49" fill-rule="evenodd" clip-rule="evenodd" d="M337 158.1L340.54 165.1C340.54 165.1 326.54 174.86 315.42 167.95C304.3 161.04 307.71 145.46 314.73 139.86C321.75 134.26 331.73 136.91 335.23 141.93C335.23 141.93 353.93 139.18 360.33 140.16C366.73 141.14 370.66 145.97 371.25 154.33C371.25 154.33 376.25 156.6 376.86 165.06C377.47 173.52 375.46 184.86 375.46 184.86L369.58 171.16C369.58 171.16 371.4 149.94 337 158.1Z" fill="#141A2D"/>
<path id="Vector_50" fill-rule="evenodd" clip-rule="evenodd" d="M295.86 293.51L256.1 301C256.04 301 236.35 304 235.05 283.86C233.79 264.29 239.63 208.07 239.65 207.86C239.65 207.86 240.28 203.56 243.3 202.55L243.61 198.35C243.659 197.778 243.91 197.242 244.319 196.838C244.728 196.435 245.267 196.191 245.84 196.15L245.97 197.33C245.675 197.341 245.394 197.458 245.179 197.66C244.963 197.863 244.829 198.136 244.8 198.43C244.8 199.96 244.54 201.92 244.42 203.5L243.98 203.6C241.4 204.14 240.83 208.03 240.83 208.04C240.71 209.19 234.99 264.46 236.24 283.77C237.46 302.63 255.84 299.82 255.93 299.77L295.64 292.28L295.86 293.51Z" fill="#C5D2EB"/>
<path id="Vector_51" fill-rule="evenodd" clip-rule="evenodd" d="M419.7 265.38C419.669 265.308 419.653 265.23 419.652 265.152C419.651 265.073 419.666 264.995 419.696 264.923C419.726 264.85 419.77 264.784 419.826 264.729C419.881 264.673 419.947 264.63 420.02 264.6C420.166 264.54 420.33 264.54 420.476 264.6C420.622 264.66 420.738 264.775 420.8 264.92C426.34 278.27 425.91 317.28 425.69 337.47V339.3C424.896 347.629 421.459 355.485 415.88 361.72C412.5 365.44 405.71 371.82 398.46 378.4C391.21 384.98 383.51 391.77 378.28 396.34C378.222 396.392 378.154 396.431 378.081 396.456C378.007 396.481 377.93 396.491 377.852 396.485C377.775 396.48 377.699 396.459 377.63 396.424C377.561 396.388 377.5 396.339 377.45 396.28C377.347 396.163 377.295 396.01 377.304 395.855C377.313 395.699 377.384 395.554 377.5 395.45C382.69 390.91 390.38 384.13 397.66 377.52C404.94 370.91 411.66 364.59 415 360.92C420.405 354.896 423.735 347.297 424.5 339.24V337.46C424.72 317.36 425.15 278.51 419.7 265.38Z" fill="#C5D2EB"/>
</g>
<path id="Vector_52" fill-rule="evenodd" clip-rule="evenodd" d="M202.47 204.81C202.47 204.574 202.564 204.348 202.731 204.181C202.898 204.014 203.124 203.92 203.36 203.92C203.596 203.92 203.822 204.014 203.989 204.181C204.156 204.348 204.25 204.574 204.25 204.81V206.33H205.77C205.896 206.317 206.022 206.33 206.142 206.369C206.262 206.408 206.373 206.472 206.467 206.556C206.561 206.64 206.636 206.744 206.687 206.859C206.738 206.974 206.765 207.099 206.765 207.225C206.765 207.351 206.738 207.476 206.687 207.591C206.636 207.706 206.561 207.81 206.467 207.894C206.373 207.978 206.262 208.042 206.142 208.081C206.022 208.12 205.896 208.133 205.77 208.12H204.25V209.64C204.25 209.876 204.156 210.102 203.989 210.269C203.822 210.436 203.596 210.53 203.36 210.53C203.124 210.53 202.898 210.436 202.731 210.269C202.564 210.102 202.47 209.876 202.47 209.64V208.12H200.94C200.719 208.097 200.514 207.992 200.366 207.827C200.217 207.662 200.135 207.447 200.135 207.225C200.135 207.003 200.217 206.788 200.366 206.623C200.514 206.458 200.719 206.353 200.94 206.33H202.47V204.81Z" fill="#2E5F77"/>
<path id="Vector_53" fill-rule="evenodd" clip-rule="evenodd" d="M94 298.36C94 298.124 94.0938 297.898 94.2607 297.731C94.4276 297.564 94.654 297.47 94.89 297.47C95.1261 297.47 95.3524 297.564 95.5194 297.731C95.6863 297.898 95.78 298.124 95.78 298.36V299.88H97.31C97.5311 299.903 97.7357 300.008 97.8843 300.173C98.033 300.338 98.1153 300.553 98.1153 300.775C98.1153 300.997 98.033 301.212 97.8843 301.377C97.7357 301.542 97.5311 301.647 97.31 301.67H95.78V303.19C95.78 303.426 95.6863 303.652 95.5194 303.819C95.3524 303.986 95.1261 304.08 94.89 304.08C94.654 304.08 94.4276 303.986 94.2607 303.819C94.0938 303.652 94 303.426 94 303.19V301.67H92.48C92.3546 301.683 92.2277 301.67 92.1077 301.631C91.9876 301.592 91.8771 301.528 91.7833 301.444C91.6895 301.36 91.6145 301.256 91.5632 301.141C91.5118 301.026 91.4853 300.901 91.4853 300.775C91.4853 300.649 91.5118 300.524 91.5632 300.409C91.6145 300.294 91.6895 300.19 91.7833 300.106C91.8771 300.022 91.9876 299.958 92.1077 299.919C92.2277 299.88 92.3546 299.867 92.48 299.88H94V298.36Z" fill="#5293AA"/>
<path id="Vector_54" fill-rule="evenodd" clip-rule="evenodd" d="M220.89 81.18C220.913 80.9589 221.018 80.7544 221.183 80.6057C221.348 80.457 221.563 80.3747 221.785 80.3747C222.007 80.3747 222.222 80.457 222.387 80.6057C222.552 80.7544 222.657 80.9589 222.68 81.18V82.7H224.2C224.421 82.7234 224.626 82.8278 224.774 82.993C224.923 83.1583 225.005 83.3727 225.005 83.595C225.005 83.8173 224.923 84.0317 224.774 84.197C224.626 84.3622 224.421 84.4666 224.2 84.49H222.68V86C222.657 86.221 222.552 86.4256 222.387 86.5743C222.222 86.723 222.007 86.8053 221.785 86.8053C221.563 86.8053 221.348 86.723 221.183 86.5743C221.018 86.4256 220.913 86.221 220.89 86V84.49H219.37C219.149 84.4666 218.944 84.3622 218.796 84.197C218.647 84.0317 218.565 83.8173 218.565 83.595C218.565 83.3727 218.647 83.1583 218.796 82.993C218.944 82.8278 219.149 82.7234 219.37 82.7H220.89V81.18Z" fill="#6F87C2"/>
<path id="Vector_55" fill-rule="evenodd" clip-rule="evenodd" d="M47.86 236.57C47.8834 236.349 47.9878 236.144 48.153 235.996C48.3183 235.847 48.5327 235.765 48.755 235.765C48.9773 235.765 49.1917 235.847 49.357 235.996C49.5222 236.144 49.6266 236.349 49.65 236.57V238.09H51.17C51.391 238.113 51.5956 238.218 51.7443 238.383C51.893 238.548 51.9753 238.763 51.9753 238.985C51.9753 239.207 51.893 239.422 51.7443 239.587C51.5956 239.752 51.391 239.857 51.17 239.88H49.65V241.4C49.6266 241.621 49.5222 241.826 49.357 241.974C49.1917 242.123 48.9773 242.205 48.755 242.205C48.5327 242.205 48.3183 242.123 48.153 241.974C47.9878 241.826 47.8834 241.621 47.86 241.4V239.88H46.34C46.1189 239.857 45.9144 239.752 45.7657 239.587C45.617 239.422 45.5347 239.207 45.5347 238.985C45.5347 238.763 45.617 238.548 45.7657 238.383C45.9144 238.218 46.1189 238.113 46.34 238.09H47.86V236.57Z" fill="#2E5F77"/>
<path id="Vector_56" fill-rule="evenodd" clip-rule="evenodd" d="M5.86999 401.2C5.86999 400.964 5.96376 400.738 6.13067 400.571C6.29757 400.404 6.52395 400.31 6.75999 400.31C6.99604 400.31 7.22241 400.404 7.38932 400.571C7.55622 400.738 7.64999 400.964 7.64999 401.2V402.72H9.16999C9.29547 402.707 9.42234 402.72 9.54237 402.759C9.6624 402.798 9.7729 402.862 9.8667 402.946C9.9605 403.03 10.0355 403.134 10.0869 403.249C10.1382 403.364 10.1647 403.489 10.1647 403.615C10.1647 403.741 10.1382 403.866 10.0869 403.981C10.0355 404.096 9.9605 404.2 9.8667 404.284C9.7729 404.368 9.6624 404.432 9.54237 404.471C9.42234 404.51 9.29547 404.523 9.16999 404.51H7.64999V406C7.64999 406.236 7.55622 406.462 7.38932 406.629C7.22241 406.796 6.99604 406.89 6.75999 406.89C6.52395 406.89 6.29757 406.796 6.13067 406.629C5.96376 406.462 5.86999 406.236 5.86999 406V404.48H4.33999C4.11894 404.457 3.91436 404.352 3.76568 404.187C3.61699 404.022 3.53473 403.807 3.53473 403.585C3.53473 403.363 3.61699 403.148 3.76568 402.983C3.91436 402.818 4.11894 402.713 4.33999 402.69H5.86999V401.2Z" fill="#5293AA"/>
<path id="Vector_57" fill-rule="evenodd" clip-rule="evenodd" d="M299.68 122.36H408.84C409.882 122.363 410.88 122.778 411.616 123.514C412.353 124.25 412.767 125.249 412.77 126.29V254.29C414.29 255.852 415.693 257.524 416.97 259.29V122.57C416.967 121.529 416.552 120.53 415.816 119.794C415.08 119.058 414.082 118.643 413.04 118.64H259.94C258.936 118.644 257.97 119.031 257.242 119.722C256.513 120.413 256.076 121.357 256.02 122.36H299.68Z" fill="#5293AA"/>
</g>
</svg>
